<?xml version="1.0" encoding="UTF-8"?>
<svg version="1.1" xmlns="http://www.w3.org/2000/svg" width="190" height="182">
<path d="M0 0 C4.75203363 4.94955092 5.28983433 8.98565579 5.21875 15.703125 C4.9375 18.375 4.9375 18.375 3.25 21.5 C1.69488552 24.90644125 2.03308529 25.48341362 3.25 28.875 C3.70246094 30.01775391 3.70246094 30.01775391 4.1640625 31.18359375 C5.14910438 33.97454573 5.16305304 36.44281048 4.9375 39.375 C5.52144531 39.59027344 6.10539063 39.80554687 6.70703125 40.02734375 C11.86944955 43.14649316 14.93123719 50.21462685 16.71484375 55.81640625 C17.7599687 62.38073036 16.04791189 69.114969 12.453125 74.66796875 C11.70289063 75.51294922 11.70289063 75.51294922 10.9375 76.375 C10.2775 76.375 9.6175 76.375 8.9375 76.375 C8.73125 77.220625 8.525 78.06625 8.3125 78.9375 C6.27479713 84.03175717 2.84188672 87.53012536 -1.0625 91.3125 C-2.87369058 93.18029029 -4.20845638 94.99732552 -5.6875 97.125 C-15.86976071 110.74345788 -32.53218617 116.18227565 -48.0625 121.375 C-47.33804688 121.53355469 -46.61359375 121.69210938 -45.8671875 121.85546875 C-44.90039062 122.08878906 -43.93359375 122.32210937 -42.9375 122.5625 C-41.98617187 122.78292969 -41.03484375 123.00335938 -40.0546875 123.23046875 C-33.63699571 125.68527775 -30.38466836 129.81372094 -27.5 135.875 C-27.21116943 136.47795898 -26.92233887 137.08091797 -26.62475586 137.70214844 C-19.0625 153.77638745 -19.0625 153.77638745 -19.0625 158.375 C-44.1425 158.375 -69.2225 158.375 -95.0625 158.375 C-95.0625 157.055 -95.0625 155.735 -95.0625 154.375 C-95.70147217 155.02694336 -96.34044434 155.67888672 -96.9987793 156.35058594 C-101.1464739 159.0912572 -104.22547397 158.88682388 -109.08203125 158.765625 C-110.36988777 158.75713531 -110.36988777 158.75713531 -111.6837616 158.74847412 C-114.4147516 158.72615787 -117.14440939 158.67597167 -119.875 158.625 C-121.73110079 158.6049288 -123.58722223 158.58667911 -125.44335938 158.5703125 C-129.98358296 158.52630881 -134.52281593 158.45731521 -139.0625 158.375 C-139.0625 157.385 -139.0625 156.395 -139.0625 155.375 C-139.88492188 155.22804687 -140.70734375 155.08109375 -141.5546875 154.9296875 C-149.30101681 153.37326568 -155.73813312 151.226384 -162.0625 146.375 C-163.51397903 143.47204195 -163.43489025 141.60238221 -163.0625 138.375 C-161.91015625 136.7890625 -161.91015625 136.7890625 -160.5 135.25 C-157.80949881 132.76296589 -157.80949881 132.76296589 -158.21484375 130.5078125 C-159.61697083 126.97987984 -161.79542379 123.96763132 -163.8828125 120.8125 C-165.0625 118.375 -165.0625 118.375 -164.7421875 116.0625 C-164.0625 114.375 -164.0625 114.375 -162.37109375 113.6171875 C-160.0625 113.375 -160.0625 113.375 -157.66015625 115.0703125 C-156.82355469 115.87210938 -155.98695313 116.67390625 -155.125 117.5 C-154.25101563 118.32757813 -153.37703125 119.15515625 -152.4765625 120.0078125 C-151.67992187 120.78898438 -150.88328125 121.57015625 -150.0625 122.375 C-149.20785156 123.20644531 -149.20785156 123.20644531 -148.3359375 124.0546875 C-147.2305059 125.14719008 -146.14390566 126.25871029 -145.0625 127.375 C-144.7325 127.705 -144.4025 128.035 -144.0625 128.375 C-143.505625 127.405625 -142.94875 126.43625 -142.375 125.4375 C-140.0625 122.375 -140.0625 122.375 -137.3125 121.5 C-136.57 121.45875 -135.8275 121.4175 -135.0625 121.375 C-134.33009041 117.43475278 -133.9344456 113.70520142 -133.9296875 109.69921875 C-133.92775391 108.63243896 -133.92582031 107.56565918 -133.92382812 106.46655273 C-133.92833984 105.34321533 -133.93285156 104.21987793 -133.9375 103.0625 C-133.93943359 101.89984619 -133.94136719 100.73719238 -133.94335938 99.53930664 C-133.98207498 91.77844123 -134.29425648 84.09026286 -134.84375 76.3515625 C-135.12407534 71.25564829 -135.11521434 66.18146635 -135.02539062 61.07983398 C-134.97410442 57.04449698 -135.3582922 53.34023163 -136.0625 49.375 C-136.14986142 47.52242392 -136.19277632 45.66712727 -136.1875 43.8125 C-136.19007813 42.90371094 -136.19265625 41.99492188 -136.1953125 41.05859375 C-136.06391287 38.40354821 -135.65226031 35.96339248 -135.0625 33.375 C-135.701875 33.08625 -136.34125 32.7975 -137 32.5 C-139.0625 31.375 -139.0625 31.375 -140.0625 29.375 C-140.91411061 23.51105267 -140.15708438 19.3239835 -136.75 14.484375 C-131.69016224 8.1595778 -126.40016271 2.41632261 -120.0625 -2.625 C-119.32 -3.429375 -118.5775 -4.23375 -117.8125 -5.0625 C-88.99882281 -31.91160829 -27.56022919 -26.43761293 0 0 Z M-113.0625 111.375 C-113.35282827 120.93970344 -112.52301903 129.94682803 -111.0625 139.375 C-107.28590828 137.26415498 -104.23276029 134.8749443 -101.0625 131.9375 C-91.41861953 123.03197912 -91.41861953 123.03197912 -85.75 122.125 C-84.86699219 121.97546875 -83.98398438 121.8259375 -83.07421875 121.671875 C-82.07841797 121.52492187 -82.07841797 121.52492187 -81.0625 121.375 C-81.0625 121.045 -81.0625 120.715 -81.0625 120.375 C-82.23425781 120.13265625 -83.40601563 119.8903125 -84.61328125 119.640625 C-93.37123961 117.78756747 -101.73490234 115.72807807 -110.0625 112.375 C-111.0525 112.045 -112.0425 111.715 -113.0625 111.375 Z M-135.0625 129.375 C-134.0625 131.375 -134.0625 131.375 -134.0625 131.375 Z " fill="#292625" transform="translate(170.0625,23.625)"/>
<path d="M0 0 C2.22955653 1.27015331 4.45865426 2.54110048 6.6875 3.8125 C7.31333984 4.16892578 7.93917969 4.52535156 8.58398438 4.89257812 C10.39174379 5.9242314 12.19638487 6.96112177 14 8 C14.97582031 8.56074219 15.95164062 9.12148438 16.95703125 9.69921875 C17.63121094 10.12847656 18.30539063 10.55773438 19 11 C19 11.33 19 11.66 19 12 C14.545 12.495 14.545 12.495 10 13 C11.97756083 13.0508982 11.97756083 13.0508982 13.8203125 12.71875 C23.82591786 11.76906542 32.99186255 17.55445374 40.9921875 23.05859375 C41.65476562 23.69925781 42.31734375 24.33992188 43 25 C42.8125 28.3125 42.8125 28.3125 42.4140625 30.40625 C40.70807166 41.09283412 41.20230479 52.25574588 47.63671875 61.30078125 C48.08660156 61.86152344 48.53648437 62.42226562 49 63 C44.67106815 68.18419194 40.23435005 72.72706118 35 77 C46.19146924 70.22621598 56.1493871 60.13224596 63 49 C64 52 64 52 63.3203125 53.9453125 C56.53410577 66.32016007 44.32704691 76.97404594 31.53515625 82.8125 C28.73685186 84.12326199 26.11162818 85.64029928 23.4375 87.1875 C18.64344021 89.84403741 14.39484113 91.11559981 9 92 C9.103125 93.0725 9.20625 94.145 9.3125 95.25 C9 99 9 99 6.8125 101.3125 C1.60545283 104.4367283 -2.84660141 105.93560446 -9 105 C-12.5 103.5 -12.5 103.5 -15 101 C-15.33107847 98.29575104 -15.11119091 95.73529631 -15 93 C-15.66418945 92.87471924 -16.32837891 92.74943848 -17.01269531 92.62036133 C-50.61758079 86.19486944 -50.61758079 86.19486944 -58 77 C-60.28235172 72.699242 -60.35830291 68.39269033 -60.5 63.625 C-60.66690683 58.06798422 -61.32223967 53.35694343 -63 48 C-64.43950382 35.28438297 -55.20666063 24.97734684 -48.0703125 15.4140625 C-45.71538936 12.66813326 -43.18119256 10.4680042 -40.375 8.1875 C-39.41335937 7.39730469 -38.45171875 6.60710938 -37.4609375 5.79296875 C-35 4 -35 4 -33 4 C-32.56300781 5.25103516 -32.56300781 5.25103516 -32.1171875 6.52734375 C-28.21721958 17.23385947 -24.03245478 24.95468527 -15 32 C-14.505 30.515 -14.505 30.515 -14 29 C-13.46890625 29.49371094 -12.9378125 29.98742187 -12.390625 30.49609375 C-11.33101562 31.45708984 -11.33101562 31.45708984 -10.25 32.4375 C-9.55390625 33.07558594 -8.8578125 33.71367188 -8.140625 34.37109375 C-6.01207275 35.99081325 -4.60976595 36.58267256 -2 37 C-0.84020004 29.35896499 -0.66802794 21.71701718 -0.4375 14 C-0.39421865 12.63931211 -0.35060161 11.27863485 -0.30664062 9.91796875 C-0.20113317 6.61206843 -0.09901744 3.30610001 0 0 Z " fill="#F7D5B6" transform="translate(109,51)"/>
<path d="M0 0 C4.75203363 4.94955092 5.28983433 8.98565579 5.21875 15.703125 C4.9375 18.375 4.9375 18.375 3.25 21.5 C1.69488552 24.90644125 2.03308529 25.48341362 3.25 28.875 C3.70246094 30.01775391 3.70246094 30.01775391 4.1640625 31.18359375 C5.14910438 33.97454573 5.16305304 36.44281048 4.9375 39.375 C5.52144531 39.59027344 6.10539063 39.80554687 6.70703125 40.02734375 C11.86944955 43.14649316 14.93123719 50.21462685 16.71484375 55.81640625 C17.63932954 61.62300801 16.30892465 67.04885674 13.9375 72.375 C11.75 75 11.75 75 9.9375 76.375 C9.9375 73.375 9.9375 73.375 10.9375 71.375 C9.6175 71.375 8.2975 71.375 6.9375 71.375 C6.6075 70.385 6.2775 69.395 5.9375 68.375 C4.6175 68.705 3.2975 69.035 1.9375 69.375 C1.6075 66.735 1.2775 64.095 0.9375 61.375 C0.6075 63.025 0.2775 64.675 -0.0625 66.375 C-1.0525 66.375 -2.0425 66.375 -3.0625 66.375 C-3.0625 63.405 -3.0625 60.435 -3.0625 57.375 C-3.7225 60.345 -4.3825 63.315 -5.0625 66.375 C-7.3725 66.375 -9.6825 66.375 -12.0625 66.375 C-11.71756929 57.30332225 -10.30786957 49.53573022 -4.625 42.25 C-1.69354259 40.10503117 -0.57163115 40.19925053 2.9375 40.375 C1.12577633 29.62616089 1.12577633 29.62616089 -4.0625 20.375 C-11.76461728 16.04865248 -20.6183109 13.81291911 -29.0625 11.375 C-28.4025 11.045 -27.7425 10.715 -27.0625 10.375 C-24.64561732 3.95981758 -24.83553639 -2.87913726 -25.0625 -9.625 C-27.0425 -10.615 -29.0225 -11.605 -31.0625 -12.625 C-31.0625 -11.635 -31.0625 -10.645 -31.0625 -9.625 C-31.95316162 -9.83721191 -32.84382324 -10.04942383 -33.76147461 -10.26806641 C-42.77868137 -12.26383586 -51.296877 -13.09992938 -60.52416992 -13.01611328 C-62.62809742 -12.99997624 -64.73011289 -13.01610343 -66.83398438 -13.03515625 C-77.63034044 -13.05183794 -88.0331515 -11.90818602 -98.0625 -7.625 C-97.08410156 -7.96724609 -97.08410156 -7.96724609 -96.0859375 -8.31640625 C-91.04763695 -9.9735464 -87.33460302 -11.15113509 -82.0625 -9.625 C-82.0625 -10.285 -82.0625 -10.945 -82.0625 -11.625 C-66.18086779 -15.24906973 -46.50239695 -13.77163232 -31.0625 -8.625 C-30.82516955 -3.04773453 -31.48403969 2.00593061 -33.0625 7.375 C-34.0625 8.375 -34.0625 8.375 -35.94445801 8.47506714 C-36.7678064 8.46379791 -37.59115479 8.45252869 -38.43945312 8.44091797 C-39.37132446 8.43115936 -40.3031958 8.42140076 -41.26330566 8.41134644 C-42.78812561 8.38948776 -42.78812561 8.38948776 -44.34375 8.3671875 C-46.48697429 8.34965368 -48.63020378 8.33274712 -50.7734375 8.31640625 C-54.15932586 8.28557205 -57.54495437 8.25024164 -60.93066406 8.20361328 C-64.19339116 8.16099768 -67.45581891 8.13774273 -70.71875 8.1171875 C-71.71910278 8.09856659 -72.71945557 8.07994568 -73.75012207 8.0607605 C-79.31695685 8.04066891 -83.85169631 8.61214589 -89.04699707 10.66067505 C-92.33210308 11.82496668 -95.60313129 12.06051194 -99.0625 12.375 C-99.0625 13.035 -99.0625 13.695 -99.0625 14.375 C-99.94550781 14.66632812 -100.82851562 14.95765625 -101.73828125 15.2578125 C-118.75962451 20.59111854 -118.75962451 20.59111854 -131.0625 32.375 C-133.375 32.1875 -133.375 32.1875 -136.0625 31.375 C-138.79093618 27.96445477 -140.0625 24.74109203 -140.0625 20.375 C-136.28738663 11.17564478 -127.69475427 3.44611135 -120.0625 -2.625 C-119.32 -3.429375 -118.5775 -4.23375 -117.8125 -5.0625 C-88.99882281 -31.91160829 -27.56022919 -26.43761293 0 0 Z " fill="#1F060F" transform="translate(170.0625,23.625)"/>
<path d="M0 0 C4.60383288 0.84531213 6.90353384 3.63792406 10 6.9375 C14.39637425 11.77899377 14.39637425 11.77899377 20 15 C20.12375 14.05125 20.2475 13.1025 20.375 12.125 C21 9 21 9 23 7 C23.99 7 24.98 7 26 7 C25.98839844 7.80824219 25.97679688 8.61648437 25.96484375 9.44921875 C25.95582031 10.51785156 25.94679688 11.58648437 25.9375 12.6875 C25.92589844 13.74324219 25.91429688 14.79898438 25.90234375 15.88671875 C25.99134575 18.72410262 26.35060162 21.2438919 27 24 C27.71285156 24.18175781 28.42570312 24.36351562 29.16015625 24.55078125 C35.93028833 26.32759923 42.1270238 28.08468254 48 32 C48 30.68 48 29.36 48 28 C50.16015625 25.88671875 50.16015625 25.88671875 53.0625 23.6875 C56.51584212 20.99566409 59.78455172 18.35184235 62.8125 15.1875 C67.75821321 10.12431141 71.8034106 7.57572715 79 7 C79 9.31 79 11.62 79 14 C79.99 13.67 80.98 13.34 82 13 C83.734375 13.55859375 83.734375 13.55859375 85.75 14.4375 C95.56705852 17.91270669 106.44865026 16.77559237 116 13 C116.495 15.475 116.495 15.475 117 18 C117 15.03 117 12.06 117 9 C120.9113148 9 123.65987893 9.03321827 126.87890625 11.35546875 C134.8111458 19.67810936 137.78506531 31.28355104 141 42 C116.58 42 92.16 42 67 42 C67 40.68 67 39.36 67 38 C66.32219482 38.64759277 65.64438965 39.29518555 64.94604492 39.96240234 C59.9762674 43.39969108 54.33840727 42.66675828 48.50024414 42.63134766 C46.3346638 42.62506431 44.17466287 42.671822 42.00976562 42.72265625 C34.30360418 42.79081062 28.49683347 42.16169295 22.10839844 37.38818359 C19.6904068 35.79616177 17.78558123 35.3935928 14.9375 35 C9.30944205 34.16158883 5.44726534 31.4160154 1 28 C1.26218749 23.5428126 1.57711289 21.48477302 4.5625 18.0625 C5.7690625 17.0415625 5.7690625 17.0415625 7 16 C5.65199518 11.95598553 3.65198433 9.03557577 1.0234375 5.74609375 C0 4 0 4 0 0 Z " fill="#A1264D" transform="translate(8,140)"/>
<path d="M0 0 C1.14316177 -0.00855011 1.14316177 -0.00855011 2.30941772 -0.01727295 C3.91801586 -0.02668104 5.52663291 -0.03324017 7.13525391 -0.03710938 C9.55797342 -0.04676357 11.97982464 -0.07780481 14.40234375 -0.109375 C23.35410265 -0.17096611 31.37220474 0.37483691 39.9609375 3.203125 C40.63962891 3.41791504 41.31832031 3.63270508 42.01757812 3.85400391 C43.66097104 4.40255154 45.28139239 5.01868457 46.8984375 5.640625 C47.93871094 6.03121094 48.97898437 6.42179687 50.05078125 6.82421875 C53.14175562 8.28880124 55.4566629 9.87804715 57.9609375 12.203125 C59.82116686 17.78381308 56.66599106 23.68856551 54.2734375 28.828125 C53.8403125 29.611875 53.4071875 30.395625 52.9609375 31.203125 C38.23774925 30.19927126 18.39376802 19.40195415 6.9609375 10.203125 C5.671875 8 5.671875 8 4.9609375 6.203125 C4.3009375 6.533125 3.6409375 6.863125 2.9609375 7.203125 C2.39852808 9.23133007 2.39852808 9.23133007 2.109375 11.67578125 C1.98046875 12.57490234 1.8515625 13.47402344 1.71875 14.40039062 C1.52925781 15.81868164 1.52925781 15.81868164 1.3359375 17.265625 C1.201875 18.21501953 1.0678125 19.16441406 0.9296875 20.14257812 C0.59868102 22.49508845 0.27615678 24.84845594 -0.0390625 27.203125 C-0.6990625 26.213125 -1.3590625 25.223125 -2.0390625 24.203125 C-1.34219864 34.23661777 -1.34219864 34.23661777 -0.0390625 44.203125 C-3.4262615 42.7643148 -5.3984729 40.98193001 -7.7890625 38.203125 C-8.70945312 37.15125 -8.70945312 37.15125 -9.6484375 36.078125 C-11.0390625 34.203125 -11.0390625 34.203125 -11.0390625 32.203125 C-11.6990625 32.203125 -12.3590625 32.203125 -13.0390625 32.203125 C-12.81046192 33.66496558 -12.55535858 35.12267919 -12.2890625 36.578125 C-12.14984375 37.39023438 -12.010625 38.20234375 -11.8671875 39.0390625 C-11.22156989 41.38021592 -11.22156989 41.38021592 -8.9609375 42.4921875 C-8.32671875 42.72679687 -7.6925 42.96140625 -7.0390625 43.203125 C-7.3690625 44.523125 -7.6990625 45.843125 -8.0390625 47.203125 C-16.19156312 43.69882073 -20.72074093 35.67725062 -24.12890625 27.87890625 C-25.1086697 24.99848582 -25.62048534 22.21247446 -26.0390625 19.203125 C-40.22605584 30.30479164 -52.32943626 42.99223257 -56.0390625 61.203125 C-57.0290625 60.873125 -58.0190625 60.543125 -59.0390625 60.203125 C-63.24028747 50.83981095 -67.42572002 39.49194734 -65.0390625 29.203125 C-63.20704245 25.88400226 -60.88089801 23.67589096 -58.0390625 21.203125 C-57.37519531 20.52636719 -56.71132813 19.84960938 -56.02734375 19.15234375 C-42.45163554 5.82757285 -18.59442564 0.10993216 0 0 Z " fill="#3C3B3B" transform="translate(102.0390625,35.796875)"/>
<path d="M0 0 C0.23733045 5.57726547 -0.42153969 10.63093061 -2 16 C-3 17 -3 17 -4.88195801 17.10006714 C-5.7053064 17.08879791 -6.52865479 17.07752869 -7.37695312 17.06591797 C-8.30882446 17.05615936 -9.2406958 17.04640076 -10.20080566 17.03634644 C-11.72562561 17.01448776 -11.72562561 17.01448776 -13.28125 16.9921875 C-15.42447429 16.97465368 -17.56770378 16.95774712 -19.7109375 16.94140625 C-23.09682586 16.91057205 -26.48245437 16.87524164 -29.86816406 16.82861328 C-33.13089116 16.78599768 -36.39331891 16.76274273 -39.65625 16.7421875 C-40.65660278 16.72356659 -41.65695557 16.70494568 -42.68762207 16.6857605 C-48.25712183 16.66565929 -52.82442421 17.24578383 -58.03675842 19.25248718 C-61.25160571 20.47655435 -64.59156045 21.16414408 -67.9375 21.9375 C-73.57397868 23.27675006 -78.80486493 24.91998049 -84.08203125 27.36328125 C-86 28 -86 28 -89 27 C-91.23860357 22.52279286 -91.28214115 17.76908577 -90 13 C-86.25171734 9.21410916 -81.82040064 7.10222701 -77 5 C-76.32114746 4.70335449 -75.64229492 4.40670898 -74.94287109 4.10107422 C-67.15987822 0.79671584 -59.57986864 -2 -51 -2 C-51 -2.33 -51 -2.66 -51 -3 C-35.11836779 -6.62406973 -15.43989695 -5.14663232 0 0 Z " fill="#D41857" transform="translate(139,15)"/>
<path d="M0 0 C4.60383288 0.84531213 6.90353384 3.63792406 10 6.9375 C14.39637425 11.77899377 14.39637425 11.77899377 20 15 C20.12375 14.05125 20.2475 13.1025 20.375 12.125 C21 9 21 9 23 7 C23.99 7 24.98 7 26 7 C25.98839844 7.80824219 25.97679688 8.61648437 25.96484375 9.44921875 C25.95582031 10.51785156 25.94679688 11.58648437 25.9375 12.6875 C25.92589844 13.74324219 25.91429688 14.79898438 25.90234375 15.88671875 C25.99134575 18.72410262 26.35060162 21.2438919 27 24 C27.71285156 24.18175781 28.42570312 24.36351562 29.16015625 24.55078125 C35.93028833 26.32759923 42.1270238 28.08468254 48 32 C48 30.68 48 29.36 48 28 C50.16015625 25.88671875 50.16015625 25.88671875 53.0625 23.6875 C56.51584212 20.99566409 59.78455172 18.35184235 62.8125 15.1875 C67.75821321 10.12431141 71.8034106 7.57572715 79 7 C78.95333261 18.85351595 74.35945706 28.31129949 66.25048828 36.84008789 C59.55892693 42.96869848 53.34569504 43.03219196 44.5625 42.8125 C43.30373047 42.83119141 42.04496094 42.84988281 40.74804688 42.86914062 C33.25698878 42.79489435 28.27135218 41.82910819 22.16992188 37.3815918 C19.7226919 35.82343761 17.79237118 35.39651792 14.9375 35 C9.30944205 34.16158883 5.44726534 31.4160154 1 28 C1.26218749 23.5428126 1.57711289 21.48477302 4.5625 18.0625 C5.7690625 17.0415625 5.7690625 17.0415625 7 16 C5.65199518 11.95598553 3.65198433 9.03557577 1.0234375 5.74609375 C0 4 0 4 0 0 Z " fill="#F8D5B6" transform="translate(8,140)"/>
<path d="M0 0 C2.50360992 4.62204909 5 9.69950655 5 15 C5.99 15.33 6.98 15.66 8 16 C11.03682814 22.5408606 11.42463021 28.77644788 11.53369141 35.8828125 C11.70052167 41.79647067 13.08179489 45.91737731 17.1875 50.375 C17.785625 50.91125 18.38375 51.4475 19 52 C18.67 52.33 18.34 52.66 18 53 C17.47739447 63.66730101 18.25193322 74.39433982 18.90820312 85.03979492 C19.1712789 90.6574422 19.1712789 90.6574422 18 93 C17.49984375 92.39671875 16.9996875 91.7934375 16.484375 91.171875 C13.37306757 88.451927 10.13193162 87.41678096 6.25 86.25 C5.20392578 85.91935547 5.20392578 85.91935547 4.13671875 85.58203125 C2.42791992 85.04364258 0.71439632 84.52028943 -1 84 C-0.9278125 83.08347656 -0.855625 82.16695313 -0.78125 81.22265625 C0.65944884 60.79395688 0.70985494 39.97393091 -0.7734375 19.546875 C-1.79296875 3.5859375 -1.79296875 3.5859375 0 0 Z " fill="#2C2A28" transform="translate(38,81)"/>
<path d="M0 0 C2.0688392 0.02361744 4.13638169 0.02053075 6.20532227 0.01391602 C29.83679814 0.06384043 29.83679814 0.06384043 37.13696289 5.33618164 C37.77758789 7.43774414 37.77758789 7.43774414 38.13696289 9.33618164 C37.24630127 9.12396973 36.35563965 8.91175781 35.43798828 8.69311523 C26.42078152 6.69734578 17.90258589 5.86125226 8.67529297 5.94506836 C6.57136547 5.9612054 4.46935 5.94507821 2.36547852 5.92602539 C-10.56212231 5.90651865 -22.49162155 8.77624369 -34.86303711 12.33618164 C-34.86303711 12.99618164 -34.86303711 13.65618164 -34.86303711 14.33618164 C-42.78303711 18.79118164 -42.78303711 18.79118164 -50.86303711 23.33618164 C-50.88366211 25.27493164 -50.90428711 27.21368164 -50.92553711 29.21118164 C-50.93713867 30.30172852 -50.94874023 31.39227539 -50.96069336 32.51586914 C-51.06048014 35.2879571 -51.06048014 35.2879571 -49.86303711 37.33618164 C-49.28295898 37.14282227 -48.70288086 36.94946289 -48.10522461 36.75024414 C-46.48608281 36.21053021 -44.86625684 35.6728656 -43.24584961 35.13696289 C-41.35843866 34.50266905 -39.48324749 33.83202774 -37.61303711 33.14868164 C-34.87367951 32.33932599 -32.7005938 32.16926654 -29.86303711 32.33618164 C-32.96468653 33.96653582 -36.16370059 35.3021406 -39.39770508 36.64575195 C-52.19176259 41.88388477 -52.19176259 41.88388477 -61.86303711 51.33618164 C-64.17553711 51.14868164 -64.17553711 51.14868164 -66.86303711 50.33618164 C-69.59147329 46.92563641 -70.86303711 43.70227367 -70.86303711 39.33618164 C-67.61018907 31.40950457 -60.00926478 22.93523905 -52.86303711 18.33618164 C-52.18885742 18.17375977 -51.51467773 18.01133789 -50.82006836 17.84399414 C-48.31037819 17.19277713 -47.3520003 16.05819908 -45.55053711 14.21118164 C-33.14862186 2.98710191 -16.16839185 -0.1965936 0 0 Z " fill="#A62850" transform="translate(100.863037109375,4.663818359375)"/>
<path d="M0 0 C0.33 0 0.66 0 1 0 C1.495 5.94 1.495 5.94 2 12 C4.475 11.505 4.475 11.505 7 11 C4.66376024 19.87771108 0.02054521 26.29580702 -7 32 C-7.99796368 33.43150528 -8.95349499 34.89312032 -9.875 36.375 C-19.38862577 51.09557185 -37.0679265 56.85181468 -53 62 C-51.91332031 62.23783203 -51.91332031 62.23783203 -50.8046875 62.48046875 C-49.83789062 62.71378906 -48.87109375 62.94710937 -47.875 63.1875 C-46.92367187 63.40792969 -45.97234375 63.62835938 -44.9921875 63.85546875 C-38.57449571 66.31027775 -35.32216836 70.43872094 -32.4375 76.5 C-32.14866943 77.10295898 -31.85983887 77.70591797 -31.56225586 78.32714844 C-24 94.40138745 -24 94.40138745 -24 99 C-24.66 99 -25.32 99 -26 99 C-26.72916667 97.25 -27.45833333 95.5 -28.1875 93.75 C-28.64640625 92.65816406 -29.1053125 91.56632812 -29.578125 90.44140625 C-30.49126588 88.23130428 -31.37902806 86.0104489 -32.234375 83.77734375 C-35.64959046 74.88845382 -35.64959046 74.88845382 -42 68 C-44.72531499 66.91085965 -47.07003311 66.45465003 -50 66 C-49.505 72.435 -49.505 72.435 -49 79 C-51.29013653 75.5647952 -51.17842973 74.014669 -51 70 C-51.54785156 70.28875 -52.09570312 70.5775 -52.66015625 70.875 C-63.82510611 76.10346432 -75.58635766 74.98646968 -87 71 C-87.66 72.32 -88.32 73.64 -89 75 C-88.67 71.37 -88.34 67.74 -88 64 C-95.92645736 65.7173991 -100.45325087 69.78218956 -106.11328125 75.2578125 C-109.54966431 78.5221439 -113.14345089 81.25591698 -117 84 C-117.66 83.67 -118.32 83.34 -119 83 C-119.73259082 72.3120232 -120.14036598 61.71460306 -120 51 C-116.2016435 49.73388117 -115.52516865 50.47999643 -112 52.1875 C-106.52487735 54.58161575 -101.16078697 56.04381944 -95.3125 57.25 C-94.52939453 57.41266357 -93.74628906 57.57532715 -92.93945312 57.74291992 C-87.64439507 58.79048336 -82.37052454 59.46455388 -77 60 C-78.98 60.495 -78.98 60.495 -81 61 C-80.93108712 66.6257553 -80.93108712 66.6257553 -77.9375 71 C-72.18937431 72.95680875 -67.91703498 72.69178779 -62.5625 70.0625 C-60.11580673 68.75125782 -60.11580673 68.75125782 -58 67 C-57.63239269 64.67182036 -57.29758419 62.3381615 -57 60 C-55.76636719 59.56300781 -55.76636719 59.56300781 -54.5078125 59.1171875 C-48.04842373 56.74526414 -42.17970754 54.19874874 -36.4140625 50.4296875 C-34 49 -34 49 -30.65234375 47.68359375 C-26.43076474 45.92725329 -23.32037231 43.2107314 -19.9375 40.1875 C-19.35162109 39.67896484 -18.76574219 39.17042969 -18.16210938 38.64648438 C-10.28319942 32.10815266 -10.28319942 32.10815266 -4.8125 23.6875 C-3.95703125 21.63671875 -3.95703125 21.63671875 -3 20 C-2.01 19.67 -1.02 19.34 0 19 C-0.495 17.515 -0.495 17.515 -1 16 C-1.66 16 -2.32 16 -3 16 C-3.495 12.04 -3.495 12.04 -4 8 C-3.505 8.99 -3.505 8.99 -3 10 C-2.01 10 -1.02 10 0 10 C0 6.7 0 3.4 0 0 Z M-118 52 C-118.29032827 61.56470344 -117.46051903 70.57182803 -116 80 C-112.22340828 77.88915498 -109.17026029 75.4999443 -106 72.5625 C-96.35611953 63.65697912 -96.35611953 63.65697912 -90.6875 62.75 C-89.80449219 62.60046875 -88.92148438 62.4509375 -88.01171875 62.296875 C-87.01591797 62.14992188 -87.01591797 62.14992188 -86 62 C-86 61.67 -86 61.34 -86 61 C-87.17175781 60.75765625 -88.34351563 60.5153125 -89.55078125 60.265625 C-98.30873961 58.41256747 -106.67240234 56.35307807 -115 53 C-115.99 52.67 -116.98 52.34 -118 52 Z " fill="#050404" transform="translate(175,83)"/>
<path d="M0 0 C0.66 0.66 1.32 1.32 2 2 C0.4221875 2.185625 0.4221875 2.185625 -1.1875 2.375 C-3.74016865 3.12790833 -4.80914677 3.75801632 -6.47265625 5.8671875 C-10.20026968 12.82083946 -11.63337783 20.28913992 -13 28 C-10.69 28 -8.38 28 -6 28 C-5.95101562 27.33613281 -5.90203125 26.67226562 -5.8515625 25.98828125 C-5.10896309 17.21792619 -5.10896309 17.21792619 -3 13 C-1.80873219 16.57380342 -2.2650555 18.50883302 -2.9375 22.1875 C-3.13214844 23.27417969 -3.32679688 24.36085938 -3.52734375 25.48046875 C-3.68332031 26.31191406 -3.83929688 27.14335938 -4 28 C-3.01 28 -2.02 28 -1 28 C-0.67 25.03 -0.34 22.06 0 19 C0.33 19 0.66 19 1 19 C1 24.94 1 30.88 1 37 C1.66 37 2.32 37 3 37 C3.66 38.32 4.32 39.64 5 41 C4.01 41 3.02 41 2 41 C1.67 40.34 1.34 39.68 1 39 C0.63390625 39.58265625 0.2678125 40.1653125 -0.109375 40.765625 C-6.98443246 51.1764263 -15.74981057 59.90371501 -26 67 C-26.66 66.67 -27.32 66.34 -28 66 C-27.15695313 65.25234375 -26.31390625 64.5046875 -25.4453125 63.734375 C-24.33825636 62.73990084 -23.23150125 61.74509151 -22.125 60.75 C-21.29162109 60.01330078 -21.29162109 60.01330078 -20.44140625 59.26171875 C-17.64150364 56.73168627 -15.34491479 54.57508995 -14 51 C-14.8971875 50.0409375 -14.8971875 50.0409375 -15.8125 49.0625 C-23.09912302 38.86122778 -21.93948175 25.87932569 -20 14 C-23.3 11.69 -26.6 9.38 -30 7 C-29.34 6.67 -28.68 6.34 -28 6 C-25.6171875 7.21484375 -25.6171875 7.21484375 -22.875 8.9375 C-21.96492187 9.50339844 -21.05484375 10.06929687 -20.1171875 10.65234375 C-19.41851562 11.09707031 -18.71984375 11.54179688 -18 12 C-17.41992188 11.07767578 -17.41992188 11.07767578 -16.828125 10.13671875 C-16.30734375 9.32847656 -15.7865625 8.52023438 -15.25 7.6875 C-14.73953125 6.88699219 -14.2290625 6.08648437 -13.703125 5.26171875 C-9.59958234 -0.18771061 -6.50796573 -0.52483595 0 0 Z " fill="#12301C" transform="translate(171,62)"/>
<path d="M0 0 C2.55090334 2.89102378 2.97496607 4.71461323 3.3125 8.5625 C3.02962563 11.6741181 2.65799999 13.40937502 1 16 C0.34 16 -0.32 16 -1 16 C-1 16.33 -1 16.66 -1 17 C-7.625 17.25 -7.625 17.25 -11 15 C-10.67 15.33 -10.34 15.66 -10 16 C-11 18 -11 18 -12.76245117 18.63842773 C-13.51502197 18.81833252 -14.26759277 18.9982373 -15.04296875 19.18359375 C-15.86990234 19.38919922 -16.69683594 19.59480469 -17.54882812 19.80664062 C-18.8549707 20.11891602 -18.8549707 20.11891602 -20.1875 20.4375 C-25.86883734 21.80084893 -30.7864479 23.28642129 -36 26 C-36.99 26 -37.98 26 -39 26 C-39.82542718 21.76704012 -40.05939313 18.2065659 -39 14 C-31.24620968 6.12931837 -10.87325213 -3.23884106 0 0 Z " fill="#CE1A57" transform="translate(88,14)"/>
<path d="M0 0 C4.60383288 0.84531213 6.90353384 3.63792406 10 6.9375 C14.39637425 11.77899377 14.39637425 11.77899377 20 15 C20.12375 14.05125 20.2475 13.1025 20.375 12.125 C21 9 21 9 23 7 C23.99 7 24.98 7 26 7 C25.98839844 7.80824219 25.97679688 8.61648437 25.96484375 9.44921875 C25.95582031 10.51785156 25.94679688 11.58648437 25.9375 12.6875 C25.92589844 13.74324219 25.91429688 14.79898438 25.90234375 15.88671875 C25.99213632 18.74930589 26.21170561 21.24840637 27 24 C27.66 24.33 28.32 24.66 29 25 C28.34 25 27.68 25 27 25 C26.7834375 26.11375 26.7834375 26.11375 26.5625 27.25 C26.09800774 29.52085106 25.57094564 31.75460033 25 34 C25.7940625 34.49371094 26.588125 34.98742187 27.40625 35.49609375 C28.4271875 36.13675781 29.448125 36.77742188 30.5 37.4375 C32.03140625 38.39462891 32.03140625 38.39462891 33.59375 39.37109375 C34.3878125 39.90863281 35.181875 40.44617188 36 41 C36 41.33 36 41.66 36 42 C31.40428975 42.72563846 29.00052045 41.56224673 25.25 39.125 C21.74812921 36.86742213 19.06008113 35.60267904 14.9375 35 C9.30944205 34.16158883 5.44726534 31.4160154 1 28 C1.26218749 23.5428126 1.57711289 21.48477302 4.5625 18.0625 C5.7690625 17.0415625 5.7690625 17.0415625 7 16 C5.65199518 11.95598553 3.65198433 9.03557577 1.0234375 5.74609375 C0 4 0 4 0 0 Z " fill="#EDCCAE" transform="translate(8,140)"/>
<path d="M0 0 C4.35047591 0.91588966 5.65342496 2.28870268 8.27734375 5.73828125 C12.15019931 11.80065393 14.55919987 18.50003244 13.5625 25.75 C11.8125 29.25 11.8125 29.25 9.5625 31.75 C8.2425 31.75 6.9225 31.75 5.5625 31.75 C5.2325 30.76 4.9025 29.77 4.5625 28.75 C3.2425 29.08 1.9225 29.41 0.5625 29.75 C0.2325 27.11 -0.0975 24.47 -0.4375 21.75 C-0.7675 23.4 -1.0975 25.05 -1.4375 26.75 C-2.4275 26.75 -3.4175 26.75 -4.4375 26.75 C-4.4375 23.78 -4.4375 20.81 -4.4375 17.75 C-5.0975 20.72 -5.7575 23.69 -6.4375 26.75 C-8.7475 26.75 -11.0575 26.75 -13.4375 26.75 C-13.09238042 17.6733551 -11.60650819 10.0324435 -6.125 2.625 C-3.4375 0.75 -3.4375 0.75 0 0 Z " fill="#118C7B" transform="translate(171.4375,63.25)"/>
<path d="M0 0 C4.60424321 1.77086277 9.71779654 4.43559308 12 9 C11.67 9.66 11.34 10.32 11 11 C11.99 11.33 12.98 11.66 14 12 C13.01 12.495 13.01 12.495 12 13 C11.59270772 15.32156597 11.25561323 17.6568787 11 20 C10.67 20 10.34 20 10 20 C9.90203125 19.32453125 9.8040625 18.6490625 9.703125 17.953125 C8.62920914 11.04032595 8.62920914 11.04032595 4 6 C4.33 6.99 4.66 7.98 5 9 C5.9068161 22.06163953 5.9068161 22.06163953 2 28 C1.67 28.99 1.34 29.98 1 31 C-2.63 31 -6.26 31 -10 31 C-9.34 30.34 -8.68 29.68 -8 29 C-8.66 28.29875 -9.32 27.5975 -10 26.875 C-13.47288048 21.75188553 -12.610864 14.89554791 -12 9 C-10.9765625 6.5703125 -10.9765625 6.5703125 -10 5 C-13.057952 6.73559438 -15.63379989 8.38472619 -18 11 C-16.75892597 6.03570389 -15.23893588 3.86128172 -11 1 C-7.54455666 -0.72772167 -3.78533358 -0.3580721 0 0 Z " fill="#256010" transform="translate(134,72)"/>
<path d="M0 0 C9.81298067 3.60563411 19.4532495 7.70804165 25.2421875 16.9921875 C26.60537716 20.60393741 26.59789168 24.21103531 26 28 C24 30.5625 24 30.5625 22 32 C21.030625 31.29875 20.06125 30.5975 19.0625 29.875 C12.33780222 25.61561792 4.50926582 23.48317767 -3 21 C-2.68289062 19.824375 -2.36578125 18.64875 -2.0390625 17.4375 C-1.08501471 13.62130885 -0.62081818 9.9330909 -0.375 6 C-0.30023438 4.865625 -0.22546875 3.73125 -0.1484375 2.5625 C-0.09945312 1.716875 -0.05046875 0.87125 0 0 Z " fill="#D61757" transform="translate(147,13)"/>
<path d="M0 0 C1 3 1 3 0.3203125 4.9453125 C-6.46589423 17.32016007 -18.67295309 27.97404594 -31.46484375 33.8125 C-34.26314814 35.12326199 -36.88837182 36.64029928 -39.5625 38.1875 C-44.35655979 40.84403741 -48.60515887 42.11559981 -54 43 C-53.896875 44.0725 -53.79375 45.145 -53.6875 46.25 C-54 50 -54 50 -56.1875 52.3125 C-61.39454717 55.4367283 -65.84660141 56.93560446 -72 56 C-75.5 54.5 -75.5 54.5 -78 52 C-78.51100791 49.1514027 -78.29254094 46.92540935 -78 44 C-65.93786982 39.97928994 -65.93786982 39.97928994 -59.375 39.375 C-50.88083304 38.40145951 -43.55972884 35.39516819 -35.84326172 31.83886719 C-34.29980778 31.13644232 -32.7322458 30.48731811 -31.16015625 29.8515625 C-18.43759675 24.36663409 -7.21974077 11.55158523 0 0 Z " fill="#85807B" transform="translate(172,100)"/>
<path d="M0 0 C0.268125 0.556875 0.53625 1.11375 0.8125 1.6875 C3.24164023 7.08166098 3.24164023 7.08166098 8 10 C7.99476318 11.15298584 7.98952637 12.30597168 7.98413086 13.49389648 C7.96574556 17.85700677 7.95444822 22.2201138 7.94506836 26.58325195 C7.94010348 28.45565368 7.93332935 30.32805167 7.92456055 32.20043945 C7.87933087 42.12170318 7.96714276 51.977296 8.63618469 61.87774658 C9.08980124 68.79057678 9.15159361 75.68666153 9.13037109 82.61254883 C9.12497243 84.69815233 9.13038621 86.78354319 9.13671875 88.86914062 C9.14935855 111.55192435 9.14935855 111.55192435 7 118 C6.34 118 5.68 118 5 118 C3.03388498 113.95520612 2.88668764 111.13114252 3.375 106.6875 C3.54128906 105.08455078 3.54128906 105.08455078 3.7109375 103.44921875 C3.85402344 102.23685547 3.85402344 102.23685547 4 101 C2.01057966 101.78586335 2.01057966 101.78586335 0 103 C-1.29231642 106.04199472 -1.29231642 106.04199472 -2 109 C-6.99363032 107.53507893 -9.67177229 104.61893353 -13.125 100.9375 C-16.97969787 96.64877656 -16.97969787 96.64877656 -22 94 C-19.93899471 99.31522416 -17.4371091 103.44815281 -14 108 C-15.13225208 110.54756717 -16.27311263 112.31327626 -18.125 114.4375 C-20.28718733 117.39248936 -20.54875771 118.4330749 -20 122 C-15.03452244 126.68022672 -8.98019973 128.43892536 -2.40625 129.4375 C1.55637498 130.36382792 4.8427798 132.46893241 8 135 C8 135.33 8 135.66 8 136 C5.69 136 3.38 136 1 136 C1 135.01 1 134.02 1 133 C0.17757813 132.85304687 -0.64484375 132.70609375 -1.4921875 132.5546875 C-9.23851681 130.99826568 -15.67563312 128.851384 -22 124 C-23.45147903 121.09704195 -23.37239025 119.22738221 -23 116 C-21.84765625 114.4140625 -21.84765625 114.4140625 -20.4375 112.875 C-17.74699881 110.38796589 -17.74699881 110.38796589 -18.15234375 108.1328125 C-19.55447083 104.60487984 -21.73292379 101.59263132 -23.8203125 98.4375 C-25 96 -25 96 -24.6796875 93.6875 C-24 92 -24 92 -22.30859375 91.2421875 C-20 91 -20 91 -17.59765625 92.6953125 C-16.76105469 93.49710937 -15.92445312 94.29890625 -15.0625 95.125 C-14.18851563 95.95257813 -13.31453125 96.78015625 -12.4140625 97.6328125 C-11.61742187 98.41398437 -10.82078125 99.19515625 -10 100 C-9.43023437 100.55429688 -8.86046875 101.10859375 -8.2734375 101.6796875 C-7.1680059 102.77219008 -6.08140566 103.88371029 -5 105 C-4.505 105.495 -4.505 105.495 -4 106 C-3.443125 105.030625 -2.88625 104.06125 -2.3125 103.0625 C0 100 0 100 2.75 99.125 C3.4925 99.08375 4.235 99.0425 5 99 C5.73240959 95.05975278 6.1280544 91.33020142 6.1328125 87.32421875 C6.13474609 86.25743896 6.13667969 85.19065918 6.13867188 84.09155273 C6.13416016 82.96821533 6.12964844 81.84487793 6.125 80.6875 C6.12306641 79.52484619 6.12113281 78.36219238 6.11914062 77.16430664 C6.08042502 69.40344123 5.76824352 61.71526286 5.21875 53.9765625 C4.93842466 48.88064829 4.94728566 43.80646635 5.03710938 38.70483398 C5.08839558 34.66949698 4.7042078 30.96523163 4 27 C3.91263858 25.14742392 3.86972368 23.29212727 3.875 21.4375 C3.87242188 20.52871094 3.86984375 19.61992188 3.8671875 18.68359375 C3.99858713 16.02854821 4.41023969 13.58839248 5 11 C4.360625 10.71125 3.72125 10.4225 3.0625 10.125 C1 9 1 9 0 7 C-0.04022391 4.6670134 -0.04320247 2.33293334 0 0 Z M5 107 C6 109 6 109 6 109 Z " fill="#080606" transform="translate(30,46)"/>
<path d="M0 0 C4.73803292 4.73803292 4.38209628 11.44260419 4.59765625 17.73828125 C4.65644203 19.12034004 4.65644203 19.12034004 4.71641541 20.53031921 C4.83996914 23.45744555 4.9520545 26.38485205 5.0625 29.3125 C5.17789808 32.25791014 5.29579913 35.20315713 5.41929626 38.14823914 C5.49560612 39.97763543 5.56698984 41.80724489 5.6330719 43.63703918 C5.40873091 47.64236881 5.40873091 47.64236881 7 51 C7.495 48.03 7.495 48.03 8 45 C8.33 45 8.66 45 9 45 C9.85916096 49.44147569 10.11697565 53.62769824 10.09765625 58.1484375 C10.0962413 58.80582916 10.09482635 59.46322083 10.09336853 60.14053345 C10.08781762 62.21873731 10.07527465 64.29682927 10.0625 66.375 C10.05747864 67.79296718 10.05291685 69.21093607 10.04882812 70.62890625 C10.03786437 74.08597322 10.02063421 77.54297567 10 81 C8.54096742 80.69078116 7.08279278 80.37751201 5.625 80.0625 C4.81289063 79.88847656 4.00078125 79.71445313 3.1640625 79.53515625 C1 79 1 79 -1 78 C-0.9285376 77.06172363 -0.8570752 76.12344727 -0.78344727 75.15673828 C0.23209704 60.43185864 0.11724987 45.70187189 0.06866455 30.95031738 C0.05826703 27.44995744 0.05383245 23.94958982 0.04882812 20.44921875 C0.03823829 13.63279427 0.02126779 6.81639935 0 0 Z " fill="#3C3B3A" transform="translate(38,87)"/>
<path d="M0 0 C1 1 1 1 1.3125 4.6875 C1.25685013 9.12358984 -0.12881485 11.57052885 -3 15 C-7.57101831 19.14248535 -12.53719692 19.41937257 -18.51953125 19.33984375 C-22.77104418 18.757353 -24.26177985 17.29990634 -27 14 C-27.875 10.1875 -27.875 10.1875 -28 7 C-20.31930075 0.63599205 -9.69898017 -0.64659868 0 0 Z " fill="#BB414B" transform="translate(117,115)"/>
<path d="M0 0 C3.9113148 0 6.65987893 0.03321827 9.87890625 2.35546875 C17.71736001 10.5797077 21.07316752 22.26828091 24 33 C19.05 33 14.1 33 9 33 C8.5978125 30.710625 8.5978125 30.710625 8.1875 28.375 C7.15234918 23.21382549 5.59961203 19.09180035 2.375 14.875 C-0.05478974 11.56165036 -0.12155999 8.26607899 -0.0625 4.25 C-0.05347656 3.45078125 -0.04445313 2.6515625 -0.03515625 1.828125 C-0.02355469 1.22484375 -0.01195313 0.6215625 0 0 Z " fill="#F4D2B4" transform="translate(125,149)"/>
<path d="M0 0 C-0.01160156 1.20398438 -0.02320312 2.40796875 -0.03515625 3.6484375 C-0.04453434 5.22395679 -0.05363452 6.79947775 -0.0625 8.375 C-0.07087891 9.1690625 -0.07925781 9.963125 -0.08789062 10.78125 C-0.23040151 15.02392222 -0.23040151 15.02392222 1 19 C1.58007812 18.80664062 2.16015625 18.61328125 2.7578125 18.4140625 C4.3769543 17.87434857 5.99678027 17.33668396 7.6171875 16.80078125 C9.50459845 16.16648741 11.37978962 15.4958461 13.25 14.8125 C15.9893576 14.00314435 18.16244331 13.8330849 21 14 C17.89835058 15.63035418 14.69933652 16.96595895 11.46533203 18.30957031 C-1.32872548 23.54770312 -1.32872548 23.54770312 -11 33 C-13.3125 32.8125 -13.3125 32.8125 -16 32 C-18.72843618 28.58945477 -20 25.36609203 -20 21 C-17.33932756 14.51636136 -7.56956099 0 0 0 Z " fill="#200911" transform="translate(50,23)"/>
<path d="M0 0 C1.75280733 0.42611351 3.50217435 0.86639267 5.25 1.3125 C6.22453125 1.55613281 7.1990625 1.79976562 8.203125 2.05078125 C10.98975665 2.99652356 12.77304368 4.10708713 15 6 C14.67 6.66 14.34 7.32 14 8 C13.01 7.34 12.02 6.68 11 6 C13.475 8.97 13.475 8.97 16 12 C15.67 12.66 15.34 13.32 15 14 C12.525 12.515 12.525 12.515 10 11 C10.66 12.98 11.32 14.96 12 17 C8.7 15.02 5.4 13.04 2 11 C2.33 12.65 2.66 14.3 3 16 C0.69 15.01 -1.62 14.02 -4 13 C-4.33 13.66 -4.66 14.32 -5 15 C-7.13258189 13.42609449 -9.25574593 11.84167605 -11.375 10.25 C-11.97828125 9.8065625 -12.5815625 9.363125 -13.203125 8.90625 C-16.29097778 6.57320568 -18.69556271 4.72199439 -20 1 C-18.1746875 1.4640625 -18.1746875 1.4640625 -16.3125 1.9375 C-11.21571986 3.38473937 -11.21571986 3.38473937 -6 4 C-6 3.34 -6 2.68 -6 2 C-4.02 2 -2.04 2 0 2 C0 1.34 0 0.68 0 0 Z " fill="#565756" transform="translate(139,41)"/>
<path d="M0 0 C1.19126781 3.57380342 0.7349445 5.50883302 0.0625 9.1875 C-0.13214844 10.27417969 -0.32679688 11.36085938 -0.52734375 12.48046875 C-0.68332031 13.31191406 -0.83929688 14.14335938 -1 15 C-0.01 15 0.98 15 2 15 C2.33 12.03 2.66 9.06 3 6 C3.33 6 3.66 6 4 6 C4 11.94 4 17.88 4 24 C4.66 24 5.32 24 6 24 C6.66 25.32 7.32 26.64 8 28 C7.01 28 6.02 28 5 28 C4.67 27.34 4.34 26.68 4 26 C2.02 28.97 0.04 31.94 -2 35 C-5.03606467 33.52299557 -6.8182731 32.25065779 -8.8125 29.5 C-10.46373311 24.63320767 -10.2445712 20.09070422 -10 15 C-7.69 15 -5.38 15 -3 15 C-2.95101562 14.33613281 -2.90203125 13.67226562 -2.8515625 12.98828125 C-2.10896309 4.21792619 -2.10896309 4.21792619 0 0 Z " fill="#02594A" transform="translate(168,75)"/>
<path d="M0 0 C1.32 0.66 2.64 1.32 4 2 C4 2.66 4 3.32 4 4 C5.32 4.33 6.64 4.66 8 5 C8.07006227 8.01267767 8.05642672 10.73040567 7.4375 13.6875 C6.77798502 16.1457356 6.77798502 16.1457356 8 19 C8.99 18.67 9.98 18.34 11 18 C12.21869929 15.49552484 12.21869929 15.49552484 13 13 C14.32 13.33 15.64 13.66 17 14 C17.32641542 19.54906215 17.47528272 23.3662897 14 28 C14 28.33 14 28.66 14 29 C10.37 29 6.74 29 3 29 C3.66 28.34 4.32 27.68 5 27 C4.34 26.29875 3.68 25.5975 3 24.875 C-0.47288048 19.75188553 0.389136 12.89554791 1 7 C2.0234375 4.5703125 2.0234375 4.5703125 3 3 C-0.057952 4.73559438 -2.63379989 6.38472619 -5 9 C-3.90931332 5.22454612 -3.0916909 2.52956528 0 0 Z " fill="#547A46" transform="translate(121,74)"/>
<path d="M0 0 C1.216875 0.4125 2.43375 0.825 3.6875 1.25 C4.52023438 1.52328125 5.35296875 1.7965625 6.2109375 2.078125 C8.07661491 2.69479148 9.93613335 3.33040001 11.7890625 3.984375 C21.66770126 7.30278078 31.69730658 8.64411213 42 10 C40.68 10.33 39.36 10.66 38 11 C37.67 12.65 37.34 14.3 37 16 C36.505 15.01 36.505 15.01 36 14 C23.82200686 15.00968133 17.86263203 19.89250322 9.640625 28.421875 C7.29519823 30.67795218 4.77353251 32.30882164 2 34 C1.34 33.67 0.68 33.34 0 33 C-1.49002217 11.2616408 -1.49002217 11.2616408 -1 1 C-0.67 0.67 -0.34 0.34 0 0 Z M1 2 C0.70967173 11.56470344 1.53948097 20.57182803 3 30 C6.77659172 27.88915498 9.82973971 25.4999443 13 22.5625 C22.64388047 13.65697912 22.64388047 13.65697912 28.3125 12.75 C29.19550781 12.60046875 30.07851562 12.4509375 30.98828125 12.296875 C31.98408203 12.14992187 31.98408203 12.14992187 33 12 C33 11.67 33 11.34 33 11 C31.82824219 10.75765625 30.65648437 10.5153125 29.44921875 10.265625 C20.69126039 8.41256747 12.32759766 6.35307807 4 3 C3.01 2.67 2.02 2.34 1 2 Z " fill="#1F1813" transform="translate(56,133)"/>
<path d="M0 0 C6.90183191 0.89247826 12.01337849 7.8321573 16 13 C16.99 13.66 17.98 14.32 19 15 C19.556875 14.030625 20.11375 13.06125 20.6875 12.0625 C23 9 23 9 25.625 8 C26.40875 8 27.1925 8 28 8 C28.66 8.66 29.32 9.32 30 10 C29.34 10 28.68 10 28 10 C28.04125 11.2375 28.0825 12.475 28.125 13.75 C28.24851563 17.455469 27.80568106 18.38863788 26 22 C26.33 18.04 26.66 14.08 27 10 C22.77508516 11.55882089 22.77508516 11.55882089 21.75 15.125 C21.5025 16.07375 21.255 17.0225 21 18 C16.00636968 16.53507893 13.32822771 13.61893353 9.875 9.9375 C6.02030213 5.64877656 6.02030213 5.64877656 1 3 C3.06100529 8.31522416 5.5628909 12.44815281 9 17 C7.86774792 19.54756717 6.72688737 21.31327626 4.875 23.4375 C2.71281267 26.39248936 2.45124229 27.4330749 3 31 C7.96547756 35.68022672 14.01980027 37.43892536 20.59375 38.4375 C24.55637498 39.36382792 27.8427798 41.46893241 31 44 C31 44.33 31 44.66 31 45 C28.69 45 26.38 45 24 45 C24 44.01 24 43.02 24 42 C23.17757813 41.85304687 22.35515625 41.70609375 21.5078125 41.5546875 C13.76148319 39.99826568 7.32436688 37.851384 1 33 C-0.45147903 30.09704195 -0.37239025 28.22738221 0 25 C1.15234375 23.4140625 1.15234375 23.4140625 2.5625 21.875 C5.25300119 19.38796589 5.25300119 19.38796589 4.84765625 17.1328125 C3.44552917 13.60487984 1.26707621 10.59263132 -0.8203125 7.4375 C-2 5 -2 5 -1.7421875 2.75 C-1 1 -1 1 0 0 Z " fill="#27211B" transform="translate(7,137)"/>
<path d="M0 0 C0.53625 0.350625 1.0725 0.70125 1.625 1.0625 C4.73274763 2.28924249 6.79431703 1.72856431 10 1 C9.67 1.99 9.34 2.98 9 4 C8.93334624 5.39439664 8.91461801 6.79169875 8.9375 8.1875 C8.958125 9.445625 8.97875 10.70375 9 12 C11.39719432 12.67958603 11.39719432 12.67958603 14 13 C16.35953094 10.64046906 16.49141413 9.22104383 17 6 C17.33 6.66 17.66 7.32 18 8 C18.66 8.33 19.32 8.66 20 9 C19.34 9 18.68 9 18 9 C17.7834375 10.11375 17.7834375 10.11375 17.5625 11.25 C17.09800774 13.52085106 16.57094564 15.75460033 16 18 C16.7940625 18.49371094 17.588125 18.98742187 18.40625 19.49609375 C19.4271875 20.13675781 20.448125 20.77742188 21.5 21.4375 C22.5209375 22.07558594 23.541875 22.71367187 24.59375 23.37109375 C25.3878125 23.90863281 26.181875 24.44617188 27 25 C27 25.33 27 25.66 27 26 C22.40428975 26.72563846 20.00052045 25.56224673 16.25 23.125 C12.74812921 20.86742213 10.06008113 19.60267904 5.9375 19 C0.30944205 18.16158883 -3.55273466 15.4160154 -8 12 C-4.61682513 11.02408417 -2.4342662 11.14143345 1 12 C0.34 10.35 -0.32 8.7 -1 7 C1.475 7.99 1.475 7.99 4 9 C2.94124926 5.59687262 1.99097846 2.98646769 0 0 Z " fill="#D99D76" transform="translate(17,156)"/>
<path d="M0 0 C1.74794789 5.24384368 2.52753165 9.46091763 2 15 C0.25 18.5 0.25 18.5 -2 21 C-3.32 21 -4.64 21 -6 21 C-6.33 20.01 -6.66 19.02 -7 18 C-8.32 18.33 -9.64 18.66 -11 19 C-11.44418867 11.48580833 -11.63833132 6.13896792 -7 0 C-4.3333581 -1.33332095 -2.83319697 -0.67102033 0 0 Z " fill="#EA5A8A" transform="translate(183,74)"/>
<path d="M0 0 C6.15234375 -0.09765625 6.15234375 -0.09765625 8 0 C8.33 0.33 8.66 0.66 9 1 C13.78252409 1.19130096 18.28211812 0.77026643 23 0 C23.33 1.65 23.66 3.3 24 5 C18.87025563 9.39692375 14.93126383 11.5320569 8.00390625 11.30859375 C4.46769273 10.76403065 2.52985187 9.46660558 0 7 C-0.375 3.25 -0.375 3.25 0 0 Z " fill="#E4A277" transform="translate(94,145)"/>
<path d="M0 0 C0.99386719 0.00902344 1.98773438 0.01804687 3.01171875 0.02734375 C4.15060547 0.04474609 4.15060547 0.04474609 5.3125 0.0625 C6.3125 3.0625 6.3125 3.0625 5.5546875 5.10546875 C3.97143718 7.58890996 2.67244138 9.27491699 0.3125 11.0625 C-5.38946143 12.11635089 -10.78417603 12.33138265 -15.6875 9.0625 C-15.5625 7.3125 -15.5625 7.3125 -14.6875 5.0625 C-9.70496197 1.27143846 -6.19415404 -0.0728724 0 0 Z " fill="#F3616E" transform="translate(109.6875,121.9375)"/>
<path d="M0 0 C0.66 0 1.32 0 2 0 C2 1.98 2 3.96 2 6 C2.66 6 3.32 6 4 6 C4.72916032 9.04258715 5.23123937 11.86775765 5 15 C3.25834025 17.31486423 1.46781965 18.37123903 -1 20 C-1.33 20.66 -1.66 21.32 -2 22 C-4.4375 21.625 -4.4375 21.625 -7 21 C-8.6440772 17.7118456 -8.65491541 14.53894659 -8 11 C-5.87559932 6.88846761 -3.27070171 3.27070171 0 0 Z " fill="#D31756" transform="translate(40,33)"/>
<path d="M0 0 C0 0.99 0 1.98 0 3 C0.66 3.33 1.32 3.66 2 4 C2.33 4.99 2.66 5.98 3 7 C5.31 5.35 7.62 3.7 10 2 C10 3.32 10 4.64 10 6 C11.98 5.01 13.96 4.02 16 3 C14.43602788 6.79570763 12.04601893 9.15699048 9.125 12 C8.26132812 12.845625 7.39765625 13.69125 6.5078125 14.5625 C5.68023437 15.366875 4.85265625 16.17125 4 17 C2.66442011 18.33108299 1.33023617 19.66357668 0 21 C0 19.02 0 17.04 0 15 C-0.99 15.99 -1.98 16.98 -3 18 C-2.835 16.88625 -2.67 15.7725 -2.5 14.625 C-1.9544542 11.27967967 -1.9544542 11.27967967 -2 9 C-3.32 10.65 -4.64 12.3 -6 14 C-5.41903453 8.07415223 -4.23938937 4.23938937 0 0 Z " fill="#575757" transform="translate(46,55)"/>
<path d="M0 0 C0.33 0.66 0.66 1.32 1 2 C1.87213135 1.98952637 2.7442627 1.97905273 3.64282227 1.96826172 C6.90619599 1.93399488 10.169376 1.90901171 13.43286133 1.89013672 C14.84011876 1.88013443 16.2473557 1.86652822 17.65454102 1.84912109 C19.68771448 1.82461634 21.72061106 1.81345917 23.75390625 1.8046875 C24.97408447 1.79421387 26.1942627 1.78374023 27.45141602 1.77294922 C31.30506028 2.01951882 34.34213 2.81421825 38 4 C37.67 4.99 37.34 5.98 37 7 C21.82 7 6.64 7 -9 7 C-8.01 6.34 -7.02 5.68 -6 5 C-3.96864317 3.36898357 -1.99068127 1.68101974 0 0 Z " fill="#910134" transform="translate(99,25)"/>
<path d="M0 0 C0.81542431 2.08219049 1.62723189 4.16579761 2.4375 6.25 C3.11619141 7.99023438 3.11619141 7.99023438 3.80859375 9.765625 C4.70150633 12.18966308 5.45794365 14.48286475 6 17 C5.34 17 4.68 17 4 17 C2.4921875 15.03125 2.4921875 15.03125 0.875 12.5 C0.33617188 11.6646875 -0.20265625 10.829375 -0.7578125 9.96875 C-1.16773437 9.3190625 -1.57765625 8.669375 -2 8 C-10.68743399 11.97853725 -18.86430847 20.58311195 -23.60546875 28.7734375 C-24.06566406 29.50820312 -24.52585938 30.24296875 -25 31 C-25.66 31 -26.32 31 -27 31 C-23.58867093 21.70706909 -11.33908733 0 0 0 Z " fill="#DC9E75" transform="translate(76,55)"/>
<path d="M0 0 C5 0 5 0 7 1 C7.28875 1.804375 7.5775 2.60875 7.875 3.4375 C8.77709461 6.02569844 8.77709461 6.02569844 10.625 7.3125 C16.94426801 9.14176179 21.68329341 8.2308535 27.31640625 5.15625 C29.37352233 3.74347422 30.56028828 2.01559641 32 0 C33.32 0 34.64 0 36 0 C38.77042109 2.77042109 38.39796106 4.76533805 38.625 8.625 C38.69976562 9.81351563 38.77453125 11.00203125 38.8515625 12.2265625 C38.90054688 13.14179688 38.94953125 14.05703125 39 15 C36.70986347 11.5647952 36.82157027 10.014669 37 6 C36.45214844 6.28875 35.90429688 6.5775 35.33984375 6.875 C24.17489389 12.10346432 12.41364234 10.98646968 1 7 C0.34 8.32 -0.32 9.64 -1 11 C-0.67 7.37 -0.34 3.74 0 0 Z " fill="#692031" transform="translate(87,147)"/>
<path d="M0 0 C0.99 0 1.98 0 3 0 C3.08706892 3.27066566 3.14041241 6.54103365 3.1875 9.8125 C3.22520508 11.2056543 3.22520508 11.2056543 3.26367188 12.62695312 C3.27817383 13.9659668 3.27817383 13.9659668 3.29296875 15.33203125 C3.31653442 16.56530151 3.31653442 16.56530151 3.34057617 17.82348633 C3 20 3 20 1.64575195 21.80737305 C0 23 0 23 -2.625 22.75 C-5 22 -5 22 -6 21 C-6.35658232 15.56211964 -6.43958525 13.26508571 -3 9 C-2.63858045 6.67085177 -2.30300475 4.33746522 -2 2 C-1.34 1.34 -0.68 0.68 0 0 Z " fill="#F6D4B6" transform="translate(31,147)"/>
<path d="M0 0 C0.33 0 0.66 0 1 0 C1.37961336 7.33919156 1.37961336 7.33919156 -0.6875 10.9375 C-2.43865078 15.02351848 -1.35263418 16.82010983 0.2265625 20.80859375 C1.21160438 23.59954573 1.22555304 26.06781048 1 29 C1.58394531 29.21527344 2.16789063 29.43054688 2.76953125 29.65234375 C7.93194955 32.77149316 10.99373719 39.83962685 12.77734375 45.44140625 C13.70182954 51.24800801 12.37142465 56.67385674 10 62 C7.8125 64.625 7.8125 64.625 6 66 C6 62.79814909 6.44275149 61.97820666 8 59.3125 C10.54830762 54.35191542 10.80245652 50.39551848 9.52734375 45 C7.77999701 39.64286508 4.74555808 35.18375708 1 31 C0.34 30.67 -0.32 30.34 -1 30 C-1.53501531 27.99810205 -1.97805064 25.9712817 -2.375 23.9375 C-3.57313546 18.35848974 -5.18825534 13.94479232 -8 9 C-6.68 9.33 -5.36 9.66 -4 10 C-1.80902348 6.6659053 -0.56545837 3.95820859 0 0 Z " fill="#0B0306" transform="translate(174,34)"/>
<path d="M0 0 C0.53625 0.33 1.0725 0.66 1.625 1 C4.5391061 2.22699204 6.86867708 2.14233286 10 2 C10.33 1.34 10.66 0.68 11 0 C11.99 0.33 12.98 0.66 14 1 C14 1.66 14 2.32 14 3 C7.05837083 5.76488619 0.11979299 7.77995481 -7.13549805 9.48803711 C-12.02626113 10.67070935 -16.52182337 12.25192855 -21.08203125 14.36328125 C-23 15 -23 15 -26 14 C-26 13.34 -26 12.68 -26 12 C-17.28527534 7.49493047 -8.50246328 5.13417933 1 3 C0.67 2.01 0.34 1.02 0 0 Z " fill="#940136" transform="translate(76,28)"/>
<path d="M0 0 C5.36703866 0.68123647 9.32481559 3.78825184 13.27734375 7.2890625 C13.60734375 7.9490625 13.93734375 8.6090625 14.27734375 9.2890625 C13.94734375 9.9490625 13.61734375 10.6090625 13.27734375 11.2890625 C14.26734375 11.6190625 15.25734375 11.9490625 16.27734375 12.2890625 C15.28734375 12.7840625 15.28734375 12.7840625 14.27734375 13.2890625 C13.87005147 15.61062847 13.53295698 17.9459412 13.27734375 20.2890625 C12.94734375 20.2890625 12.61734375 20.2890625 12.27734375 20.2890625 C12.179375 19.61359375 12.08140625 18.938125 11.98046875 18.2421875 C10.90655289 11.32938845 10.90655289 11.32938845 6.27734375 6.2890625 C6.27734375 7.9390625 6.27734375 9.5890625 6.27734375 11.2890625 C5.43171875 10.4640625 4.58609375 9.6390625 3.71484375 8.7890625 C0.9528124 6.44891661 0.27686184 6.28902364 -3.59765625 5.9765625 C-4.62890625 6.0796875 -5.66015625 6.1828125 -6.72265625 6.2890625 C-6.72265625 5.6290625 -6.72265625 4.9690625 -6.72265625 4.2890625 C-7.71265625 3.9590625 -8.70265625 3.6290625 -9.72265625 3.2890625 C-6.73006944 -0.30204167 -4.46340344 -0.15914891 0 0 Z " fill="#171611" transform="translate(131.72265625,71.7109375)"/>
<path d="M0 0 C2.1237783 0.01613182 4.24566225 0.00002141 6.36938477 -0.01904297 C15.46984755 -0.03195273 25.26188574 0.24263721 33.55883789 4.39111328 C33.88883789 3.40111328 34.21883789 2.41111328 34.55883789 1.39111328 C34.77016991 8.43551407 34.63849151 14.63223903 32.55883789 21.39111328 C32.22883789 21.39111328 31.89883789 21.39111328 31.55883789 21.39111328 C32.12905723 16.04075738 32.7661815 10.71323476 33.55883789 5.39111328 C31.70485091 5.07754898 29.85063845 4.76531779 27.99633789 4.45361328 C26.96379883 4.27958984 25.93125977 4.10556641 24.86743164 3.92626953 C23.22967773 3.66136719 23.22967773 3.66136719 21.55883789 3.39111328 C20.55336914 3.20677734 19.54790039 3.02244141 18.51196289 2.83251953 C12.63278871 2.17605048 6.78198258 2.24723948 0.87133789 2.26611328 C-0.35133789 2.26224609 -1.57401367 2.25837891 -2.83374023 2.25439453 C-4.00743164 2.25568359 -5.18112305 2.25697266 -6.39038086 2.25830078 C-7.98885864 2.25999268 -7.98885864 2.25999268 -9.61962891 2.26171875 C-12.09097748 2.37505394 -14.12268969 2.54222774 -16.44116211 3.39111328 C-16.77116211 4.05111328 -17.10116211 4.71111328 -17.44116211 5.39111328 C-18.10116211 5.39111328 -18.76116211 5.39111328 -19.44116211 5.39111328 C-19.44116211 4.73111328 -19.44116211 4.07111328 -19.44116211 3.39111328 C-20.63354492 3.76365234 -21.82592773 4.13619141 -23.05444336 4.52001953 C-24.62071029 4.99834057 -26.18712429 5.47618017 -27.75366211 5.95361328 C-28.5393457 6.20046875 -29.3250293 6.44732422 -30.13452148 6.70166016 C-30.8918457 6.93046875 -31.64916992 7.15927734 -32.42944336 7.39501953 C-33.12593994 7.609729 -33.82243652 7.82443848 -34.54003906 8.0456543 C-36.44116211 8.39111328 -36.44116211 8.39111328 -39.44116211 7.39111328 C-26.46050878 2.17236082 -13.91193536 -0.12526041 0 0 Z " fill="#531429" transform="translate(105.441162109375,9.60888671875)"/>
<path d="M0 0 C1.32 0.66 2.64 1.32 4 2 C4 2.66 4 3.32 4 4 C5.32 4.33 6.64 4.66 8 5 C8.08934313 8.84175438 7.83276148 12.25257335 7 16 C7 16.66 7 17.32 7 18 C6.34 18 5.68 18 5 18 C4.01 20.475 4.01 20.475 3 23 C1 21 1 21 0.734375 17.8828125 C0.73953125 16.64273438 0.7446875 15.40265625 0.75 14.125 C0.74226563 12.27261719 0.74226563 12.27261719 0.734375 10.3828125 C0.97816174 7.27811666 1.36035184 5.58960304 3 3 C-0.057952 4.73559438 -2.63379989 6.38472619 -5 9 C-3.90931332 5.22454612 -3.0916909 2.52956528 0 0 Z " fill="#325C24" transform="translate(121,74)"/>
<path d="M0 0 C0.33 0 0.66 0 1 0 C1.33 3.96 1.66 7.92 2 12 C3.65 11.67 5.3 11.34 7 11 C5.24251274 17.67845161 1.83564366 25.10957089 -4 29 C-4 28.34 -4 27.68 -4 27 C-4.66 26.34 -5.32 25.68 -6 25 C-3.375 20.125 -3.375 20.125 0 19 C-0.33 18.01 -0.66 17.02 -1 16 C-1.66 16 -2.32 16 -3 16 C-3.33 13.36 -3.66 10.72 -4 8 C-3.67 8.66 -3.34 9.32 -3 10 C-2.01 10 -1.02 10 0 10 C0 6.7 0 3.4 0 0 Z " fill="#1A1314" transform="translate(175,83)"/>
<path d="M0 0 C0.66 0.66 1.32 1.32 2 2 C1.21238281 2.09796875 0.42476562 2.1959375 -0.38671875 2.296875 C-16.69358419 4.53545061 -31.8672347 9.43154936 -44 21 C-44 18 -44 18 -42.125 15.6875 C-31.37200579 5.65739616 -14.73319777 -1.03390862 0 0 Z " fill="#1A050B" transform="translate(94,3)"/>
<path d="M0 0 C6.72045875 2.19037174 13.36724003 4.55765661 20 7 C20 7.33 20 7.66 20 8 C13.18012971 7.56699236 8.08356979 6.09212176 2 3 C1.87059544 10.59173417 2.11862008 18.0903228 2.73217773 25.65429688 C2.96663942 28.80958163 3.01307403 30.96077792 2 34 C1.34 33.67 0.68 33.34 0 33 C-1.49002217 11.2616408 -1.49002217 11.2616408 -1 1 C-0.67 0.67 -0.34 0.34 0 0 Z " fill="#090807" transform="translate(56,133)"/>
<path d="M0 0 C0.33 0.99 0.66 1.98 1 3 C0.236875 3.20625 -0.52625 3.4125 -1.3125 3.625 C-4.82229103 5.42070704 -5.52599781 7.43136312 -7 11 C-7.66 11 -8.32 11 -9 11 C-9.33 13.97 -9.66 16.94 -10 20 C-10.99 20 -11.98 20 -13 20 C-13.443235 13.01904877 -12.63563223 8.04689348 -9 2 C-5.9798093 -1.31246722 -4.20512954 -1.28490069 0 0 Z " fill="#63CDBA" transform="translate(180,70)"/>
<path d="M0 0 C5 2 5 2 6 3 C6.12601135 4.7465759 6.17579494 6.4989234 6.1875 8.25 C6.20167969 9.20390625 6.21585938 10.1578125 6.23046875 11.140625 C5.9897641 14.12699459 5.249438 16.29370741 4 19 C2.35 19 0.7 19 -1 19 C-0.67 12.73 -0.34 6.46 0 0 Z " fill="#3DB79E" transform="translate(140,11)"/>
<path d="M0 0 C3.35702403 4.27257604 4.07023188 6.42139127 5 12 C0.71 12 -3.58 12 -8 12 C-4.34782609 0 -4.34782609 0 0 0 Z " fill="#F97596" transform="translate(107,170)"/>
<path d="M0 0 C1.19126781 3.57380342 0.7349445 5.50883302 0.0625 9.1875 C-0.13214844 10.27417969 -0.32679688 11.36085938 -0.52734375 12.48046875 C-0.68332031 13.31191406 -0.83929688 14.14335938 -1 15 C-0.01 15 0.98 15 2 15 C2.33 12.03 2.66 9.06 3 6 C3.33 6 3.66 6 4 6 C4 11.94 4 17.88 4 24 C4.66 24 5.32 24 6 24 C6.66 25.32 7.32 26.64 8 28 C7.01 28 6.02 28 5 28 C4.67 27.34 4.34 26.68 4 26 C3.34 26.66 2.68 27.32 2 28 C-2.02823739 23.16390182 -3.04738119 17.75495924 -2.96875 11.5234375 C-2.5810624 7.38348772 -1.82766119 3.77716646 0 0 Z " fill="#2C6F5A" transform="translate(168,75)"/>
<path d="M0 0 C9.73271806 3.5761428 16.69596265 7.42668938 24 15 C23.67 15.66 23.34 16.32 23 17 C22.154375 16.45730469 21.30875 15.91460937 20.4375 15.35546875 C14.47951679 11.58087859 8.7750382 8.12550218 2 6 C1.34 6.66 0.68 7.32 0 8 C0 5.36 0 2.72 0 0 Z " fill="#8F1F43" transform="translate(147,13)"/>
<path d="M0 0 C0 4.25865835 -1.95281462 5.74254218 -4.7421875 8.80859375 C-12.60103513 16.4362988 -21.8979579 23.07482983 -33 24 C-31.76794414 21.53588827 -30.89061448 21.28674893 -28.4375 20.125 C-27.47650391 19.66480469 -27.47650391 19.66480469 -26.49609375 19.1953125 C-25.07011296 18.51244846 -23.63970328 17.83829586 -22.19726562 17.19091797 C-16.97973014 14.75294734 -12.90217549 11.70488917 -8.625 7.875 C-8.01011719 7.33746094 -7.39523438 6.79992187 -6.76171875 6.24609375 C-4.44618079 4.21429786 -2.17883978 2.17883978 0 0 Z " fill="#1D1C1C" transform="translate(164,115)"/>
<path d="M0 0 C0.33 0.99 0.66 1.98 1 3 C2.32 3 3.64 3 5 3 C5 4.65 5 6.3 5 8 C4.67 7.01 4.34 6.02 4 5 C2.4840625 5.495 2.4840625 5.495 0.9375 6 C-2.76343438 7.06279378 -6.14200649 7.23147961 -10 7 C-10.33 6.67 -10.66 6.34 -11 6 C-12.34747084 5.76924918 -13.70377565 5.58846937 -15.0625 5.4375 C-16.361875 5.293125 -17.66125 5.14875 -19 5 C-12.72651097 1.60186011 -7.16565804 -0.44785363 0 0 Z " fill="#5D4F3B" transform="translate(113,140)"/>
<path d="M0 0 C7.36595745 2.73191489 7.36595745 2.73191489 9 6 C8.34 5.835 7.68 5.67 7 5.5 C-0.32534596 4.27910901 -5.30245646 5.13386718 -12 8 C-12.99 8.33 -13.98 8.66 -15 9 C-14.79570164 5.3226295 -14.22067989 4.19915015 -11.4375 1.6875 C-7.44426256 -0.27281656 -4.32425786 -0.82136741 0 0 Z " fill="#1C1A16" transform="translate(71,96)"/>
<path d="M0 0 C5.24897019 5.70306131 8.09254559 12.22958136 10.875 19.375 C11.2771875 20.37144531 11.679375 21.36789063 12.09375 22.39453125 C15 29.67992666 15 29.67992666 15 32 C14.34 32 13.68 32 13 32 C12.27083333 30.25 11.54166667 28.5 10.8125 26.75 C10.35359375 25.65816406 9.8946875 24.56632812 9.421875 23.44140625 C8.50873412 21.23130428 7.62097194 19.0104489 6.765625 16.77734375 C3.38449714 7.85318525 3.38449714 7.85318525 -3 1 C-5.97407173 -0.07749156 -8.86021527 -0.65811233 -12 -1 C-12.33 -0.01 -12.66 0.98 -13 2 C-13 0.68 -13 -0.64 -13 -2 C-7.55354579 -3.19821993 -4.61996072 -3.24380221 0 0 Z " fill="#272019" transform="translate(136,150)"/>
<path d="M0 0 C3.19100629 1.24117272 6.3770925 2.49453541 9.5625 3.75 C10.45775391 4.09804688 11.35300781 4.44609375 12.27539062 4.8046875 C17.45839066 6.8551051 22.23825059 9.09983987 27 12 C26.01 12.99 25.02 13.98 24 15 C23.030625 14.29875 22.06125 13.5975 21.0625 12.875 C14.33780222 8.61561792 6.50926582 6.48317767 -1 4 C-0.67 2.68 -0.34 1.36 0 0 Z " fill="#8F0133" transform="translate(145,30)"/>
<path d="M0 0 C2.206875 1.258125 4.41375 2.51625 6.6875 3.8125 C7.37287842 4.20284424 8.05825684 4.59318848 8.7644043 4.99536133 C10.51196305 5.99284487 12.25636724 6.99567148 14 8 C14.97582031 8.56074219 15.95164062 9.12148438 16.95703125 9.69921875 C17.63121094 10.12847656 18.30539063 10.55773438 19 11 C19 11.33 19 11.66 19 12 C11.7943534 12.51932588 7.24804113 9.3322886 1 6 C1 11.94 1 17.88 1 24 C0.67 24 0.34 24 0 24 C0 16.08 0 8.16 0 0 Z " fill="#C28C67" transform="translate(109,51)"/>
<path d="M0 0 C1.32 1.32 2.64 2.64 4 4 C-2.34038858 11.62828001 -8.95250306 18.65720147 -18 23 C-18.66 22.67 -19.32 22.34 -20 22 C-19.35933594 21.5153125 -18.71867188 21.030625 -18.05859375 20.53125 C-10.54438183 14.70801572 -3.77789944 8.88917516 0 0 Z " fill="#E1A279" transform="translate(154,110)"/>
<path d="M0 0 C0.99 0.66 1.98 1.32 3 2 C2 5 2 5 -0.0625 6.1875 C-3.85475122 7.23642055 -7.07062002 7.13319932 -11 7 C-11.33 5.68 -11.66 4.36 -12 3 C-8.22438081 -0.77561919 -5.06310909 -0.40183405 0 0 Z " fill="#FEA788" transform="translate(145,106)"/>
<path d="M0 0 C3.37462715 0.54723683 5.08235 1.0549 8 3 C7.34 3 6.68 3 6 3 C6.02320313 3.92941406 6.04640625 4.85882813 6.0703125 5.81640625 C6.24956063 18.09490334 6.24956063 18.09490334 4 24 C9.68486274 26.5119161 15.46744998 28.68229094 21.3046875 30.81640625 C24 32 24 32 25 34 C23.845 33.608125 22.69 33.21625 21.5 32.8125 C14.36863498 30.43156272 7.17997354 28.22887522 0 26 C0.66 25.67 1.32 25.34 2 25 C4.41688268 18.58481758 4.22696361 11.74586274 4 5 C2.68 4.34 1.36 3.68 0 3 C0 2.01 0 1.02 0 0 Z " fill="#1E1519" transform="translate(141,9)"/>
<path d="M0 0 C2.97256302 2.84332115 3.95123371 4.12220674 4.1875 8.375 C4.01703404 11.67067523 3.73844294 13.2836829 2 16 C-2.85436893 11.87378641 -2.85436893 11.87378641 -3.5 8 C-2.95183265 4.71099593 -1.91096302 2.70719761 0 0 Z " fill="#EBC4ED" transform="translate(87,14)"/>
<path d="M0 0 C1 3 1 3 0.3203125 4.9453125 C-3.77850403 12.419625 -9.66834562 19.47206621 -17 24 C-17.99 23.67 -18.98 23.34 -20 23 C-19.05898437 22.09378906 -18.11796875 21.18757813 -17.1484375 20.25390625 C-7.55576269 10.96131197 -7.55576269 10.96131197 0 0 Z " fill="#878685" transform="translate(172,100)"/>
<path d="M0 0 C10.78830386 -1.86720644 20.32023878 4.20360608 28.9921875 10 C31 12 31 12 31.26953125 14.140625 C30.84635417 16.09375 30.42317708 18.046875 30 20 C28.68 20 27.36 20 26 20 C26.99 19.67 27.98 19.34 29 19 C28.70445796 16.04457962 28.48210175 14.51400877 27 12 C23.56160377 9.51898404 19.82899867 7.79760317 16 6 C14.60393428 5.22958763 13.20807039 4.45880928 11.8125 3.6875 C7.90872764 1.73965499 4.33114354 1.3093674 0 1 C0 0.67 0 0.34 0 0 Z " fill="#C89A78" transform="translate(121,64)"/>
<path d="M0 0 C-0.25104631 5.14644943 -2.00548561 7.8994335 -5.3671875 11.5859375 C-7.47787797 13.41385605 -9.22462868 13.91837143 -12 14 C-10.65626597 8.49069046 -7.96769813 4.91378919 -4 1 C-2 0 -2 0 0 0 Z " fill="#CD96D9" transform="translate(102,17)"/>
<path d="M0 0 C0 3.3 0 6.6 0 10 C-2.97 10 -5.94 10 -9 10 C-9 8.02 -9 6.04 -9 4 C-2.25 0 -2.25 0 0 0 Z " fill="#F77495" transform="translate(122,172)"/>
<path d="M0 0 C-0.13874615 3.77112931 -0.28721093 7.54181445 -0.4375 11.3125 C-0.47681641 12.38435547 -0.51613281 13.45621094 -0.55664062 14.56054688 C-0.59853516 15.58857422 -0.64042969 16.61660156 -0.68359375 17.67578125 C-0.72025146 18.62364502 -0.75690918 19.57150879 -0.79467773 20.5480957 C-1 23 -1 23 -2 26 C-2.66 26 -3.32 26 -4 26 C-5.4783226 23.04335481 -5.06032783 20.25770263 -5 17 C-4.34 17 -3.68 17 -3 17 C-3.33 16.34 -3.66 15.68 -4 15 C-4.125 11.9375 -4.125 11.9375 -4 9 C-3.67 8.67 -3.34 8.34 -3 8 C-2.95907063 5.66702567 -2.95758277 3.33294775 -3 1 C-1 0 -1 0 0 0 Z " fill="#0F0C0B" transform="translate(39,138)"/>
<path d="M0 0 C1 1 1 1 1.09765625 2.84765625 C1.06510417 4.8984375 1.03255208 6.94921875 1 9 C0.67 9 0.34 9 0 9 C0 6.69 0 4.38 0 2 C-11.37360494 2.3407259 -11.37360494 2.3407259 -22 6 C-24.31654662 8.82329119 -25.33841218 11.42742579 -26 15 C-28.15827162 11.76259258 -28.73320331 10.75766697 -28 7 C-21.07027669 0.26826879 -9.21031501 -0.614021 0 0 Z " fill="#89524F" transform="translate(117,115)"/>
<path d="M0 0 C0.7115625 1.0828125 0.7115625 1.0828125 1.4375 2.1875 C6.79788492 8.0708493 12.87425696 10.16371043 20.55859375 11.40234375 C24.52711084 12.37383673 27.82772225 14.45686114 31 17 C31 17.33 31 17.66 31 18 C28.69 18 26.38 18 24 18 C24 17.01 24 16.02 24 15 C23.17757813 14.85304687 22.35515625 14.70609375 21.5078125 14.5546875 C13.94718808 13.03557821 6.8937378 11.22912482 1 6 C-0.125 2.625 -0.125 2.625 0 0 Z " fill="#201913" transform="translate(7,164)"/>
<path d="M0 0 C6.75 2.75 6.75 2.75 9 5 C9.125 7.625 9.125 7.625 9 10 C6.03 10 3.06 10 0 10 C0 6.7 0 3.4 0 0 Z " fill="#F57394" transform="translate(89,172)"/>
<path d="M0 0 C0 4.95 0 9.9 0 15 C-1.32 15.33 -2.64 15.66 -4 16 C-4.81788791 13.10441295 -5.18892672 10.44535913 -5.25 7.4375 C-5.27578125 6.67308594 -5.3015625 5.90867187 -5.328125 5.12109375 C-4.83040029 1.903659 -3.3533739 0 0 0 Z " fill="#39AE95" transform="translate(48,27)"/>
<path d="M0 0 C3.516266 0.07032532 6.09462773 0.20068001 8.80078125 2.58984375 C13 7.49060263 13 7.49060263 13 9 C8.6057696 9.4308069 6.67140255 9.52544547 3.125 6.75 C1.23888646 4.30914718 0.33405533 3.00649796 0 0 Z " fill="#E9C4EA" transform="translate(74,22)"/>
<path d="M0 0 C1.32 0 2.64 0 4 0 C6.77042109 2.77042109 6.39796106 4.76533805 6.625 8.625 C6.69976562 9.81351563 6.77453125 11.00203125 6.8515625 12.2265625 C6.92503906 13.59941406 6.92503906 13.59941406 7 15 C4.70986347 11.5647952 4.82157027 10.014669 5 6 C4.32453125 6.30035156 3.6490625 6.60070312 2.953125 6.91015625 C2.06109375 7.29042969 1.1690625 7.67070312 0.25 8.0625 C-0.63171875 8.44535156 -1.5134375 8.82820312 -2.421875 9.22265625 C-5.15256309 10.04600008 -6.36901347 9.9773992 -9 9 C-8.071875 8.62875 -7.14375 8.2575 -6.1875 7.875 C-2.4739697 5.69057041 -1.57312496 3.93281241 0 0 Z " fill="#782039" transform="translate(119,147)"/>
<path d="M0 0 C-1.01620005 3.04860014 -1.77391571 3.86666922 -4 6 C-5.35091528 8.70183055 -5.33858058 11.11808206 -5.5625 14.125 C-5.64628906 15.22070312 -5.73007813 16.31640625 -5.81640625 17.4453125 C-5.87699219 18.28835937 -5.93757812 19.13140625 -6 20 C-6.99 20 -7.98 20 -9 20 C-9.44418867 12.48580833 -9.63833132 7.13896792 -5 1 C-3 0 -3 0 0 0 Z " fill="#F59BBF" transform="translate(181,73)"/>
<path d="M0 0 C0 0.33 0 0.66 0 1 C-1.216875 1.226875 -2.43375 1.45375 -3.6875 1.6875 C-8.10658973 2.84673305 -10.21414872 4.2353361 -13 8 C-14.85603109 11.93252996 -16.47420744 15.9290556 -18 20 C-18.33 20 -18.66 20 -19 20 C-19.144375 18.96875 -19.28875 17.9375 -19.4375 16.875 C-20.71263363 12.1675518 -24.10858732 10.47856633 -28.1015625 8.06640625 C-28.72804687 7.71449219 -29.35453125 7.36257812 -30 7 C-29.34 6.67 -28.68 6.34 -28 6 C-25.6171875 7.21484375 -25.6171875 7.21484375 -22.875 8.9375 C-21.96492187 9.50339844 -21.05484375 10.06929687 -20.1171875 10.65234375 C-19.41851562 11.09707031 -18.71984375 11.54179688 -18 12 C-17.41992188 11.07767578 -17.41992188 11.07767578 -16.828125 10.13671875 C-16.30734375 9.32847656 -15.7865625 8.52023438 -15.25 7.6875 C-14.73953125 6.88699219 -14.2290625 6.08648437 -13.703125 5.26171875 C-9.5591859 -0.24135634 -6.52539029 -0.32626951 0 0 Z " fill="#0E100B" transform="translate(171,62)"/>
<path d="M0 0 C0.03738281 0.58007812 0.07476562 1.16015625 0.11328125 1.7578125 C0.54190901 6.85091878 1.4613228 10.47453194 4 15 C4 15.66 4 16.32 4 17 C2.25 16.9375 2.25 16.9375 0 16 C-3.40077526 11.27670103 -4.8188156 7.96565655 -4 2 C-1 0 -1 0 0 0 Z " fill="#F1ECE5" transform="translate(121,84)"/>
<path d="M0 0 C1.21816406 0.03480469 1.21816406 0.03480469 2.4609375 0.0703125 C3.68683594 0.09738281 3.68683594 0.09738281 4.9375 0.125 C5.87722656 0.15980469 5.87722656 0.15980469 6.8359375 0.1953125 C7.1659375 1.5153125 7.4959375 2.8353125 7.8359375 4.1953125 C4.20170541 6.52122104 1.06505419 6.35797083 -3.1640625 6.1953125 C-3.7890625 4.3203125 -3.7890625 4.3203125 -4.1640625 2.1953125 C-2.1640625 0.1953125 -2.1640625 0.1953125 0 0 Z " fill="#FEA385" transform="translate(58.1640625,112.8046875)"/>
<path d="M0 0 C0.66 0.66 1.32 1.32 2 2 C-1.67215512 7.80437421 -5.94464147 12.58867644 -12 16 C-14.78125 16.19140625 -14.78125 16.19140625 -17 16 C-14.33064217 13.22750789 -11.58943096 10.85312261 -8.5 8.5625 C-5.14204286 5.99562666 -2.43715635 3.49678955 0 0 Z " fill="#DBA078" transform="translate(79,166)"/>
<path d="M0 0 C0.99 0.66 1.98 1.32 3 2 C-9.96476661 12.73047576 -9.96476661 12.73047576 -18 12 C-18 11.34 -18 10.68 -18 10 C-14.09983138 8.01570368 -10.24847141 6.06883039 -6.1875 4.4375 C-3.41000694 3.18490509 -1.88317463 2.32627454 0 0 Z " fill="#7F7D7D" transform="translate(151,123)"/>
<path d="M0 0 C2.01822917 0.06510417 4.03645833 0.13020833 6.0546875 0.1953125 C6.3846875 1.5153125 6.7146875 2.8353125 7.0546875 4.1953125 C4.72565954 6.35181987 3.66408447 7.20982195 0.4296875 7.1328125 C-1.9453125 6.1953125 -1.9453125 6.1953125 -3.2578125 4.1328125 C-3.4846875 3.4934375 -3.7115625 2.8540625 -3.9453125 2.1953125 C-1.9453125 0.1953125 -1.9453125 0.1953125 0 0 Z " fill="#63D845" transform="translate(128.9453125,93.8046875)"/>
<path d="M0 0 C0.99 0.33 1.98 0.66 3 1 C3 4.3 3 7.6 3 11 C1.02 11.99 1.02 11.99 -1 13 C-2.51297182 10.59704475 -3.03665969 9.36659693 -2.75 6.5 C-2.045492 4.15164001 -1.18844709 2.13920477 0 0 Z " fill="#050A03" transform="translate(130,81)"/>
<path d="M0 0 C2.38969738 2.4892681 2.98717462 3.90106135 3.4375 7.375 C2.91770829 11.68184557 1.85798703 13.7557985 -1 17 C-3.64453125 17.6640625 -3.64453125 17.6640625 -6 18 C-5.65066406 17.45472656 -5.30132812 16.90945312 -4.94140625 16.34765625 C-1.56295447 10.74880557 -0.31092785 6.52948488 0 0 Z " fill="#EEEAE3" transform="translate(140,84)"/>
<path d="M0 0 C2.66735273 2.48952921 4.55746343 4.63408134 6 8 C6.33 6.35 6.66 4.7 7 3 C9.50037734 5.17424117 10.43628586 6.73045798 11 10 C10.34 10 9.68 10 9 10 C8.67 10.66 8.34 11.32 8 12 C7.01 11.67 6.02 11.34 5 11 C4.67 10.34 4.34 9.68 4 9 C3.01 10.485 3.01 10.485 2 12 C0.00214565 7.8794254 -0.17835515 4.54805635 0 0 Z " fill="#565756" transform="translate(85,55)"/>
<path d="M0 0 C1.32 0.66 2.64 1.32 4 2 C3.11054687 2.40605469 2.22109375 2.81210938 1.3046875 3.23046875 C-1.95200849 4.97430242 -4.20737625 6.78044401 -6.875 9.3125 C-11.05629915 13.18970467 -15.35781377 16.69341484 -20 20 C-20 19.01 -20 18.02 -20 17 C-17.91015625 15.01953125 -17.91015625 15.01953125 -15.0625 12.8125 C-9.87250782 8.71159944 -4.90048198 4.44068367 0 0 Z " fill="#211B17" transform="translate(79,146)"/>
<path d="M0 0 C0.66 0 1.32 0 2 0 C1.67 3.63 1.34 7.26 1 11 C0.67 11 0.34 11 0 11 C0 9.02 0 7.04 0 5 C-5.47617665 8.80290045 -8.33852029 12.96821801 -9.75 19.4375 C-9.87375 20.7059375 -9.87375 20.7059375 -10 22 C-11.125 20.375 -11.125 20.375 -12 18 C-10.86654839 13.40251651 -9.0146433 10.36313866 -6 6.75 C-5.29875 5.89921875 -4.5975 5.0484375 -3.875 4.171875 C-2 2 -2 2 0 0 Z " fill="#2C0713" transform="translate(42,28)"/>
<path d="M0 0 C0.33 0 0.66 0 1 0 C1.72916032 3.04258715 2.23123937 5.86775765 2 9 C0.25834025 11.31486423 -1.53218035 12.37123903 -4 14 C-4.33 14.66 -4.66 15.32 -5 16 C-6.65 15.67 -8.3 15.34 -10 15 C-9.06725891 13.87105124 -8.12859878 12.74699124 -7.1875 11.625 C-6.66542969 10.99851562 -6.14335938 10.37203125 -5.60546875 9.7265625 C-4 8 -4 8 -1 6 C-0.26656572 2.93443402 -0.26656572 2.93443402 0 0 Z " fill="#8B0535" transform="translate(43,39)"/>
<path d="M0 0 C0 7.26 0 14.52 0 22 C-1.65 22.33 -3.3 22.66 -5 23 C-5.33 22.01 -5.66 21.02 -6 20 C-5.01 19.67 -4.02 19.34 -3 19 C-2.67 14.05 -2.34 9.1 -2 4 C-3.98 4.99 -3.98 4.99 -6 6 C-6 5.01 -6 4.02 -6 3 C-2.66666667 0 -2.66666667 0 0 0 Z " fill="#1F0E14" transform="translate(50,23)"/>
<path d="M0 0 C3.465 1.98 3.465 1.98 7 4 C2.04989131 10.2879759 -3.7178043 15.07037669 -10 20 C-10.66 19.67 -11.32 19.34 -12 19 C-11.15695313 18.25234375 -10.31390625 17.5046875 -9.4453125 16.734375 C-8.33825636 15.73990084 -7.23150125 14.74509151 -6.125 13.75 C-5.56941406 13.25886719 -5.01382813 12.76773438 -4.44140625 12.26171875 C-0.41111539 8.69294263 -0.41111539 8.69294263 2 4 C1.21690533 1.76529595 1.21690533 1.76529595 0 0 Z " fill="#1E1A16" transform="translate(155,109)"/>
<path d="M0 0 C0.763125 0.20625 1.52625 0.4125 2.3125 0.625 C2.6425 1.615 2.9725 2.605 3.3125 3.625 C2.549375 3.83125 1.78625 4.0375 1 4.25 C-2.50979103 6.04570704 -3.21349781 8.05636312 -4.6875 11.625 C-5.6875 8.625 -5.6875 8.625 -4.6875 5.625 C-5.6775 5.625 -6.6675 5.625 -7.6875 5.625 C-6.02612914 1.79106724 -4.59035464 -0.6405146 0 0 Z " fill="#4C9E91" transform="translate(177.6875,69.375)"/>
<path d="M0 0 C0.804375 0.495 0.804375 0.495 1.625 1 C4.5391061 2.22699204 6.86867708 2.14233286 10 2 C10.33 1.34 10.66 0.68 11 0 C11.99 0.33 12.98 0.66 14 1 C14 1.66 14 2.32 14 3 C2.47835991 7.59225513 2.47835991 7.59225513 -3 7 C-1.68 5.68 -0.36 4.36 1 3 C0.67 2.01 0.34 1.02 0 0 Z " fill="#811D4A" transform="translate(76,28)"/>
<path d="M0 0 C-3.63 1.32 -7.26 2.64 -11 4 C-8.36 4.66 -5.72 5.32 -3 6 C-3 6.33 -3 6.66 -3 7 C-6.96 7 -10.92 7 -15 7 C-15 5.35 -15 3.7 -15 2 C-13.25766175 1.27302439 -11.50572655 0.56901756 -9.75 -0.125 C-8.77546875 -0.51945313 -7.8009375 -0.91390625 -6.796875 -1.3203125 C-4 -2 -4 -2 0 0 Z " fill="#1B1817" transform="translate(133,141)"/>
<path d="M0 0 C1.875 0.8125 1.875 0.8125 4 2 C4.7425 2.37125 5.485 2.7425 6.25 3.125 C6.8275 3.41375 7.405 3.7025 8 4 C7.67 5.32 7.34 6.64 7 8 C7.99 8.33 8.98 8.66 10 9 C9.01 9.495 9.01 9.495 8 10 C7.59270772 12.32156597 7.25561323 14.6568787 7 17 C6.67 17 6.34 17 6 17 C5.85304687 15.98679687 5.85304687 15.98679687 5.703125 14.953125 C4.79574353 9.28551594 4.79574353 9.28551594 2 4.375 C0.12982952 2.81115706 0.12982952 2.81115706 -2 3 C-2 2.34 -2 1.68 -2 1 C-1.34 0.67 -0.68 0.34 0 0 Z " fill="#22201C" transform="translate(138,75)"/>
<path d="M0 0 C0.33 0 0.66 0 1 0 C1.33 3.96 1.66 7.92 2 12 C3.65 11.67 5.3 11.34 7 11 C6.3125 12.9375 6.3125 12.9375 5 15 C2.375 15.75 2.375 15.75 0 16 C-0.99 14.35 -1.98 12.7 -3 11 C-2.01 10.67 -1.02 10.34 0 10 C0 6.7 0 3.4 0 0 Z " fill="#68283F" transform="translate(175,83)"/>
<path d="M0 0 C0.66 0 1.32 0 2 0 C4.48835999 6.8795835 4.40253202 12.5574214 1.625 19.375 C0.23489326 21.62055705 -1.00623732 23.29106056 -3 25 C-3 21.79814909 -2.55724851 20.97820666 -1 18.3125 C2.16837945 12.21085052 1.32891284 6.64456419 0 0 Z " fill="#17090E" transform="translate(183,75)"/>
<path d="M0 0 C3.6504054 1.921266 5.46581849 3.16454624 7 7 C7.4140625 9.359375 7.4140625 9.359375 7.625 11.75 C7.69976562 12.54921875 7.77453125 13.3484375 7.8515625 14.171875 C7.92503906 15.07679687 7.92503906 15.07679687 8 16 C7.34 16 6.68 16 6 16 C5.34 13.69 4.68 11.38 4 9 C3.67 11.31 3.34 13.62 3 16 C2.67 16 2.34 16 2 16 C1.93941406 15.18015625 1.87882813 14.3603125 1.81640625 13.515625 C1.73261719 12.43796875 1.64882812 11.3603125 1.5625 10.25 C1.48128906 9.18265625 1.40007812 8.1153125 1.31640625 7.015625 C1.05909227 4.56320038 0.68187782 2.36078709 0 0 Z " fill="#B6B1AB" transform="translate(137,77)"/>
<path d="M0 0 C3.16115776 1.36983503 3.9927092 1.9890638 6 5 C6.125 7.6875 6.125 7.6875 6 10 C5.01 10.33 4.02 10.66 3 11 C2.67 11.99 2.34 12.98 2 14 C0.72125 14.061875 -0.5575 14.12375 -1.875 14.1875 C-2.59429688 14.22230469 -3.31359375 14.25710937 -4.0546875 14.29296875 C-4.69664063 14.19628906 -5.33859375 14.09960938 -6 14 C-6.66 13.01 -7.32 12.02 -8 11 C-5.03 11.33 -2.06 11.66 1 12 C0.34 10.35 -0.32 8.7 -1 7 C1.475 7.99 1.475 7.99 4 9 C2.94124926 5.59687262 1.99097846 2.98646769 0 0 Z " fill="#9E7A5E" transform="translate(17,156)"/>
<path d="M0 0 C2.50360992 4.62204909 5 9.69950655 5 15 C5.66 15 6.32 15 7 15 C6.67 16.32 6.34 17.64 6 19 C5.35165346 17.730447 4.70642185 16.45930294 4.0625 15.1875 C3.70285156 14.47980469 3.34320313 13.77210937 2.97265625 13.04296875 C2 11 2 11 1 8 C0.67 10.64 0.34 13.28 0 16 C-0.33 16 -0.66 16 -1 16 C-1.02692484 13.70839681 -1.04636124 11.41670454 -1.0625 9.125 C-1.07410156 7.84882812 -1.08570313 6.57265625 -1.09765625 5.2578125 C-1 2 -1 2 0 0 Z " fill="#191918" transform="translate(38,81)"/>
<path d="M0 0 C-0.66 5.28 -1.32 10.56 -2 16 C-2.33 16 -2.66 16 -3 16 C-3.33 13.36 -3.66 10.72 -4 8 C-5.32 7.67 -6.64 7.34 -8 7 C-3.53191489 0 -3.53191489 0 0 0 Z " fill="#B6B2AC" transform="translate(124,77)"/>
<path d="M0 0 C1.40907283 2.81814566 0.50872691 4.17277204 -0.4375 7.125 C-0.72496094 8.03507813 -1.01242188 8.94515625 -1.30859375 9.8828125 C-1.53675781 10.58148438 -1.76492187 11.28015625 -2 12 C-2.66 12 -3.32 12 -4 12 C-4 10.68 -4 9.36 -4 8 C-4.763125 8.680625 -5.52625 9.36125 -6.3125 10.0625 C-7.199375 10.701875 -8.08625 11.34125 -9 12 C-9.99 11.67 -10.98 11.34 -12 11 C-11.30132812 10.45730469 -10.60265625 9.91460937 -9.8828125 9.35546875 C-8.97273438 8.64003906 -8.06265625 7.92460937 -7.125 7.1875 C-6.22007813 6.47980469 -5.31515625 5.77210938 -4.3828125 5.04296875 C-1.83397044 3.04412259 -1.83397044 3.04412259 0 0 Z " fill="#2B1115" transform="translate(79,170)"/>
<path d="M0 0 C1.8447849 1.91275066 3.39198126 3.8717399 5 6 C4.34 6.66 3.68 7.32 3 8 C2.67128906 7.51789063 2.34257812 7.03578125 2.00390625 6.5390625 C-1.59835273 1.75557496 -4.3262825 0.1188171 -10.2421875 -0.80859375 C-10.82226562 -0.87175781 -11.40234375 -0.93492187 -12 -1 C-12.33 -0.01 -12.66 0.98 -13 2 C-13 0.68 -13 -0.64 -13 -2 C-7.55502903 -3.19789361 -4.66664698 -3.14491427 0 0 Z " fill="#332621" transform="translate(136,150)"/>
<path d="M0 0 C0.66 0 1.32 0 2 0 C2 1.65 2 3.3 2 5 C1.45859375 5.07089844 0.9171875 5.14179687 0.359375 5.21484375 C-2.96132537 6.31991126 -5.08744565 8.31200763 -7.75 10.5625 C-8.73484375 11.38878906 -9.7196875 12.21507812 -10.734375 13.06640625 C-11.48203125 13.70449219 -12.2296875 14.34257813 -13 15 C-13 14.01 -13 13.02 -13 12 C-11.05897886 10.19365001 -9.14580538 8.56205255 -7.0625 6.9375 C-2.97129509 3.95904028 -2.97129509 3.95904028 0 0 Z " fill="#1C1814" transform="translate(75,51)"/>
<path d="M0 0 C0 0.99 0 1.98 0 3 C0.66 3.66 1.32 4.32 2 5 C1.04270084 6.12588014 0.08412105 7.2506715 -0.875 8.375 C-1.40867187 9.00148438 -1.94234375 9.62796875 -2.4921875 10.2734375 C-3.61432007 11.55836651 -4.79371975 12.79371975 -6 14 C-5.41903453 8.07415223 -4.23938937 4.23938937 0 0 Z " fill="#515251" transform="translate(46,55)"/>
<path d="M0 0 C0.66 0 1.32 0 2 0 C2 1.98 2 3.96 2 6 C2.60199219 6.2475 3.20398438 6.495 3.82421875 6.75 C6.35397631 8.20336161 7.30624044 9.52445559 8.8125 12 C9.25207031 12.70125 9.69164062 13.4025 10.14453125 14.125 C10.42683594 14.74375 10.70914063 15.3625 11 16 C10.67 16.66 10.34 17.32 10 18 C9.44570312 17.28972656 8.89140625 16.57945313 8.3203125 15.84765625 C7.59585938 14.92855469 6.87140625 14.00945312 6.125 13.0625 C5.40570313 12.14597656 4.68640625 11.22945312 3.9453125 10.28515625 C2.20579164 7.93990515 2.20579164 7.93990515 0 7 C0 4.69 0 2.38 0 0 Z " fill="#040A09" transform="translate(173,57)"/>
<path d="M0 0 C1.32 0.33 2.64 0.66 4 1 C4.125 3.875 4.125 3.875 4 7 C3.34 7.66 2.68 8.32 2 9 C-0.475 8.01 -0.475 8.01 -3 7 C-2.01 4.69 -1.02 2.38 0 0 Z " fill="#46B424" transform="translate(134,87)"/>
<path d="M0 0 C9.04562269 -0.62145499 9.04562269 -0.62145499 12.6875 1.75 C14 4 14 4 13.75 6.25 C13.5025 6.8275 13.255 7.405 13 8 C12.319375 7.175 11.63875 6.35 10.9375 5.5 C8.15521993 2.63931296 8.15521993 2.63931296 4.1875 2.6875 C3.135625 2.790625 2.08375 2.89375 1 3 C0.67 2.01 0.34 1.02 0 0 Z " fill="#123207" transform="translate(124,75)"/>
<path d="M0 0 C0.99 0.33 1.98 0.66 3 1 C3 2.98 3 4.96 3 7 C1.0625 7.5625 1.0625 7.5625 -1 8 C-2 7 -2 7 -2.1875 4.5625 C-2 2 -2 2 0 0 Z " fill="#EAE9E3" transform="translate(126,78)"/>
<path d="M0 0 C0.66 0 1.32 0 2 0 C2.33 1.65 2.66 3.3 3 5 C4.98 4.34 6.96 3.68 9 3 C8.04454634 4.46022163 7.08553322 5.91811468 6.125 7.375 C5.59132813 8.18710937 5.05765625 8.99921875 4.5078125 9.8359375 C3 12 3 12 1 14 C1.01160156 13.32453125 1.02320312 12.6490625 1.03515625 11.953125 C1.04417969 11.06109375 1.05320312 10.1690625 1.0625 9.25 C1.07990234 7.92742188 1.07990234 7.92742188 1.09765625 6.578125 C1.00826198 4.2181162 0.66912821 2.25501476 0 0 Z " fill="#744358" transform="translate(89,15)"/>
<path d="M0 0 C7.24539726 -0.53449652 11.72912263 0.28392452 18 4 C18 4.66 18 5.32 18 6 C12.36585366 4.20731707 12.36585366 4.20731707 10.125 2.9375 C6.84361383 1.48982963 3.55956611 1.35595661 0 1 C0 0.67 0 0.34 0 0 Z " fill="#DBA680" transform="translate(121,64)"/>
<path d="M0 0 C0.33 0.99 0.66 1.98 1 3 C1.66 3 2.32 3 3 3 C3 5.97 3 8.94 3 12 C2.01 12 1.02 12 0 12 C0 8.04 0 4.08 0 0 Z " fill="#EA7DA6" transform="translate(172,81)"/>
<path d="M0 0 C0.99 0.33 1.98 0.66 3 1 C0.69 3.97 -1.62 6.94 -4 10 C-5 6 -5 6 -4.00390625 4.296875 C-2.66927083 2.86458333 -1.33463542 1.43229167 0 0 Z " fill="#EFCAEF" transform="translate(97,19)"/>
<path d="M0 0 C4.3177458 0.50797009 8.03302114 1.19682779 12 3 C12 3.99 12 4.98 12 6 C8.98782888 5.35550393 6.48344164 4.34977818 3.75 2.9375 C3.04359375 2.57527344 2.3371875 2.21304687 1.609375 1.83984375 C1.07828125 1.56269531 0.5471875 1.28554687 0 1 C0 0.67 0 0.34 0 0 Z " fill="#0F0408" transform="translate(129,5)"/>
<path d="M0 0 C0.66 0.66 1.32 1.32 2 2 C-5.92 2.495 -5.92 2.495 -14 3 C-13.67 2.34 -13.34 1.68 -13 1 C-8.70546873 -0.30137311 -4.44141874 -0.21843043 0 0 Z " fill="#0E0306" transform="translate(94,3)"/>
<path d="M0 0 C-0.99 0.495 -0.99 0.495 -2 1 C-1.95875 2.2375 -1.9175 3.475 -1.875 4.75 C-1.75148437 8.455469 -2.19431894 9.38863788 -4 13 C-3.67 9.04 -3.34 5.08 -3 1 C-4.98 1.99 -6.96 2.98 -9 4 C-6.73455663 -1.01633889 -5.27613404 -1.24961069 0 0 Z " fill="#322D26" transform="translate(37,146)"/>
<path d="M0 0 C4.95 1.65 9.9 3.3 15 5 C15 5.33 15 5.66 15 6 C9.04492601 5.6083965 4.37180176 4.62875405 -1 2 C-0.67 1.34 -0.34 0.68 0 0 Z " fill="#120E0C" transform="translate(61,135)"/>
<path d="M0 0 C1 3 1 3 -0.625 6.5625 C-2.44365141 9.94519161 -4.40040526 10.79814195 -8 12 C-6.85573734 10.186508 -5.70954608 8.37423275 -4.5625 6.5625 C-3.60537109 5.04849609 -3.60537109 5.04849609 -2.62890625 3.50390625 C-1 1 -1 1 0 0 Z " fill="#959393" transform="translate(172,100)"/>
<path d="M0 0 C0.99 0 1.98 0 3 0 C1.125 7.75 1.125 7.75 0 10 C-2.14915785 6.77626323 -2.38286803 5.73296326 -2 2 C-1.34 1.34 -0.68 0.68 0 0 Z " fill="#69292E" transform="translate(91,120)"/>
<path d="M0 0 C0 3.58912412 -0.66436554 4.10857029 -3 6.6875 C-3.556875 7.31011719 -4.11375 7.93273437 -4.6875 8.57421875 C-5.120625 9.04472656 -5.55375 9.51523438 -6 10 C-6.99 9.34 -7.98 8.68 -9 8 C-6.03 5.36 -3.06 2.72 0 0 Z " fill="#222221" transform="translate(164,115)"/>
<path d="M0 0 C0.99 0.33 1.98 0.66 3 1 C2.8125 2.875 2.8125 2.875 2 5 C-0.5625 6.25 -0.5625 6.25 -3 7 C-3 6.01 -3 5.02 -3 4 C-2.34 4 -1.68 4 -1 4 C-0.67 2.68 -0.34 1.36 0 0 Z " fill="#8FE379" transform="translate(133,94)"/>
<path d="M0 0 C2.1519437 3.22791555 2.20086443 4.28400809 2 8 C0.35 8.33 -1.3 8.66 -3 9 C-3.33 8.01 -3.66 7.02 -4 6 C-3.01 5.67 -2.02 5.34 -1 5 C-0.67 3.35 -0.34 1.7 0 0 Z " fill="#145D4D" transform="translate(48,37)"/>
<path d="M0 0 C2.97 0.495 2.97 0.495 6 1 C6 1.99 6 2.98 6 4 C3.36 4 0.72 4 -2 4 C-1.34 2.68 -0.68 1.36 0 0 Z " fill="#76704F" transform="translate(106,140)"/>
<path d="M0 0 C1.32 0.33 2.64 0.66 4 1 C4 1.66 4 2.32 4 3 C4.99 3.33 5.98 3.66 7 4 C7 4.66 7 5.32 7 6 C4.625 5.8125 4.625 5.8125 2 5 C0.6875 2.4375 0.6875 2.4375 0 0 Z " fill="#90274C" transform="translate(172,93)"/>
<path d="M0 0 C0.66 0.33 1.32 0.66 2 1 C-3 6 -3 6 -5.625 6.125 C-6.40875 6.08375 -7.1925 6.0425 -8 6 C-8 5.34 -8 4.68 -8 4 C-6.71349294 3.30289269 -5.42059335 2.61757124 -4.125 1.9375 C-3.40570313 1.55464844 -2.68640625 1.17179688 -1.9453125 0.77734375 C-1.30335938 0.52082031 -0.66140625 0.26429688 0 0 Z " fill="#766A62" transform="translate(141,129)"/>
<path d="M0 0 C0.99 0.33 1.98 0.66 3 1 C3 1.66 3 2.32 3 3 C2.34 3 1.68 3 1 3 C0.34 4.65 -0.32 6.3 -1 8 C-1.66 7.01 -2.32 6.02 -3 5 C-2.01 3.35 -1.02 1.7 0 0 Z " fill="#36911B" transform="translate(125,89)"/>
<path d="M0 0 C0.66 0.33 1.32 0.66 2 1 C2 1.99 2 2.98 2 4 C1.38125 4.04125 0.7625 4.0825 0.125 4.125 C-0.57625 4.41375 -1.2775 4.7025 -2 5 C-3.3045656 7.99615946 -3.3045656 7.99615946 -4 11 C-4.66 10.67 -5.32 10.34 -6 10 C-4.79157144 5.56909529 -3.48331435 3.01887244 0 0 Z " fill="#9C516E" transform="translate(181,73)"/>
<path d="M0 0 C0.33 0.99 0.66 1.98 1 3 C2.65 3 4.3 3 6 3 C5.67 3.99 5.34 4.98 5 6 C3.02 6 1.04 6 -1 6 C-0.67 4.02 -0.34 2.04 0 0 Z " fill="#0F6452" transform="translate(138,27)"/>
<path d="M0 0 C3.77727089 1.81309003 7.37269822 3.9073259 11 6 C11 6.33 11 6.66 11 7 C8.8125 7.3125 8.8125 7.3125 6 7 C3.48103932 4.82453396 1.4949015 2.989803 0 0 Z " fill="#C68BD6" transform="translate(74,24)"/>
<path d="M0 0 C1.4540625 0.0309375 1.4540625 0.0309375 2.9375 0.0625 C1.00495228 2.0870738 -0.69408688 3.48355792 -3.0625 5.0625 C-4.0525 5.0625 -5.0425 5.0625 -6.0625 5.0625 C-3.64893617 0.07446809 -3.64893617 0.07446809 0 0 Z " fill="#881E40" transform="translate(55.0625,21.9375)"/>
<path d="M0 0 C2.64 0.99 5.28 1.98 8 3 C7.01 4.485 7.01 4.485 6 6 C4.02 5.34 2.04 4.68 0 4 C0 2.68 0 1.36 0 0 Z " fill="#A72851" transform="translate(147,13)"/>
<path d="M0 0 C1.32 0 2.64 0 4 0 C3 2 2 4 1 6 C-0.32 5.67 -1.64 5.34 -3 5 C-1.75 2.5 -1.75 2.5 0 0 Z " fill="#252524" transform="translate(172,103)"/>
<path d="M0 0 C0.99 1.485 0.99 1.485 2 3 C2.66 3.33 3.32 3.66 4 4 C3.67 5.65 3.34 7.3 3 9 C2.01 9 1.02 9 0 9 C0 6.03 0 3.06 0 0 Z " fill="#48BAA4" transform="translate(167,81)"/>
<path d="M0 0 C1.31823302 0.59155331 2.62947051 1.19871463 3.9375 1.8125 C5.03384766 2.31716797 5.03384766 2.31716797 6.15234375 2.83203125 C8 4 8 4 9 7 C5.56072421 5.7580393 2.74792181 4.44259716 0 2 C0 1.34 0 0.68 0 0 Z " fill="#D79B73" transform="translate(139,68)"/>
<path d="M0 0 C0.33 0.66 0.66 1.32 1 2 C-0.625 4.5 -0.625 4.5 -3 7 C-6.25 7.3125 -6.25 7.3125 -9 7 C-8.01 6.34 -7.02 5.68 -6 5 C-3.96864317 3.36898357 -1.99068127 1.68101974 0 0 Z " fill="#6B193F" transform="translate(99,25)"/>
<path d="M0 0 C-1.24313463 3.72940389 -2.76985216 4.84656811 -6 7 C-6.99 6.67 -7.98 6.34 -9 6 C-7.8803014 4.99406757 -6.7540588 3.9954151 -5.625 3 C-4.68527344 2.1646875 -4.68527344 2.1646875 -3.7265625 1.3125 C-2 0 -2 0 0 0 Z " fill="#1F1510" transform="translate(76,175)"/>
<path d="M0 0 C5.94 1.485 5.94 1.485 12 3 C12 3.33 12 3.66 12 4 C8.04 4 4.08 4 0 4 C0 2.68 0 1.36 0 0 Z " fill="#0A0504" transform="translate(118,144)"/>
<path d="M0 0 C0.66 0.66 1.32 1.32 2 2 C-0.97 4.31 -3.94 6.62 -7 9 C-7.66 8.67 -8.32 8.34 -9 8 C-6.03 5.36 -3.06 2.72 0 0 Z " fill="#433931" transform="translate(152,120)"/>
<path d="M0 0 C1.32 0.66 2.64 1.32 4 2 C3.67 3.32 3.34 4.64 3 6 C-0.875 4.25 -0.875 4.25 -2 2 C-1.34 2 -0.68 2 0 2 C0 1.34 0 0.68 0 0 Z " fill="#39342E" transform="translate(91,77)"/>
<path d="M0 0 C0.66 0.33 1.32 0.66 2 1 C0.61918777 5.1424367 -1.59825558 6.32203099 -5 9 C-3.90931332 5.22454612 -3.0916909 2.52956528 0 0 Z " fill="#2F2C27" transform="translate(121,74)"/>
<path d="M0 0 C0.33 0 0.66 0 1 0 C1.33 3.96 1.66 7.92 2 12 C1.01 11.67 0.02 11.34 -1 11 C-0.67 7.37 -0.34 3.74 0 0 Z " fill="#353433" transform="translate(46,132)"/>
<path d="M0 0 C0.99 0.33 1.98 0.66 3 1 C2 4 2 4 -1.0625 5.6875 C-2.031875 6.120625 -3.00125 6.55375 -4 7 C-2.79618552 4.50638429 -1.54571278 2.31856917 0 0 Z " fill="#0E0E0D" transform="translate(169,109)"/>
<path d="M0 0 C2.50037734 2.17424117 3.43628586 3.73045798 4 7 C3.01 6.67 2.02 6.34 1 6 C0.67 5.34 0.34 4.68 0 4 C-0.99 4.495 -0.99 4.495 -2 5 C-1.34 3.35 -0.68 1.7 0 0 Z " fill="#DEBADE" transform="translate(87,14)"/>
<path d="M0 0 C1.32 0.66 2.64 1.32 4 2 C-1.625 5 -1.625 5 -5 5 C-3.35 3.35 -1.7 1.7 0 0 Z " fill="#373027" transform="translate(79,146)"/>
<path d="M0 0 C3.59391114 1.33488128 6.75490696 2.96022723 10 5 C9.67 5.66 9.34 6.32 9 7 C7.4972763 6.02501855 5.99788037 5.04490611 4.5 4.0625 C3.6646875 3.51722656 2.829375 2.97195312 1.96875 2.41015625 C1.3190625 1.94480469 0.669375 1.47945312 0 1 C0 0.67 0 0.34 0 0 Z " fill="#67132F" transform="translate(161,23)"/>
<path d="M0 0 C0.99 0.33 1.98 0.66 3 1 C2.67 3.64 2.34 6.28 2 9 C0.14223235 5.86501708 -0.20140476 3.62528568 0 0 Z " fill="#E6BEE7" transform="translate(88,20)"/>
<path d="M0 0 C0.66 0 1.32 0 2 0 C1.25 5.75 1.25 5.75 -1 8 C-2 5 -2 5 -2 2 C-1.34 1.34 -0.68 0.68 0 0 Z " fill="#C693D1" transform="translate(100,17)"/>
<path d="M0 0 C0.33 0 0.66 0 1 0 C1.125 6.625 1.125 6.625 0 10 C-0.66 10 -1.32 10 -2 10 C-2.33 8.68 -2.66 7.36 -3 6 C-2.01 6 -1.02 6 0 6 C0 4.02 0 2.04 0 0 Z " fill="#1D1B19" transform="translate(37,154)"/>
<path d="M0 0 C1.32 0.33 2.64 0.66 4 1 C3.67 2.32 3.34 3.64 3 5 C0.525 4.01 0.525 4.01 -2 3 C-1.34 2.01 -0.68 1.02 0 0 Z " fill="#52C533" transform="translate(133,91)"/>
<path d="M0 0 C2.64 0 5.28 0 8 0 C5.64031256 2.09749995 4.45383006 2.96905704 1.25 3.1875 C0.13625 3.0946875 0.13625 3.0946875 -1 3 C-0.67 2.01 -0.34 1.02 0 0 Z " fill="#0B0A08" transform="translate(123,73)"/>
<path d="M0 0 C0.66 0.33 1.32 0.66 2 1 C1.25 6.75 1.25 6.75 -1 9 C-0.67 7.02 -0.34 5.04 0 3 C-0.66 2.67 -1.32 2.34 -2 2 C-1.34 1.34 -0.68 0.68 0 0 Z " fill="#5FA197" transform="translate(173,72)"/>
</svg>
