<?xml version="1.0" encoding="UTF-8"?>
<svg xmlns="http://www.w3.org/2000/svg" xmlns:xlink="http://www.w3.org/1999/xlink" width="190px" height="182px" viewBox="0 0 95 91" version="1.1">
<g id="surface1">
<path style=" stroke:none;fill-rule:nonzero;fill:rgb(16.078432%,14.901961%,14.509805%);fill-opacity:1;" d="M 85.03125 11.8125 C 87.40625 14.289062 87.675781 16.304688 87.640625 19.664062 C 87.5 21 87.5 21 86.65625 22.5625 C 85.878906 24.265625 86.046875 24.554688 86.65625 26.25 C 86.882812 26.820312 86.882812 26.820312 87.113281 27.40625 C 87.605469 28.800781 87.613281 30.035156 87.5 31.5 C 87.792969 31.609375 88.082031 31.714844 88.382812 31.828125 C 90.964844 33.386719 92.496094 36.917969 93.390625 39.71875 C 93.910156 43.003906 93.054688 46.371094 91.257812 49.148438 C 90.882812 49.570312 90.882812 49.570312 90.5 50 C 90.171875 50 89.839844 50 89.5 50 C 89.398438 50.421875 89.292969 50.84375 89.1875 51.28125 C 88.167969 53.828125 86.453125 55.578125 84.5 57.46875 C 83.59375 58.402344 82.925781 59.3125 82.1875 60.375 C 77.097656 67.183594 68.765625 69.902344 61 72.5 C 61.363281 72.578125 61.722656 72.660156 62.097656 72.742188 C 62.582031 72.855469 63.0625 72.972656 63.5625 73.09375 C 64.039062 73.203125 64.515625 73.3125 65.003906 73.429688 C 68.210938 74.65625 69.839844 76.71875 71.28125 79.75 C 71.425781 80.050781 71.570312 80.351562 71.71875 80.664062 C 75.5 88.699219 75.5 88.699219 75.5 91 C 62.960938 91 50.421875 91 37.5 91 C 37.5 90.339844 37.5 89.679688 37.5 89 C 37.179688 89.324219 36.859375 89.652344 36.53125 89.988281 C 34.457031 91.359375 32.917969 91.257812 30.492188 91.195312 C 29.847656 91.191406 29.847656 91.191406 29.1875 91.1875 C 27.824219 91.175781 26.460938 91.152344 25.09375 91.125 C 24.164062 91.113281 23.238281 91.105469 22.308594 91.097656 C 20.039062 91.074219 17.769531 91.042969 15.5 91 C 15.5 90.503906 15.5 90.011719 15.5 89.5 C 15.089844 89.425781 14.675781 89.351562 14.253906 89.277344 C 10.378906 88.5 7.164062 87.425781 4 85 C 3.273438 83.546875 3.3125 82.613281 3.5 81 C 4.078125 80.207031 4.078125 80.207031 4.78125 79.4375 C 6.125 78.195312 6.125 78.195312 5.925781 77.066406 C 5.222656 75.300781 4.132812 73.796875 3.089844 72.21875 C 2.5 71 2.5 71 2.660156 69.84375 C 3 69 3 69 3.84375 68.621094 C 5 68.5 5 68.5 6.203125 69.347656 C 6.621094 69.75 7.039062 70.148438 7.46875 70.5625 C 7.90625 70.976562 8.34375 71.390625 8.792969 71.816406 C 9.191406 72.207031 9.589844 72.597656 10 73 C 10.425781 73.414062 10.425781 73.414062 10.863281 73.839844 C 11.414062 74.386719 11.960938 74.941406 12.5 75.5 C 12.664062 75.664062 12.828125 75.828125 13 76 C 13.277344 75.515625 13.558594 75.03125 13.84375 74.53125 C 15 73 15 73 16.375 72.5625 C 16.746094 72.542969 17.117188 72.519531 17.5 72.5 C 17.867188 70.53125 18.0625 68.664062 18.066406 66.664062 C 18.066406 66.128906 18.066406 65.59375 18.070312 65.046875 C 18.066406 64.484375 18.066406 63.921875 18.0625 63.34375 C 18.0625 62.761719 18.0625 62.179688 18.058594 61.582031 C 18.039062 57.703125 17.882812 53.859375 17.609375 49.988281 C 17.46875 47.441406 17.472656 44.902344 17.519531 42.351562 C 17.542969 40.335938 17.351562 38.484375 17 36.5 C 16.957031 35.574219 16.933594 34.644531 16.9375 33.71875 C 16.9375 33.265625 16.933594 32.808594 16.933594 32.34375 C 17 31.015625 17.207031 29.792969 17.5 28.5 C 17.179688 28.355469 16.859375 28.210938 16.53125 28.0625 C 15.5 27.5 15.5 27.5 15 26.5 C 14.574219 23.566406 14.953125 21.472656 16.65625 19.054688 C 19.1875 15.890625 21.832031 13.019531 25 10.5 C 25.371094 10.097656 25.742188 9.695312 26.125 9.28125 C 40.53125 -4.144531 71.25 -1.40625 85.03125 11.8125 Z M 28.5 67.5 C 28.355469 72.28125 28.769531 76.785156 29.5 81.5 C 31.386719 80.445312 32.914062 79.25 34.5 77.78125 C 39.320312 73.328125 39.320312 73.328125 42.15625 72.875 C 42.597656 72.800781 43.039062 72.726562 43.492188 72.648438 C 43.992188 72.574219 43.992188 72.574219 44.5 72.5 C 44.5 72.335938 44.5 72.171875 44.5 72 C 43.914062 71.878906 43.328125 71.757812 42.726562 71.632812 C 38.34375 70.707031 34.164062 69.675781 30 68 C 29.503906 67.835938 29.011719 67.671875 28.5 67.5 Z M 17.5 76.5 C 18 77.5 18 77.5 18 77.5 Z M 17.5 76.5 "/>
<path style=" stroke:none;fill-rule:nonzero;fill:rgb(96.862745%,83.529413%,71.372551%);fill-opacity:1;" d="M 54.5 25.5 C 55.613281 26.136719 56.730469 26.769531 57.84375 27.40625 C 58.15625 27.585938 58.46875 27.761719 58.792969 27.945312 C 59.695312 28.460938 60.597656 28.980469 61.5 29.5 C 61.988281 29.78125 62.476562 30.0625 62.976562 30.351562 C 63.316406 30.5625 63.652344 30.777344 64 31 C 64 31.164062 64 31.328125 64 31.5 C 61.773438 31.746094 61.773438 31.746094 59.5 32 C 60.488281 32.027344 60.488281 32.027344 61.410156 31.859375 C 66.414062 31.382812 70.996094 34.277344 74.996094 37.03125 C 75.328125 37.351562 75.660156 37.671875 76 38 C 75.90625 39.65625 75.90625 39.65625 75.707031 40.703125 C 74.855469 46.046875 75.101562 51.628906 78.320312 56.148438 C 78.542969 56.429688 78.769531 56.710938 79 57 C 76.835938 59.59375 74.617188 61.863281 72 64 C 77.597656 60.613281 82.574219 55.566406 86 50 C 86.5 51.5 86.5 51.5 86.160156 52.472656 C 82.765625 58.660156 76.664062 63.988281 70.265625 66.90625 C 68.867188 67.5625 67.554688 68.320312 66.21875 69.09375 C 63.820312 70.421875 61.699219 71.058594 59 71.5 C 59.050781 72.035156 59.101562 72.574219 59.15625 73.125 C 59 75 59 75 57.90625 76.15625 C 55.300781 77.71875 53.078125 78.46875 50 78 C 48.25 77.25 48.25 77.25 47 76 C 46.835938 74.648438 46.945312 73.367188 47 72 C 46.667969 71.9375 46.335938 71.875 45.992188 71.808594 C 29.191406 68.597656 29.191406 68.597656 25.5 64 C 24.359375 61.851562 24.320312 59.695312 24.25 57.3125 C 24.167969 54.535156 23.839844 52.179688 23 49.5 C 22.28125 43.140625 26.898438 37.988281 30.464844 33.207031 C 31.640625 31.835938 32.910156 30.734375 34.3125 29.59375 C 34.792969 29.199219 35.273438 28.804688 35.769531 28.398438 C 37 27.5 37 27.5 38 27.5 C 38.21875 28.125 38.21875 28.125 38.441406 28.765625 C 40.390625 34.117188 42.484375 37.976562 47 41.5 C 47.246094 40.757812 47.246094 40.757812 47.5 40 C 47.765625 40.246094 48.03125 40.492188 48.304688 40.75 C 48.835938 41.230469 48.835938 41.230469 49.375 41.71875 C 49.722656 42.039062 50.070312 42.355469 50.429688 42.6875 C 51.492188 43.496094 52.195312 43.792969 53.5 44 C 54.078125 40.179688 54.164062 36.359375 54.28125 32.5 C 54.304688 31.820312 54.324219 31.140625 54.347656 30.460938 C 54.398438 28.804688 54.449219 27.152344 54.5 25.5 Z M 54.5 25.5 "/>
<path style=" stroke:none;fill-rule:nonzero;fill:rgb(12.156863%,2.352941%,5.882353%);fill-opacity:1;" d="M 85.03125 11.8125 C 87.40625 14.289062 87.675781 16.304688 87.640625 19.664062 C 87.5 21 87.5 21 86.65625 22.5625 C 85.878906 24.265625 86.046875 24.554688 86.65625 26.25 C 86.882812 26.820312 86.882812 26.820312 87.113281 27.40625 C 87.605469 28.800781 87.613281 30.035156 87.5 31.5 C 87.792969 31.609375 88.082031 31.714844 88.382812 31.828125 C 90.964844 33.386719 92.496094 36.917969 93.390625 39.71875 C 93.851562 42.625 93.1875 45.335938 92 48 C 90.90625 49.3125 90.90625 49.3125 90 50 C 90 48.5 90 48.5 90.5 47.5 C 89.839844 47.5 89.179688 47.5 88.5 47.5 C 88.335938 47.003906 88.171875 46.511719 88 46 C 87.339844 46.164062 86.679688 46.328125 86 46.5 C 85.835938 45.179688 85.671875 43.859375 85.5 42.5 C 85.335938 43.324219 85.171875 44.148438 85 45 C 84.503906 45 84.011719 45 83.5 45 C 83.5 43.515625 83.5 42.03125 83.5 40.5 C 83.171875 41.984375 82.839844 43.46875 82.5 45 C 81.34375 45 80.191406 45 79 45 C 79.171875 40.464844 79.878906 36.582031 82.71875 32.9375 C 84.183594 31.863281 84.746094 31.914062 86.5 32 C 85.59375 26.625 85.59375 26.625 83 22 C 79.148438 19.835938 74.722656 18.71875 70.5 17.5 C 70.828125 17.335938 71.160156 17.171875 71.5 17 C 72.707031 13.792969 72.613281 10.371094 72.5 7 C 71.511719 6.503906 70.519531 6.011719 69.5 5.5 C 69.5 5.996094 69.5 6.488281 69.5 7 C 69.054688 6.894531 68.609375 6.789062 68.152344 6.679688 C 63.640625 5.679688 59.382812 5.261719 54.769531 5.304688 C 53.71875 5.3125 52.667969 5.304688 51.613281 5.292969 C 46.214844 5.285156 41.015625 5.859375 36 8 C 36.488281 7.828125 36.488281 7.828125 36.988281 7.652344 C 39.507812 6.824219 41.363281 6.238281 44 7 C 44 6.671875 44 6.339844 44 6 C 51.941406 4.1875 61.78125 4.925781 69.5 7.5 C 69.617188 10.289062 69.289062 12.816406 68.5 15.5 C 68 16 68 16 67.058594 16.050781 C 66.648438 16.042969 66.234375 16.039062 65.8125 16.03125 C 65.34375 16.027344 64.878906 16.023438 64.398438 16.019531 C 63.636719 16.007812 63.636719 16.007812 62.859375 15.996094 C 61.789062 15.988281 60.714844 15.980469 59.644531 15.972656 C 57.953125 15.957031 56.257812 15.9375 54.566406 15.914062 C 52.933594 15.894531 51.304688 15.882812 49.671875 15.871094 C 49.171875 15.863281 48.671875 15.851562 48.15625 15.84375 C 45.371094 15.832031 43.105469 16.117188 40.507812 17.144531 C 38.863281 17.726562 37.230469 17.84375 35.5 18 C 35.5 18.328125 35.5 18.660156 35.5 19 C 35.058594 19.144531 34.617188 19.292969 34.164062 19.441406 C 25.652344 22.109375 25.652344 22.109375 19.5 28 C 18.34375 27.90625 18.34375 27.90625 17 27.5 C 15.636719 25.792969 15 24.183594 15 22 C 16.886719 17.398438 21.183594 13.535156 25 10.5 C 25.371094 10.097656 25.742188 9.695312 26.125 9.28125 C 40.53125 -4.144531 71.25 -1.40625 85.03125 11.8125 Z M 85.03125 11.8125 "/>
<path style=" stroke:none;fill-rule:nonzero;fill:rgb(63.137257%,14.901961%,30.19608%);fill-opacity:1;" d="M 4 70 C 6.300781 70.421875 7.453125 71.820312 9 73.46875 C 11.199219 75.890625 11.199219 75.890625 14 77.5 C 14.0625 77.027344 14.125 76.550781 14.1875 76.0625 C 14.5 74.5 14.5 74.5 15.5 73.5 C 15.996094 73.5 16.488281 73.5 17 73.5 C 16.996094 73.902344 16.988281 74.308594 16.984375 74.726562 C 16.976562 75.257812 16.972656 75.792969 16.96875 76.34375 C 16.964844 76.871094 16.957031 77.398438 16.953125 77.945312 C 16.996094 79.363281 17.175781 80.621094 17.5 82 C 17.855469 82.089844 18.210938 82.183594 18.578125 82.273438 C 21.964844 83.164062 25.0625 84.042969 28 86 C 28 85.339844 28 84.679688 28 84 C 29.082031 82.945312 29.082031 82.945312 30.53125 81.84375 C 32.257812 80.496094 33.890625 79.175781 35.40625 77.59375 C 37.878906 75.0625 39.902344 73.789062 43.5 73.5 C 43.5 74.65625 43.5 75.808594 43.5 77 C 43.996094 76.835938 44.488281 76.671875 45 76.5 C 45.867188 76.78125 45.867188 76.78125 46.875 77.21875 C 51.785156 78.957031 57.222656 78.386719 62 76.5 C 62.246094 77.738281 62.246094 77.738281 62.5 79 C 62.5 77.515625 62.5 76.03125 62.5 74.5 C 64.457031 74.5 65.828125 74.515625 67.4375 75.679688 C 71.40625 79.839844 72.890625 85.640625 74.5 91 C 62.289062 91 50.078125 91 37.5 91 C 37.5 90.339844 37.5 89.679688 37.5 89 C 37.160156 89.324219 36.820312 89.648438 36.472656 89.980469 C 33.988281 91.699219 31.167969 91.332031 28.25 91.316406 C 27.167969 91.3125 26.085938 91.335938 25.003906 91.359375 C 21.152344 91.394531 18.25 91.082031 15.054688 88.695312 C 13.84375 87.898438 12.894531 87.695312 11.46875 87.5 C 8.65625 87.082031 6.722656 85.707031 4.5 84 C 4.632812 81.769531 4.789062 80.742188 6.28125 79.03125 C 6.882812 78.519531 6.882812 78.519531 7.5 78 C 6.824219 75.976562 5.824219 74.519531 4.511719 72.875 C 4 72 4 72 4 70 Z M 4 70 "/>
<path style=" stroke:none;fill-rule:nonzero;fill:rgb(23.529412%,23.137255%,23.137255%);fill-opacity:1;" d="M 51.019531 17.898438 C 51.589844 17.894531 51.589844 17.894531 52.175781 17.890625 C 52.980469 17.886719 53.78125 17.882812 54.585938 17.878906 C 55.796875 17.875 57.007812 17.859375 58.21875 17.84375 C 62.695312 17.8125 66.707031 18.085938 71 19.5 C 71.339844 19.605469 71.679688 19.714844 72.027344 19.824219 C 72.851562 20.101562 73.660156 20.40625 74.46875 20.71875 C 74.988281 20.914062 75.507812 21.109375 76.046875 21.3125 C 77.589844 22.042969 78.746094 22.835938 80 24 C 80.929688 26.789062 79.351562 29.742188 78.15625 32.3125 C 77.941406 32.703125 77.722656 33.097656 77.5 33.5 C 70.136719 33 60.214844 27.597656 54.5 23 C 53.855469 21.898438 53.855469 21.898438 53.5 21 C 53.171875 21.164062 52.839844 21.328125 52.5 21.5 C 52.21875 22.515625 52.21875 22.515625 52.074219 23.734375 C 52.007812 24.1875 51.945312 24.636719 51.878906 25.097656 C 51.785156 25.808594 51.785156 25.808594 51.6875 26.53125 C 51.621094 27.007812 51.554688 27.480469 51.484375 27.96875 C 51.320312 29.144531 51.15625 30.324219 51 31.5 C 50.671875 31.003906 50.339844 30.511719 50 30 C 50.347656 35.015625 50.347656 35.015625 51 40 C 49.304688 39.28125 48.320312 38.390625 47.125 37 C 46.664062 36.472656 46.664062 36.472656 46.195312 35.9375 C 45.5 35 45.5 35 45.5 34 C 45.171875 34 44.839844 34 44.5 34 C 44.613281 34.730469 44.742188 35.460938 44.875 36.1875 C 44.945312 36.59375 45.015625 37 45.085938 37.417969 C 45.410156 38.589844 45.410156 38.589844 46.539062 39.144531 C 46.855469 39.261719 47.171875 39.378906 47.5 39.5 C 47.335938 40.160156 47.171875 40.820312 47 41.5 C 42.921875 39.746094 40.660156 35.738281 38.953125 31.835938 C 38.464844 30.398438 38.210938 29.003906 38 27.5 C 30.90625 33.050781 24.855469 39.394531 23 48.5 C 22.503906 48.335938 22.011719 48.171875 21.5 48 C 19.398438 43.316406 17.308594 37.644531 18.5 32.5 C 19.414062 30.839844 20.578125 29.738281 22 28.5 C 22.332031 28.160156 22.664062 27.824219 23.007812 27.476562 C 29.792969 20.8125 41.722656 17.953125 51.019531 17.898438 Z M 51.019531 17.898438 "/>
<path style=" stroke:none;fill-rule:nonzero;fill:rgb(83.137256%,9.411765%,34.117648%);fill-opacity:1;" d="M 69.5 7.5 C 69.617188 10.289062 69.289062 12.816406 68.5 15.5 C 68 16 68 16 67.058594 16.050781 C 66.648438 16.042969 66.234375 16.039062 65.8125 16.03125 C 65.34375 16.027344 64.878906 16.023438 64.398438 16.019531 C 63.636719 16.007812 63.636719 16.007812 62.859375 15.996094 C 61.789062 15.988281 60.714844 15.980469 59.644531 15.96875 C 57.953125 15.957031 56.257812 15.9375 54.566406 15.914062 C 52.933594 15.894531 51.304688 15.882812 49.671875 15.871094 C 49.171875 15.863281 48.671875 15.851562 48.15625 15.84375 C 45.371094 15.832031 43.085938 16.121094 40.480469 17.125 C 38.875 17.738281 37.203125 18.082031 35.53125 18.46875 C 32.714844 19.136719 30.097656 19.960938 27.460938 21.179688 C 26.5 21.5 26.5 21.5 25 21 C 23.878906 18.761719 23.859375 16.382812 24.5 14 C 26.375 12.105469 28.589844 11.050781 31 10 C 31.339844 9.851562 31.679688 9.703125 32.027344 9.550781 C 35.921875 7.898438 39.710938 6.5 44 6.5 C 44 6.335938 44 6.171875 44 6 C 51.941406 4.1875 61.78125 4.925781 69.5 7.5 Z M 69.5 7.5 "/>
<path style=" stroke:none;fill-rule:nonzero;fill:rgb(97.254902%,83.529413%,71.372551%);fill-opacity:1;" d="M 4 70 C 6.300781 70.421875 7.453125 71.820312 9 73.46875 C 11.199219 75.890625 11.199219 75.890625 14 77.5 C 14.0625 77.027344 14.125 76.550781 14.1875 76.0625 C 14.5 74.5 14.5 74.5 15.5 73.5 C 15.996094 73.5 16.488281 73.5 17 73.5 C 16.996094 73.902344 16.988281 74.308594 16.984375 74.726562 C 16.976562 75.257812 16.972656 75.792969 16.96875 76.34375 C 16.964844 76.871094 16.957031 77.398438 16.953125 77.945312 C 16.996094 79.363281 17.175781 80.621094 17.5 82 C 17.855469 82.089844 18.210938 82.183594 18.578125 82.273438 C 21.964844 83.164062 25.0625 84.042969 28 86 C 28 85.339844 28 84.679688 28 84 C 29.082031 82.945312 29.082031 82.945312 30.53125 81.84375 C 32.257812 80.496094 33.890625 79.175781 35.40625 77.59375 C 37.878906 75.0625 39.902344 73.789062 43.5 73.5 C 43.476562 79.425781 41.179688 84.15625 37.125 88.421875 C 33.78125 91.484375 30.671875 91.515625 26.28125 91.40625 C 25.652344 91.414062 25.023438 91.425781 24.375 91.433594 C 20.628906 91.398438 18.136719 90.914062 15.085938 88.691406 C 13.863281 87.910156 12.894531 87.699219 11.46875 87.5 C 8.65625 87.082031 6.722656 85.707031 4.5 84 C 4.632812 81.769531 4.789062 80.742188 6.28125 79.03125 C 6.882812 78.519531 6.882812 78.519531 7.5 78 C 6.824219 75.976562 5.824219 74.519531 4.511719 72.875 C 4 72 4 72 4 70 Z M 4 70 "/>
<path style=" stroke:none;fill-rule:nonzero;fill:rgb(17.254902%,16.470589%,15.686275%);fill-opacity:1;" d="M 19 40.5 C 20.25 42.8125 21.5 45.351562 21.5 48 C 21.996094 48.164062 22.488281 48.328125 23 48.5 C 24.519531 51.769531 24.710938 54.886719 24.765625 58.441406 C 24.851562 61.398438 25.539062 63.457031 27.59375 65.6875 C 27.894531 65.957031 28.191406 66.222656 28.5 66.5 C 28.335938 66.664062 28.171875 66.828125 28 67 C 27.738281 72.332031 28.125 77.695312 28.453125 83.019531 C 28.585938 85.828125 28.585938 85.828125 28 87 C 27.75 86.699219 27.5 86.398438 27.242188 86.085938 C 25.6875 84.726562 24.066406 84.207031 22.125 83.625 C 21.601562 83.460938 21.601562 83.460938 21.070312 83.289062 C 20.214844 83.023438 19.355469 82.761719 18.5 82.5 C 18.535156 82.042969 18.570312 81.582031 18.609375 81.109375 C 19.328125 70.898438 19.355469 60.488281 18.613281 50.273438 C 18.101562 42.292969 18.101562 42.292969 19 40.5 Z M 19 40.5 "/>
<path style=" stroke:none;fill-rule:nonzero;fill:rgb(65.098041%,15.686275%,31.37255%);fill-opacity:1;" d="M 50.429688 2.332031 C 51.464844 2.34375 52.5 2.34375 53.535156 2.339844 C 65.351562 2.363281 65.351562 2.363281 69 5 C 69.320312 6.050781 69.320312 6.050781 69.5 7 C 69.054688 6.894531 68.609375 6.789062 68.152344 6.679688 C 63.640625 5.679688 59.382812 5.261719 54.769531 5.304688 C 53.71875 5.3125 52.667969 5.304688 51.613281 5.292969 C 45.152344 5.285156 39.1875 6.71875 33 8.5 C 33 8.828125 33 9.160156 33 9.5 C 29.039062 11.726562 29.039062 11.726562 25 14 C 24.988281 14.96875 24.980469 15.9375 24.96875 16.9375 C 24.964844 17.484375 24.957031 18.027344 24.949219 18.589844 C 24.902344 19.976562 24.902344 19.976562 25.5 21 C 25.789062 20.902344 26.078125 20.804688 26.378906 20.707031 C 27.1875 20.4375 28 20.167969 28.808594 19.898438 C 29.753906 19.582031 30.691406 19.246094 31.625 18.90625 C 32.996094 18.5 34.082031 18.417969 35.5 18.5 C 33.949219 19.316406 32.351562 19.984375 30.734375 20.65625 C 24.335938 23.273438 24.335938 23.273438 19.5 28 C 18.34375 27.90625 18.34375 27.90625 17 27.5 C 15.636719 25.792969 15 24.183594 15 22 C 16.625 18.035156 20.425781 13.800781 24 11.5 C 24.335938 11.417969 24.675781 11.335938 25.019531 11.253906 C 26.277344 10.929688 26.753906 10.359375 27.65625 9.4375 C 33.855469 3.824219 42.347656 2.234375 50.429688 2.332031 Z M 50.429688 2.332031 "/>
<path style=" stroke:none;fill-rule:nonzero;fill:rgb(1.960784%,1.568628%,1.568628%);fill-opacity:1;" d="M 87.5 41.5 C 87.664062 41.5 87.828125 41.5 88 41.5 C 88.246094 44.46875 88.246094 44.46875 88.5 47.5 C 89.738281 47.253906 89.738281 47.253906 91 47 C 89.832031 51.4375 87.511719 54.648438 84 57.5 C 83.5 58.214844 83.023438 58.945312 82.5625 59.6875 C 77.804688 67.046875 68.964844 69.925781 61 72.5 C 61.542969 72.617188 61.542969 72.617188 62.097656 72.742188 C 62.582031 72.855469 63.0625 72.972656 63.5625 73.09375 C 64.039062 73.203125 64.515625 73.3125 65.003906 73.429688 C 68.210938 74.65625 69.839844 76.71875 71.28125 79.75 C 71.425781 80.050781 71.570312 80.351562 71.71875 80.664062 C 75.5 88.699219 75.5 88.699219 75.5 91 C 75.171875 91 74.839844 91 74.5 91 C 74.136719 90.125 73.769531 89.25 73.40625 88.375 C 73.175781 87.828125 72.949219 87.28125 72.710938 86.71875 C 72.253906 85.617188 71.808594 84.503906 71.382812 83.390625 C 69.675781 78.945312 69.675781 78.945312 66.5 75.5 C 65.136719 74.957031 63.964844 74.726562 62.5 74.5 C 62.746094 77.71875 62.746094 77.71875 63 81 C 61.855469 79.28125 61.910156 78.507812 62 76.5 C 61.726562 76.644531 61.453125 76.789062 61.171875 76.9375 C 55.585938 79.550781 49.707031 78.992188 44 77 C 43.671875 77.660156 43.339844 78.320312 43 79 C 43.164062 77.183594 43.328125 75.371094 43.5 73.5 C 39.535156 74.359375 37.273438 76.390625 34.445312 79.128906 C 32.726562 80.761719 30.929688 82.128906 29 83.5 C 28.671875 83.335938 28.339844 83.171875 28 83 C 27.632812 77.65625 27.429688 72.355469 27.5 67 C 29.398438 66.367188 29.738281 66.738281 31.5 67.59375 C 34.238281 68.789062 36.917969 69.523438 39.84375 70.125 C 40.234375 70.207031 40.625 70.289062 41.03125 70.371094 C 43.679688 70.894531 46.316406 71.230469 49 71.5 C 48.011719 71.746094 48.011719 71.746094 47 72 C 47.035156 74.8125 47.035156 74.8125 48.53125 77 C 51.40625 77.976562 53.542969 77.847656 56.21875 76.53125 C 57.441406 75.875 57.441406 75.875 58.5 75 C 58.683594 73.835938 58.851562 72.667969 59 71.5 C 59.617188 71.28125 59.617188 71.28125 60.246094 71.058594 C 63.476562 69.871094 66.410156 68.597656 69.292969 66.714844 C 70.5 66 70.5 66 72.171875 65.34375 C 74.285156 64.464844 75.839844 63.105469 77.53125 61.59375 C 77.824219 61.339844 78.117188 61.085938 78.417969 60.824219 C 82.359375 57.554688 82.359375 57.554688 85.09375 53.34375 C 85.523438 52.320312 85.523438 52.320312 86 51.5 C 86.496094 51.335938 86.988281 51.171875 87.5 51 C 87.253906 50.257812 87.253906 50.257812 87 49.5 C 86.671875 49.5 86.339844 49.5 86 49.5 C 85.753906 47.519531 85.753906 47.519531 85.5 45.5 C 85.746094 45.996094 85.746094 45.996094 86 46.5 C 86.496094 46.5 86.988281 46.5 87.5 46.5 C 87.5 44.851562 87.5 43.199219 87.5 41.5 Z M 28.5 67.5 C 28.355469 72.28125 28.769531 76.785156 29.5 81.5 C 31.386719 80.445312 32.914062 79.25 34.5 77.78125 C 39.320312 73.328125 39.320312 73.328125 42.15625 72.875 C 42.597656 72.800781 43.039062 72.726562 43.492188 72.648438 C 43.992188 72.574219 43.992188 72.574219 44.5 72.5 C 44.5 72.335938 44.5 72.171875 44.5 72 C 43.914062 71.878906 43.328125 71.757812 42.726562 71.632812 C 38.34375 70.707031 34.164062 69.675781 30 68 C 29.503906 67.835938 29.011719 67.671875 28.5 67.5 Z M 28.5 67.5 "/>
<path style=" stroke:none;fill-rule:nonzero;fill:rgb(7.058824%,18.82353%,10.980392%);fill-opacity:1;" d="M 85.5 31 C 85.828125 31.328125 86.160156 31.660156 86.5 32 C 85.710938 32.09375 85.710938 32.09375 84.90625 32.1875 C 83.628906 32.5625 83.09375 32.878906 82.265625 33.933594 C 80.398438 37.410156 79.683594 41.144531 79 45 C 80.15625 45 81.308594 45 82.5 45 C 82.523438 44.667969 82.550781 44.335938 82.574219 43.992188 C 82.945312 39.609375 82.945312 39.609375 84 37.5 C 84.59375 39.285156 84.367188 40.253906 84.03125 42.09375 C 83.933594 42.636719 83.835938 43.179688 83.734375 43.742188 C 83.660156 44.15625 83.582031 44.570312 83.5 45 C 83.996094 45 84.488281 45 85 45 C 85.164062 43.515625 85.328125 42.03125 85.5 40.5 C 85.664062 40.5 85.828125 40.5 86 40.5 C 86 43.46875 86 46.441406 86 49.5 C 86.328125 49.5 86.660156 49.5 87 49.5 C 87.328125 50.160156 87.660156 50.820312 88 51.5 C 87.503906 51.5 87.011719 51.5 86.5 51.5 C 86.335938 51.171875 86.171875 50.839844 86 50.5 C 85.816406 50.792969 85.632812 51.082031 85.445312 51.382812 C 82.007812 56.589844 77.625 60.953125 72.5 64.5 C 72.171875 64.335938 71.839844 64.171875 71.5 64 C 71.921875 63.625 72.34375 63.253906 72.777344 62.867188 C 73.332031 62.371094 73.882812 61.871094 74.4375 61.375 C 74.855469 61.007812 74.855469 61.007812 75.28125 60.632812 C 76.679688 59.367188 77.828125 58.289062 78.5 56.5 C 78.050781 56.019531 78.050781 56.019531 77.59375 55.53125 C 73.949219 50.429688 74.53125 43.941406 75.5 38 C 73.851562 36.84375 72.199219 35.691406 70.5 34.5 C 70.828125 34.335938 71.160156 34.171875 71.5 34 C 72.691406 34.609375 72.691406 34.609375 74.0625 35.46875 C 74.515625 35.75 74.972656 36.035156 75.441406 36.328125 C 75.789062 36.546875 76.140625 36.769531 76.5 37 C 76.789062 36.539062 76.789062 36.539062 77.085938 36.070312 C 77.347656 35.664062 77.605469 35.261719 77.875 34.84375 C 78.128906 34.445312 78.386719 34.042969 78.648438 33.632812 C 80.699219 30.90625 82.246094 30.738281 85.5 31 Z M 85.5 31 "/>
<path style=" stroke:none;fill-rule:nonzero;fill:rgb(80.784315%,10.196079%,34.117648%);fill-opacity:1;" d="M 44 7 C 45.277344 8.445312 45.488281 9.355469 45.65625 11.28125 C 45.515625 12.835938 45.328125 13.703125 44.5 15 C 44.171875 15 43.839844 15 43.5 15 C 43.5 15.164062 43.5 15.328125 43.5 15.5 C 40.1875 15.625 40.1875 15.625 38.5 14.5 C 38.664062 14.664062 38.828125 14.828125 39 15 C 38.5 16 38.5 16 37.617188 16.320312 C 37.242188 16.410156 36.867188 16.5 36.476562 16.59375 C 36.066406 16.695312 35.652344 16.796875 35.226562 16.902344 C 34.574219 17.058594 34.574219 17.058594 33.90625 17.21875 C 31.066406 17.902344 28.605469 18.644531 26 20 C 25.503906 20 25.011719 20 24.5 20 C 24.085938 17.882812 23.96875 16.101562 24.5 14 C 28.375 10.066406 38.5625 5.378906 44 7 Z M 44 7 "/>
<path style=" stroke:none;fill-rule:nonzero;fill:rgb(92.941177%,80.000001%,68.235296%);fill-opacity:1;" d="M 4 70 C 6.300781 70.421875 7.453125 71.820312 9 73.46875 C 11.199219 75.890625 11.199219 75.890625 14 77.5 C 14.0625 77.027344 14.125 76.550781 14.1875 76.0625 C 14.5 74.5 14.5 74.5 15.5 73.5 C 15.996094 73.5 16.488281 73.5 17 73.5 C 16.996094 73.902344 16.988281 74.308594 16.984375 74.726562 C 16.976562 75.257812 16.972656 75.792969 16.96875 76.34375 C 16.964844 76.871094 16.957031 77.398438 16.953125 77.945312 C 16.996094 79.375 17.105469 80.625 17.5 82 C 17.828125 82.164062 18.160156 82.328125 18.5 82.5 C 18.171875 82.5 17.839844 82.5 17.5 82.5 C 17.390625 83.058594 17.390625 83.058594 17.28125 83.625 C 17.050781 84.761719 16.785156 85.878906 16.5 87 C 16.898438 87.246094 17.292969 87.492188 17.703125 87.75 C 18.214844 88.070312 18.722656 88.390625 19.25 88.71875 C 20.015625 89.199219 20.015625 89.199219 20.796875 89.6875 C 21.195312 89.953125 21.589844 90.222656 22 90.5 C 22 90.664062 22 90.828125 22 91 C 19.703125 91.363281 18.5 90.78125 16.625 89.5625 C 14.875 88.433594 13.53125 87.800781 11.46875 87.5 C 8.65625 87.082031 6.722656 85.707031 4.5 84 C 4.632812 81.769531 4.789062 80.742188 6.28125 79.03125 C 6.882812 78.519531 6.882812 78.519531 7.5 78 C 6.824219 75.976562 5.824219 74.519531 4.511719 72.875 C 4 72 4 72 4 70 Z M 4 70 "/>
<path style=" stroke:none;fill-rule:nonzero;fill:rgb(6.666667%,54.901963%,48.235294%);fill-opacity:1;" d="M 85.71875 31.625 C 87.894531 32.082031 88.546875 32.769531 89.859375 34.492188 C 91.792969 37.523438 93 40.875 92.5 44.5 C 91.625 46.25 91.625 46.25 90.5 47.5 C 89.839844 47.5 89.179688 47.5 88.5 47.5 C 88.335938 47.003906 88.171875 46.511719 88 46 C 87.339844 46.164062 86.679688 46.328125 86 46.5 C 85.835938 45.179688 85.671875 43.859375 85.5 42.5 C 85.335938 43.324219 85.171875 44.148438 85 45 C 84.503906 45 84.011719 45 83.5 45 C 83.5 43.515625 83.5 42.03125 83.5 40.5 C 83.171875 41.984375 82.839844 43.46875 82.5 45 C 81.34375 45 80.191406 45 79 45 C 79.171875 40.460938 79.914062 36.640625 82.65625 32.9375 C 84 32 84 32 85.71875 31.625 Z M 85.71875 31.625 "/>
<path style=" stroke:none;fill-rule:nonzero;fill:rgb(14.509805%,37.64706%,6.27451%);fill-opacity:1;" d="M 67 36 C 69.300781 36.886719 71.859375 38.21875 73 40.5 C 72.835938 40.828125 72.671875 41.160156 72.5 41.5 C 72.996094 41.664062 73.488281 41.828125 74 42 C 73.503906 42.246094 73.503906 42.246094 73 42.5 C 72.796875 43.660156 72.628906 44.828125 72.5 46 C 72.335938 46 72.171875 46 72 46 C 71.949219 45.664062 71.902344 45.324219 71.851562 44.976562 C 71.316406 41.519531 71.316406 41.519531 69 39 C 69.164062 39.496094 69.328125 39.988281 69.5 40.5 C 69.953125 47.03125 69.953125 47.03125 68 50 C 67.835938 50.496094 67.671875 50.988281 67.5 51.5 C 65.683594 51.5 63.871094 51.5 62 51.5 C 62.328125 51.171875 62.660156 50.839844 63 50.5 C 62.671875 50.148438 62.339844 49.796875 62 49.4375 C 60.261719 46.875 60.695312 43.449219 61 40.5 C 61.511719 39.285156 61.511719 39.285156 62 38.5 C 60.472656 39.367188 59.183594 40.191406 58 41.5 C 58.621094 39.019531 59.378906 37.929688 61.5 36.5 C 63.226562 35.636719 65.105469 35.820312 67 36 Z M 67 36 "/>
<path style=" stroke:none;fill-rule:nonzero;fill:rgb(83.92157%,9.019608%,34.117648%);fill-opacity:1;" d="M 73.5 6.5 C 78.40625 8.304688 83.226562 10.355469 86.121094 14.996094 C 86.800781 16.800781 86.800781 18.605469 86.5 20.5 C 85.5 21.78125 85.5 21.78125 84.5 22.5 C 84.015625 22.148438 83.53125 21.796875 83.03125 21.4375 C 79.667969 19.308594 75.753906 18.242188 72 17 C 72.160156 16.414062 72.316406 15.824219 72.480469 15.21875 C 72.957031 13.3125 73.191406 11.464844 73.3125 9.5 C 73.351562 8.933594 73.386719 8.367188 73.425781 7.78125 C 73.449219 7.359375 73.476562 6.9375 73.5 6.5 Z M 73.5 6.5 "/>
<path style=" stroke:none;fill-rule:nonzero;fill:rgb(52.156866%,50.196081%,48.235294%);fill-opacity:1;" d="M 86 50 C 86.5 51.5 86.5 51.5 86.160156 52.472656 C 82.765625 58.660156 76.664062 63.988281 70.265625 66.90625 C 68.867188 67.5625 67.554688 68.320312 66.21875 69.09375 C 63.820312 70.421875 61.699219 71.058594 59 71.5 C 59.050781 72.035156 59.101562 72.574219 59.15625 73.125 C 59 75 59 75 57.90625 76.15625 C 55.300781 77.71875 53.078125 78.46875 50 78 C 48.25 77.25 48.25 77.25 47 76 C 46.746094 74.574219 46.855469 73.460938 47 72 C 53.03125 69.988281 53.03125 69.988281 56.3125 69.6875 C 60.558594 69.199219 64.21875 67.699219 68.078125 65.917969 C 68.851562 65.566406 69.632812 65.242188 70.421875 64.925781 C 76.78125 62.183594 82.390625 55.777344 86 50 Z M 86 50 "/>
<path style=" stroke:none;fill-rule:nonzero;fill:rgb(3.137255%,2.352941%,2.352941%);fill-opacity:1;" d="M 15 23 C 15.132812 23.277344 15.269531 23.558594 15.40625 23.84375 C 16.621094 26.539062 16.621094 26.539062 19 28 C 18.996094 28.578125 18.996094 29.152344 18.992188 29.746094 C 18.984375 31.929688 18.976562 34.109375 18.972656 36.292969 C 18.96875 37.226562 18.964844 38.164062 18.960938 39.101562 C 18.941406 44.0625 18.984375 48.988281 19.316406 53.9375 C 19.542969 57.394531 19.574219 60.84375 19.566406 64.304688 C 19.5625 65.347656 19.566406 66.390625 19.570312 67.433594 C 19.574219 78.777344 19.574219 78.777344 18.5 82 C 18.171875 82 17.839844 82 17.5 82 C 16.515625 79.976562 16.441406 78.566406 16.6875 76.34375 C 16.769531 75.542969 16.769531 75.542969 16.855469 74.726562 C 16.925781 74.117188 16.925781 74.117188 17 73.5 C 16.003906 73.894531 16.003906 73.894531 15 74.5 C 14.355469 76.019531 14.355469 76.019531 14 77.5 C 11.503906 76.765625 10.164062 75.308594 8.4375 73.46875 C 6.511719 71.324219 6.511719 71.324219 4 70 C 5.03125 72.65625 6.28125 74.722656 8 77 C 7.433594 78.273438 6.863281 79.15625 5.9375 80.21875 C 4.855469 81.695312 4.726562 82.214844 5 84 C 7.484375 86.339844 10.511719 87.21875 13.796875 87.71875 C 15.777344 88.183594 17.421875 89.234375 19 90.5 C 19 90.664062 19 90.828125 19 91 C 17.84375 91 16.691406 91 15.5 91 C 15.5 90.503906 15.5 90.011719 15.5 89.5 C 15.089844 89.425781 14.675781 89.351562 14.253906 89.277344 C 10.378906 88.5 7.164062 87.425781 4 85 C 3.273438 83.546875 3.3125 82.613281 3.5 81 C 4.078125 80.207031 4.078125 80.207031 4.78125 79.4375 C 6.125 78.195312 6.125 78.195312 5.921875 77.066406 C 5.222656 75.300781 4.132812 73.796875 3.089844 72.21875 C 2.5 71 2.5 71 2.660156 69.84375 C 3 69 3 69 3.84375 68.621094 C 5 68.5 5 68.5 6.203125 69.347656 C 6.621094 69.75 7.039062 70.148438 7.46875 70.5625 C 7.90625 70.976562 8.34375 71.390625 8.792969 71.816406 C 9.191406 72.207031 9.589844 72.597656 10 73 C 10.285156 73.277344 10.570312 73.554688 10.863281 73.839844 C 11.414062 74.386719 11.960938 74.941406 12.5 75.5 C 12.746094 75.746094 12.746094 75.746094 13 76 C 13.277344 75.515625 13.558594 75.03125 13.84375 74.53125 C 15 73 15 73 16.375 72.5625 C 16.746094 72.542969 17.117188 72.519531 17.5 72.5 C 17.867188 70.53125 18.0625 68.664062 18.066406 66.664062 C 18.066406 66.128906 18.066406 65.59375 18.070312 65.046875 C 18.066406 64.484375 18.066406 63.921875 18.0625 63.34375 C 18.0625 62.761719 18.0625 62.179688 18.058594 61.582031 C 18.039062 57.703125 17.882812 53.859375 17.609375 49.988281 C 17.46875 47.441406 17.472656 44.902344 17.519531 42.351562 C 17.542969 40.335938 17.351562 38.484375 17 36.5 C 16.957031 35.574219 16.933594 34.644531 16.9375 33.71875 C 16.9375 33.265625 16.933594 32.808594 16.933594 32.34375 C 17 31.015625 17.207031 29.792969 17.5 28.5 C 17.179688 28.355469 16.859375 28.210938 16.53125 28.0625 C 15.5 27.5 15.5 27.5 15 26.5 C 14.980469 25.332031 14.976562 24.167969 15 23 Z M 17.5 76.5 C 18 77.5 18 77.5 18 77.5 Z M 17.5 76.5 "/>
<path style=" stroke:none;fill-rule:nonzero;fill:rgb(23.529412%,23.137255%,22.745098%);fill-opacity:1;" d="M 19 43.5 C 21.367188 45.867188 21.191406 49.222656 21.296875 52.367188 C 21.328125 53.058594 21.328125 53.058594 21.359375 53.765625 C 21.421875 55.230469 21.476562 56.691406 21.53125 58.15625 C 21.589844 59.628906 21.648438 61.101562 21.710938 62.574219 C 21.746094 63.488281 21.785156 64.402344 21.816406 65.320312 C 21.703125 67.320312 21.703125 67.320312 22.5 69 C 22.746094 67.515625 22.746094 67.515625 23 66 C 23.164062 66 23.328125 66 23.5 66 C 23.929688 68.222656 24.058594 70.3125 24.046875 72.574219 C 24.046875 72.902344 24.046875 73.230469 24.046875 73.570312 C 24.042969 74.609375 24.039062 75.648438 24.03125 76.6875 C 24.027344 77.394531 24.027344 78.105469 24.023438 78.8125 C 24.019531 80.542969 24.011719 82.273438 24 84 C 23.269531 83.84375 22.542969 83.6875 21.8125 83.53125 C 21.40625 83.445312 21 83.355469 20.582031 83.265625 C 19.5 83 19.5 83 18.5 82.5 C 18.535156 82.03125 18.570312 81.5625 18.609375 81.078125 C 19.117188 73.714844 19.058594 66.351562 19.035156 58.976562 C 19.027344 57.226562 19.027344 55.476562 19.023438 53.726562 C 19.019531 50.316406 19.011719 46.90625 19 43.5 Z M 19 43.5 "/>
<path style=" stroke:none;fill-rule:nonzero;fill:rgb(73.333335%,25.490198%,29.411766%);fill-opacity:1;" d="M 58.5 57.5 C 59 58 59 58 59.15625 59.84375 C 59.128906 62.0625 58.4375 63.285156 57 65 C 54.714844 67.070312 52.230469 67.210938 49.242188 67.171875 C 47.113281 66.878906 46.367188 66.148438 45 64.5 C 44.5625 62.59375 44.5625 62.59375 44.5 61 C 48.339844 57.816406 53.652344 57.175781 58.5 57.5 Z M 58.5 57.5 "/>
<path style=" stroke:none;fill-rule:nonzero;fill:rgb(95.686275%,82.352942%,70.588237%);fill-opacity:1;" d="M 62.5 74.5 C 64.457031 74.5 65.828125 74.515625 67.4375 75.679688 C 71.359375 79.789062 73.035156 85.632812 74.5 91 C 72.023438 91 69.550781 91 67 91 C 66.800781 89.855469 66.800781 89.855469 66.59375 88.6875 C 66.078125 86.105469 65.300781 84.046875 63.6875 81.9375 C 62.472656 80.28125 62.4375 78.632812 62.46875 76.625 C 62.472656 76.226562 62.476562 75.824219 62.484375 75.414062 C 62.488281 75.113281 62.492188 74.8125 62.5 74.5 Z M 62.5 74.5 "/>
<path style=" stroke:none;fill-rule:nonzero;fill:rgb(12.54902%,3.529412%,6.666667%);fill-opacity:1;" d="M 25 11.5 C 24.996094 12.101562 24.988281 12.703125 24.984375 13.324219 C 24.976562 14.113281 24.972656 14.898438 24.96875 15.6875 C 24.964844 16.085938 24.960938 16.480469 24.957031 16.890625 C 24.886719 19.011719 24.886719 19.011719 25.5 21 C 25.789062 20.902344 26.078125 20.804688 26.378906 20.707031 C 27.1875 20.4375 28 20.167969 28.808594 19.898438 C 29.753906 19.582031 30.691406 19.246094 31.625 18.90625 C 32.996094 18.5 34.082031 18.417969 35.5 18.5 C 33.949219 19.316406 32.351562 19.984375 30.734375 20.65625 C 24.335938 23.273438 24.335938 23.273438 19.5 28 C 18.34375 27.90625 18.34375 27.90625 17 27.5 C 15.636719 25.792969 15 24.183594 15 22 C 16.332031 18.757812 21.214844 11.5 25 11.5 Z M 25 11.5 "/>
<path style=" stroke:none;fill-rule:nonzero;fill:rgb(33.725491%,34.117648%,33.725491%);fill-opacity:1;" d="M 69.5 20.5 C 70.375 20.714844 71.25 20.933594 72.125 21.15625 C 72.613281 21.277344 73.097656 21.398438 73.601562 21.523438 C 74.996094 22 75.886719 22.554688 77 23.5 C 76.835938 23.828125 76.671875 24.160156 76.5 24.5 C 76.003906 24.171875 75.511719 23.839844 75 23.5 C 76.238281 24.984375 76.238281 24.984375 77.5 26.5 C 77.335938 26.828125 77.171875 27.160156 77 27.5 C 75.761719 26.757812 75.761719 26.757812 74.5 26 C 74.828125 26.988281 75.160156 27.980469 75.5 29 C 73.851562 28.011719 72.199219 27.019531 70.5 26 C 70.664062 26.824219 70.828125 27.648438 71 28.5 C 69.84375 28.003906 68.691406 27.511719 67.5 27 C 67.335938 27.328125 67.171875 27.660156 67 28 C 65.933594 27.214844 64.871094 26.421875 63.8125 25.625 C 63.511719 25.402344 63.210938 25.179688 62.898438 24.953125 C 61.355469 23.785156 60.152344 22.859375 59.5 21 C 60.414062 21.230469 60.414062 21.230469 61.34375 21.46875 C 63.890625 22.191406 63.890625 22.191406 66.5 22.5 C 66.5 22.171875 66.5 21.839844 66.5 21.5 C 67.488281 21.5 68.480469 21.5 69.5 21.5 C 69.5 21.171875 69.5 20.839844 69.5 20.5 Z M 69.5 20.5 "/>
<path style=" stroke:none;fill-rule:nonzero;fill:rgb(0.784314%,34.901962%,29.019609%);fill-opacity:1;" d="M 84 37.5 C 84.59375 39.285156 84.367188 40.253906 84.03125 42.09375 C 83.933594 42.636719 83.835938 43.179688 83.734375 43.742188 C 83.660156 44.15625 83.582031 44.570312 83.5 45 C 83.996094 45 84.488281 45 85 45 C 85.164062 43.515625 85.328125 42.03125 85.5 40.5 C 85.664062 40.5 85.828125 40.5 86 40.5 C 86 43.46875 86 46.441406 86 49.5 C 86.328125 49.5 86.660156 49.5 87 49.5 C 87.328125 50.160156 87.660156 50.820312 88 51.5 C 87.503906 51.5 87.011719 51.5 86.5 51.5 C 86.335938 51.171875 86.171875 50.839844 86 50.5 C 85.011719 51.984375 84.019531 53.46875 83 55 C 81.480469 54.261719 80.589844 53.625 79.59375 52.25 C 78.769531 49.816406 78.878906 47.546875 79 45 C 80.15625 45 81.308594 45 82.5 45 C 82.523438 44.667969 82.550781 44.335938 82.574219 43.992188 C 82.945312 39.609375 82.945312 39.609375 84 37.5 Z M 84 37.5 "/>
<path style=" stroke:none;fill-rule:nonzero;fill:rgb(32.941177%,47.843137%,27.450982%);fill-opacity:1;" d="M 60.5 37 C 61.160156 37.328125 61.820312 37.660156 62.5 38 C 62.5 38.328125 62.5 38.660156 62.5 39 C 63.160156 39.164062 63.820312 39.328125 64.5 39.5 C 64.535156 41.007812 64.527344 42.363281 64.21875 43.84375 C 63.890625 45.074219 63.890625 45.074219 64.5 46.5 C 64.996094 46.335938 65.488281 46.171875 66 46 C 66.609375 44.746094 66.609375 44.746094 67 43.5 C 67.660156 43.664062 68.320312 43.828125 69 44 C 69.164062 46.773438 69.238281 48.683594 67.5 51 C 67.5 51.164062 67.5 51.328125 67.5 51.5 C 65.683594 51.5 63.871094 51.5 62 51.5 C 62.328125 51.171875 62.660156 50.839844 63 50.5 C 62.671875 50.148438 62.339844 49.796875 62 49.4375 C 60.261719 46.875 60.695312 43.449219 61 40.5 C 61.511719 39.285156 61.511719 39.285156 62 38.5 C 60.472656 39.367188 59.183594 40.191406 58 41.5 C 58.546875 39.613281 58.953125 38.265625 60.5 37 Z M 60.5 37 "/>
<path style=" stroke:none;fill-rule:nonzero;fill:rgb(12.156863%,9.411765%,7.450981%);fill-opacity:1;" d="M 28 66.5 C 28.609375 66.707031 29.21875 66.914062 29.84375 67.125 C 30.261719 67.261719 30.675781 67.398438 31.105469 67.539062 C 32.039062 67.847656 32.96875 68.164062 33.894531 68.492188 C 38.832031 70.152344 43.847656 70.820312 49 71.5 C 48.339844 71.664062 47.679688 71.828125 47 72 C 46.835938 72.824219 46.671875 73.648438 46.5 74.5 C 46.253906 74.003906 46.253906 74.003906 46 73.5 C 39.910156 74.003906 36.929688 76.445312 32.820312 80.710938 C 31.648438 81.839844 30.386719 82.65625 29 83.5 C 28.671875 83.335938 28.339844 83.171875 28 83 C 27.253906 72.128906 27.253906 72.128906 27.5 67 C 27.664062 66.835938 27.828125 66.671875 28 66.5 Z M 28.5 67.5 C 28.355469 72.28125 28.769531 76.785156 29.5 81.5 C 31.386719 80.445312 32.914062 79.25 34.5 77.78125 C 39.320312 73.328125 39.320312 73.328125 42.15625 72.875 C 42.597656 72.800781 43.039062 72.726562 43.492188 72.648438 C 43.992188 72.574219 43.992188 72.574219 44.5 72.5 C 44.5 72.335938 44.5 72.171875 44.5 72 C 43.914062 71.878906 43.328125 71.757812 42.726562 71.632812 C 38.34375 70.707031 34.164062 69.675781 30 68 C 29.503906 67.835938 29.011719 67.671875 28.5 67.5 Z M 28.5 67.5 "/>
<path style=" stroke:none;fill-rule:nonzero;fill:rgb(15.294118%,12.941177%,10.588235%);fill-opacity:1;" d="M 3.5 68.5 C 6.949219 68.945312 9.507812 72.417969 11.5 75 C 11.996094 75.328125 12.488281 75.660156 13 76 C 13.277344 75.515625 13.558594 75.03125 13.84375 74.53125 C 15 73 15 73 16.3125 72.5 C 16.703125 72.5 17.097656 72.5 17.5 72.5 C 17.828125 72.828125 18.160156 73.160156 18.5 73.5 C 18.171875 73.5 17.839844 73.5 17.5 73.5 C 17.519531 74.117188 17.542969 74.738281 17.5625 75.375 C 17.625 77.226562 17.402344 77.695312 16.5 79.5 C 16.664062 77.519531 16.828125 75.539062 17 73.5 C 14.886719 74.28125 14.886719 74.28125 14.375 76.0625 C 14.25 76.535156 14.128906 77.011719 14 77.5 C 11.503906 76.765625 10.164062 75.308594 8.4375 73.46875 C 6.511719 71.324219 6.511719 71.324219 4 70 C 5.03125 72.65625 6.28125 74.722656 8 77 C 7.433594 78.273438 6.863281 79.15625 5.9375 80.21875 C 4.855469 81.695312 4.726562 82.214844 5 84 C 7.484375 86.339844 10.511719 87.21875 13.796875 87.71875 C 15.777344 88.183594 17.421875 89.234375 19 90.5 C 19 90.664062 19 90.828125 19 91 C 17.84375 91 16.691406 91 15.5 91 C 15.5 90.503906 15.5 90.011719 15.5 89.5 C 15.089844 89.425781 14.675781 89.351562 14.253906 89.277344 C 10.378906 88.5 7.164062 87.425781 4 85 C 3.273438 83.546875 3.3125 82.613281 3.5 81 C 4.078125 80.207031 4.078125 80.207031 4.78125 79.4375 C 6.125 78.195312 6.125 78.195312 5.921875 77.066406 C 5.222656 75.300781 4.132812 73.796875 3.089844 72.21875 C 2.5 71 2.5 71 2.628906 69.875 C 3 69 3 69 3.5 68.5 Z M 3.5 68.5 "/>
<path style=" stroke:none;fill-rule:nonzero;fill:rgb(85.09804%,61.56863%,46.27451%);fill-opacity:1;" d="M 8.5 78 C 8.769531 78.175781 9.035156 78.351562 9.3125 78.53125 C 10.867188 79.144531 11.898438 78.863281 13.5 78.5 C 13.335938 78.996094 13.171875 79.488281 13 80 C 12.964844 80.695312 12.957031 81.394531 12.96875 82.09375 C 12.980469 82.722656 12.988281 83.351562 13 84 C 14.199219 84.339844 14.199219 84.339844 15.5 84.5 C 16.679688 83.320312 16.746094 82.609375 17 81 C 17.164062 81.328125 17.328125 81.660156 17.5 82 C 17.828125 82.164062 18.160156 82.328125 18.5 82.5 C 18.171875 82.5 17.839844 82.5 17.5 82.5 C 17.390625 83.058594 17.390625 83.058594 17.28125 83.625 C 17.050781 84.761719 16.785156 85.878906 16.5 87 C 16.898438 87.246094 17.292969 87.492188 17.703125 87.75 C 18.214844 88.070312 18.722656 88.390625 19.25 88.71875 C 19.761719 89.039062 20.269531 89.355469 20.796875 89.6875 C 21.195312 89.953125 21.589844 90.222656 22 90.5 C 22 90.664062 22 90.828125 22 91 C 19.703125 91.363281 18.5 90.78125 16.625 89.5625 C 14.875 88.433594 13.53125 87.800781 11.46875 87.5 C 8.65625 87.082031 6.722656 85.707031 4.5 84 C 6.191406 83.511719 7.28125 83.570312 9 84 C 8.671875 83.175781 8.339844 82.351562 8 81.5 C 9.238281 81.996094 9.238281 81.996094 10.5 82.5 C 9.96875 80.796875 9.496094 79.492188 8.5 78 Z M 8.5 78 "/>
<path style=" stroke:none;fill-rule:nonzero;fill:rgb(91.764706%,35.294119%,54.11765%);fill-opacity:1;" d="M 91.5 37 C 92.375 39.621094 92.765625 41.730469 92.5 44.5 C 91.625 46.25 91.625 46.25 90.5 47.5 C 89.839844 47.5 89.179688 47.5 88.5 47.5 C 88.335938 47.003906 88.171875 46.511719 88 46 C 87.339844 46.164062 86.679688 46.328125 86 46.5 C 85.777344 42.742188 85.679688 40.070312 88 37 C 89.332031 36.332031 90.082031 36.664062 91.5 37 Z M 91.5 37 "/>
<path style=" stroke:none;fill-rule:nonzero;fill:rgb(89.411765%,63.529414%,46.666667%);fill-opacity:1;" d="M 47 72.5 C 50.078125 72.453125 50.078125 72.453125 51 72.5 C 51.164062 72.664062 51.328125 72.828125 51.5 73 C 53.890625 73.09375 56.140625 72.886719 58.5 72.5 C 58.664062 73.324219 58.828125 74.148438 59 75 C 56.433594 77.199219 54.464844 78.265625 51 78.15625 C 49.234375 77.882812 48.265625 77.234375 47 76 C 46.8125 74.125 46.8125 74.125 47 72.5 Z M 47 72.5 "/>
<path style=" stroke:none;fill-rule:nonzero;fill:rgb(95.294118%,38.039216%,43.137255%);fill-opacity:1;" d="M 54.84375 60.96875 C 55.339844 60.972656 55.835938 60.976562 56.351562 60.984375 C 56.917969 60.992188 56.917969 60.992188 57.5 61 C 58 62.5 58 62.5 57.621094 63.523438 C 56.828125 64.761719 56.179688 65.605469 55 66.5 C 52.148438 67.027344 49.453125 67.132812 47 65.5 C 47.0625 64.625 47.0625 64.625 47.5 63.5 C 49.992188 61.605469 51.746094 60.933594 54.84375 60.96875 Z M 54.84375 60.96875 "/>
<path style=" stroke:none;fill-rule:nonzero;fill:rgb(82.745099%,9.019608%,33.725491%);fill-opacity:1;" d="M 20 16.5 C 20.328125 16.5 20.660156 16.5 21 16.5 C 21 17.488281 21 18.480469 21 19.5 C 21.328125 19.5 21.660156 19.5 22 19.5 C 22.363281 21.019531 22.617188 22.433594 22.5 24 C 21.628906 25.15625 20.734375 25.6875 19.5 26.5 C 19.335938 26.828125 19.171875 27.160156 19 27.5 C 17.78125 27.3125 17.78125 27.3125 16.5 27 C 15.679688 25.355469 15.671875 23.769531 16 22 C 17.0625 19.945312 18.363281 18.136719 20 16.5 Z M 20 16.5 "/>
<path style=" stroke:none;fill-rule:nonzero;fill:rgb(34.117648%,34.117648%,34.117648%);fill-opacity:1;" d="M 23 27.5 C 23 27.996094 23 28.488281 23 29 C 23.328125 29.164062 23.660156 29.328125 24 29.5 C 24.164062 29.996094 24.328125 30.488281 24.5 31 C 25.65625 30.175781 26.808594 29.351562 28 28.5 C 28 29.160156 28 29.820312 28 30.5 C 28.988281 30.003906 29.980469 29.511719 31 29 C 30.21875 30.898438 29.023438 32.078125 27.5625 33.5 C 27.128906 33.921875 26.699219 34.34375 26.253906 34.78125 C 25.839844 35.183594 25.425781 35.585938 25 36 C 24.332031 36.664062 23.664062 37.332031 23 38 C 23 37.011719 23 36.019531 23 35 C 22.503906 35.496094 22.011719 35.988281 21.5 36.5 C 21.582031 35.941406 21.664062 35.386719 21.75 34.8125 C 22.023438 33.140625 22.023438 33.140625 22 32 C 21.339844 32.824219 20.679688 33.648438 20 34.5 C 20.289062 31.535156 20.878906 29.621094 23 27.5 Z M 23 27.5 "/>
<path style=" stroke:none;fill-rule:nonzero;fill:rgb(56.862748%,0.392157%,20.392157%);fill-opacity:1;" d="M 49.5 12.5 C 49.664062 12.828125 49.828125 13.160156 50 13.5 C 50.4375 13.496094 50.871094 13.488281 51.320312 13.484375 C 52.953125 13.46875 54.585938 13.453125 56.214844 13.445312 C 56.921875 13.441406 57.625 13.433594 58.328125 13.425781 C 59.34375 13.414062 60.359375 13.40625 61.375 13.402344 C 61.988281 13.398438 62.597656 13.390625 63.226562 13.386719 C 65.152344 13.507812 66.671875 13.90625 68.5 14.5 C 68.335938 14.996094 68.171875 15.488281 68 16 C 60.410156 16 52.820312 16 45 16 C 45.496094 15.671875 45.988281 15.339844 46.5 15 C 47.515625 14.183594 48.503906 13.339844 49.5 12.5 Z M 49.5 12.5 "/>
<path style=" stroke:none;fill-rule:nonzero;fill:rgb(86.274511%,61.960787%,45.882353%);fill-opacity:1;" d="M 38 27.5 C 38.40625 28.542969 38.8125 29.582031 39.21875 30.625 C 39.558594 31.496094 39.558594 31.496094 39.90625 32.382812 C 40.351562 33.59375 40.730469 34.742188 41 36 C 40.671875 36 40.339844 36 40 36 C 39.246094 35.015625 39.246094 35.015625 38.4375 33.75 C 38.167969 33.332031 37.898438 32.914062 37.621094 32.484375 C 37.417969 32.160156 37.210938 31.835938 37 31.5 C 32.65625 33.488281 28.566406 37.792969 26.195312 41.886719 C 25.96875 42.253906 25.738281 42.621094 25.5 43 C 25.171875 43 24.839844 43 24.5 43 C 26.207031 38.355469 32.332031 27.5 38 27.5 Z M 38 27.5 "/>
<path style=" stroke:none;fill-rule:nonzero;fill:rgb(41.176471%,12.54902%,19.215687%);fill-opacity:1;" d="M 43.5 73.5 C 46 73.5 46 73.5 47 74 C 47.144531 74.402344 47.289062 74.804688 47.4375 75.21875 C 47.886719 76.511719 47.886719 76.511719 48.8125 77.15625 C 51.972656 78.070312 54.339844 77.617188 57.15625 76.078125 C 58.1875 75.371094 58.78125 74.507812 59.5 73.5 C 60.160156 73.5 60.820312 73.5 61.5 73.5 C 62.886719 74.886719 62.699219 75.882812 62.8125 77.8125 C 62.851562 78.40625 62.886719 79 62.925781 79.613281 C 62.949219 80.070312 62.976562 80.527344 63 81 C 61.855469 79.28125 61.910156 78.507812 62 76.5 C 61.726562 76.644531 61.453125 76.789062 61.171875 76.9375 C 55.585938 79.550781 49.707031 78.992188 44 77 C 43.671875 77.660156 43.339844 78.320312 43 79 C 43.164062 77.183594 43.328125 75.371094 43.5 73.5 Z M 43.5 73.5 "/>
<path style=" stroke:none;fill-rule:nonzero;fill:rgb(96.470588%,83.137256%,71.372551%);fill-opacity:1;" d="M 15.5 73.5 C 15.996094 73.5 16.488281 73.5 17 73.5 C 17.042969 75.136719 17.070312 76.769531 17.09375 78.40625 C 17.113281 79.101562 17.113281 79.101562 17.132812 79.8125 C 17.140625 80.484375 17.140625 80.484375 17.148438 81.164062 C 17.160156 81.78125 17.160156 81.78125 17.171875 82.410156 C 17 83.5 17 83.5 16.324219 84.402344 C 15.5 85 15.5 85 14.1875 84.875 C 13 84.5 13 84.5 12.5 84 C 12.320312 81.28125 12.28125 80.132812 14 78 C 14.179688 76.835938 14.347656 75.667969 14.5 74.5 C 14.828125 74.171875 15.160156 73.839844 15.5 73.5 Z M 15.5 73.5 "/>
<path style=" stroke:none;fill-rule:nonzero;fill:rgb(4.313726%,1.176471%,2.352941%);fill-opacity:1;" d="M 87 17 C 87.164062 17 87.328125 17 87.5 17 C 87.691406 20.667969 87.691406 20.667969 86.65625 22.46875 C 85.78125 24.511719 86.324219 25.410156 87.113281 27.40625 C 87.605469 28.800781 87.613281 30.035156 87.5 31.5 C 87.792969 31.609375 88.082031 31.714844 88.382812 31.828125 C 90.964844 33.386719 92.496094 36.917969 93.390625 39.71875 C 93.851562 42.625 93.1875 45.335938 92 48 C 90.90625 49.3125 90.90625 49.3125 90 50 C 90 48.398438 90.222656 47.988281 91 46.65625 C 92.273438 44.175781 92.402344 42.199219 91.765625 39.5 C 90.890625 36.820312 89.371094 34.59375 87.5 32.5 C 87.171875 32.335938 86.839844 32.171875 86.5 32 C 86.234375 31 86.011719 29.984375 85.8125 28.96875 C 85.214844 26.179688 84.40625 23.972656 83 21.5 C 83.660156 21.664062 84.320312 21.828125 85 22 C 86.09375 20.332031 86.71875 18.980469 87 17 Z M 87 17 "/>
<path style=" stroke:none;fill-rule:nonzero;fill:rgb(58.039218%,0.392157%,21.176471%);fill-opacity:1;" d="M 38 14 C 38.269531 14.164062 38.535156 14.328125 38.8125 14.5 C 40.269531 15.113281 41.433594 15.070312 43 15 C 43.164062 14.671875 43.328125 14.339844 43.5 14 C 43.996094 14.164062 44.488281 14.328125 45 14.5 C 45 14.828125 45 15.160156 45 15.5 C 41.527344 16.882812 38.058594 17.890625 34.433594 18.742188 C 31.988281 19.335938 29.738281 20.125 27.460938 21.179688 C 26.5 21.5 26.5 21.5 25 21 C 25 20.671875 25 20.339844 25 20 C 29.355469 17.746094 33.75 16.566406 38.5 15.5 C 38.335938 15.003906 38.171875 14.511719 38 14 Z M 38 14 "/>
<path style=" stroke:none;fill-rule:nonzero;fill:rgb(9.019608%,8.627451%,6.666667%);fill-opacity:1;" d="M 65.859375 35.855469 C 68.542969 36.195312 70.523438 37.75 72.5 39.5 C 72.664062 39.828125 72.828125 40.160156 73 40.5 C 72.835938 40.828125 72.671875 41.160156 72.5 41.5 C 72.996094 41.664062 73.488281 41.828125 74 42 C 73.503906 42.246094 73.503906 42.246094 73 42.5 C 72.796875 43.660156 72.628906 44.828125 72.5 46 C 72.335938 46 72.171875 46 72 46 C 71.949219 45.664062 71.902344 45.324219 71.851562 44.976562 C 71.316406 41.519531 71.316406 41.519531 69 39 C 69 39.824219 69 40.648438 69 41.5 C 68.578125 41.085938 68.15625 40.675781 67.71875 40.25 C 66.335938 39.078125 66 39 64.0625 38.84375 C 63.546875 38.894531 63.03125 38.945312 62.5 39 C 62.5 38.671875 62.5 38.339844 62.5 38 C 62.003906 37.835938 61.511719 37.671875 61 37.5 C 62.496094 35.703125 63.628906 35.777344 65.859375 35.855469 Z M 65.859375 35.855469 "/>
<path style=" stroke:none;fill-rule:nonzero;fill:rgb(32.549021%,7.843138%,16.078432%);fill-opacity:1;" d="M 52.71875 4.804688 C 53.78125 4.8125 54.84375 4.804688 55.90625 4.792969 C 60.457031 4.789062 65.351562 4.925781 69.5 7 C 69.664062 6.503906 69.828125 6.011719 70 5.5 C 70.105469 9.023438 70.039062 12.121094 69 15.5 C 68.835938 15.5 68.671875 15.5 68.5 15.5 C 68.785156 12.824219 69.105469 10.160156 69.5 7.5 C 68.574219 7.34375 67.644531 7.1875 66.71875 7.03125 C 66.203125 6.945312 65.6875 6.855469 65.152344 6.765625 C 64.335938 6.636719 64.335938 6.636719 63.5 6.5 C 62.996094 6.40625 62.496094 6.316406 61.976562 6.21875 C 59.035156 5.890625 56.113281 5.929688 53.15625 5.9375 C 52.542969 5.9375 51.933594 5.933594 51.304688 5.929688 C 50.71875 5.933594 50.128906 5.933594 49.523438 5.933594 C 48.726562 5.933594 48.726562 5.933594 47.910156 5.933594 C 46.675781 5.992188 45.660156 6.074219 44.5 6.5 C 44.335938 6.828125 44.171875 7.160156 44 7.5 C 43.671875 7.5 43.339844 7.5 43 7.5 C 43 7.171875 43 6.839844 43 6.5 C 42.402344 6.6875 41.808594 6.871094 41.191406 7.0625 C 40.410156 7.304688 39.628906 7.542969 38.84375 7.78125 C 38.449219 7.90625 38.058594 8.027344 37.652344 8.15625 C 37.273438 8.269531 36.894531 8.382812 36.503906 8.5 C 36.15625 8.609375 35.808594 8.714844 35.449219 8.828125 C 34.5 9 34.5 9 33 8.5 C 39.492188 5.890625 45.765625 4.742188 52.71875 4.804688 Z M 52.71875 4.804688 "/>
<path style=" stroke:none;fill-rule:nonzero;fill:rgb(19.607843%,36.078432%,14.117648%);fill-opacity:1;" d="M 60.5 37 C 61.160156 37.328125 61.820312 37.660156 62.5 38 C 62.5 38.328125 62.5 38.660156 62.5 39 C 63.160156 39.164062 63.820312 39.328125 64.5 39.5 C 64.542969 41.421875 64.417969 43.125 64 45 C 64 45.328125 64 45.660156 64 46 C 63.671875 46 63.339844 46 63 46 C 62.503906 47.238281 62.503906 47.238281 62 48.5 C 61 47.5 61 47.5 60.867188 45.941406 C 60.871094 45.320312 60.871094 44.703125 60.875 44.0625 C 60.871094 43.136719 60.871094 43.136719 60.867188 42.191406 C 60.988281 40.640625 61.179688 39.792969 62 38.5 C 60.472656 39.367188 59.183594 40.191406 58 41.5 C 58.546875 39.613281 58.953125 38.265625 60.5 37 Z M 60.5 37 "/>
<path style=" stroke:none;fill-rule:nonzero;fill:rgb(10.196079%,7.450981%,7.843138%);fill-opacity:1;" d="M 87.5 41.5 C 87.664062 41.5 87.828125 41.5 88 41.5 C 88.164062 43.480469 88.328125 45.460938 88.5 47.5 C 89.324219 47.335938 90.148438 47.171875 91 47 C 90.121094 50.339844 88.417969 54.054688 85.5 56 C 85.5 55.671875 85.5 55.339844 85.5 55 C 85.171875 54.671875 84.839844 54.339844 84.5 54 C 85.8125 51.5625 85.8125 51.5625 87.5 51 C 87.335938 50.503906 87.171875 50.011719 87 49.5 C 86.671875 49.5 86.339844 49.5 86 49.5 C 85.835938 48.179688 85.671875 46.859375 85.5 45.5 C 85.664062 45.828125 85.828125 46.160156 86 46.5 C 86.496094 46.5 86.988281 46.5 87.5 46.5 C 87.5 44.851562 87.5 43.199219 87.5 41.5 Z M 87.5 41.5 "/>
<path style=" stroke:none;fill-rule:nonzero;fill:rgb(10.196079%,1.960784%,4.313726%);fill-opacity:1;" d="M 47 1.5 C 47.328125 1.828125 47.660156 2.160156 48 2.5 C 47.605469 2.550781 47.210938 2.597656 46.804688 2.648438 C 38.652344 3.769531 31.066406 6.214844 25 12 C 25 10.5 25 10.5 25.9375 9.34375 C 31.3125 4.328125 39.632812 0.984375 47 1.5 Z M 47 1.5 "/>
<path style=" stroke:none;fill-rule:nonzero;fill:rgb(3.529412%,3.137255%,2.745098%);fill-opacity:1;" d="M 28 66.5 C 31.359375 67.59375 34.683594 68.777344 38 70 C 38 70.164062 38 70.328125 38 70.5 C 34.589844 70.285156 32.042969 69.546875 29 68 C 28.933594 71.796875 29.058594 75.546875 29.367188 79.328125 C 29.484375 80.90625 29.507812 81.980469 29 83.5 C 28.671875 83.335938 28.339844 83.171875 28 83 C 27.253906 72.128906 27.253906 72.128906 27.5 67 C 27.664062 66.835938 27.828125 66.671875 28 66.5 Z M 28 66.5 "/>
<path style=" stroke:none;fill-rule:nonzero;fill:rgb(38.82353%,80.392158%,72.941178%);fill-opacity:1;" d="M 90 35 C 90.164062 35.496094 90.328125 35.988281 90.5 36.5 C 90.117188 36.601562 89.738281 36.707031 89.34375 36.8125 C 87.589844 37.710938 87.238281 38.714844 86.5 40.5 C 86.171875 40.5 85.839844 40.5 85.5 40.5 C 85.335938 41.984375 85.171875 43.46875 85 45 C 84.503906 45 84.011719 45 83.5 45 C 83.277344 41.507812 83.683594 39.023438 85.5 36 C 87.011719 34.34375 87.898438 34.359375 90 35 Z M 90 35 "/>
<path style=" stroke:none;fill-rule:nonzero;fill:rgb(23.921569%,71.764708%,61.960787%);fill-opacity:1;" d="M 70 5.5 C 72.5 6.5 72.5 6.5 73 7 C 73.0625 7.875 73.089844 8.75 73.09375 9.625 C 73.101562 10.101562 73.109375 10.578125 73.117188 11.070312 C 72.996094 12.5625 72.625 13.648438 72 15 C 71.175781 15 70.351562 15 69.5 15 C 69.664062 11.863281 69.828125 8.730469 70 5.5 Z M 70 5.5 "/>
<path style=" stroke:none;fill-rule:nonzero;fill:rgb(97.647059%,45.882353%,58.823532%);fill-opacity:1;" d="M 53.5 85 C 55.179688 87.136719 55.535156 88.210938 56 91 C 53.855469 91 51.710938 91 49.5 91 C 51.324219 85 51.324219 85 53.5 85 Z M 53.5 85 "/>
<path style=" stroke:none;fill-rule:nonzero;fill:rgb(17.254902%,43.529412%,35.294119%);fill-opacity:1;" d="M 84 37.5 C 84.59375 39.285156 84.367188 40.253906 84.03125 42.09375 C 83.933594 42.636719 83.835938 43.179688 83.734375 43.742188 C 83.660156 44.15625 83.582031 44.570312 83.5 45 C 83.996094 45 84.488281 45 85 45 C 85.164062 43.515625 85.328125 42.03125 85.5 40.5 C 85.664062 40.5 85.828125 40.5 86 40.5 C 86 43.46875 86 46.441406 86 49.5 C 86.328125 49.5 86.660156 49.5 87 49.5 C 87.328125 50.160156 87.660156 50.820312 88 51.5 C 87.503906 51.5 87.011719 51.5 86.5 51.5 C 86.335938 51.171875 86.171875 50.839844 86 50.5 C 85.671875 50.828125 85.339844 51.160156 85 51.5 C 82.984375 49.082031 82.476562 46.378906 82.515625 43.261719 C 82.710938 41.191406 83.085938 39.386719 84 37.5 Z M 84 37.5 "/>
<path style=" stroke:none;fill-rule:nonzero;fill:rgb(56.078434%,12.156863%,26.274511%);fill-opacity:1;" d="M 73.5 6.5 C 78.367188 8.289062 81.847656 10.214844 85.5 14 C 85.335938 14.328125 85.171875 14.660156 85 15 C 84.578125 14.730469 84.15625 14.457031 83.71875 14.179688 C 80.738281 12.289062 77.886719 10.5625 74.5 9.5 C 74.171875 9.828125 73.839844 10.160156 73.5 10.5 C 73.5 9.179688 73.5 7.859375 73.5 6.5 Z M 73.5 6.5 "/>
<path style=" stroke:none;fill-rule:nonzero;fill:rgb(11.372549%,10.980392%,10.980392%);fill-opacity:1;" d="M 82 57.5 C 82 59.628906 81.023438 60.371094 79.628906 61.90625 C 75.699219 65.71875 71.050781 69.039062 65.5 69.5 C 66.117188 68.269531 66.554688 68.144531 67.78125 67.5625 C 68.261719 67.332031 68.261719 67.332031 68.75 67.097656 C 69.464844 66.757812 70.179688 66.417969 70.902344 66.09375 C 73.511719 64.875 75.550781 63.351562 77.6875 61.4375 C 77.996094 61.167969 78.300781 60.898438 78.617188 60.625 C 79.777344 59.605469 80.910156 58.589844 82 57.5 Z M 82 57.5 "/>
<path style=" stroke:none;fill-rule:nonzero;fill:rgb(36.470589%,30.980393%,23.137255%);fill-opacity:1;" d="M 56.5 70 C 56.664062 70.496094 56.828125 70.988281 57 71.5 C 57.660156 71.5 58.320312 71.5 59 71.5 C 59 72.324219 59 73.148438 59 74 C 58.835938 73.503906 58.671875 73.011719 58.5 72.5 C 57.742188 72.746094 57.742188 72.746094 56.96875 73 C 55.117188 73.53125 53.429688 73.617188 51.5 73.5 C 51.335938 73.335938 51.171875 73.171875 51 73 C 50.328125 72.882812 49.648438 72.792969 48.96875 72.71875 C 48.320312 72.648438 47.667969 72.574219 47 72.5 C 50.136719 70.800781 52.917969 69.777344 56.5 70 Z M 56.5 70 "/>
<path style=" stroke:none;fill-rule:nonzero;fill:rgb(10.980392%,10.196079%,8.627451%);fill-opacity:1;" d="M 35.5 48 C 39.183594 49.367188 39.183594 49.367188 40 51 C 39.671875 50.917969 39.339844 50.835938 39 50.75 C 35.335938 50.140625 32.847656 50.566406 29.5 52 C 29.003906 52.164062 28.511719 52.328125 28 52.5 C 28.101562 50.660156 28.390625 50.097656 29.78125 48.84375 C 31.777344 47.863281 33.335938 47.589844 35.5 48 Z M 35.5 48 "/>
<path style=" stroke:none;fill-rule:nonzero;fill:rgb(15.294118%,12.54902%,9.803922%);fill-opacity:1;" d="M 68 75 C 70.625 77.851562 72.046875 81.113281 73.4375 84.6875 C 73.636719 85.1875 73.839844 85.683594 74.046875 86.195312 C 75.5 89.839844 75.5 89.839844 75.5 91 C 75.171875 91 74.839844 91 74.5 91 C 74.136719 90.125 73.769531 89.25 73.40625 88.375 C 73.175781 87.828125 72.949219 87.28125 72.710938 86.71875 C 72.253906 85.617188 71.808594 84.503906 71.382812 83.390625 C 69.691406 78.925781 69.691406 78.925781 66.5 75.5 C 65.011719 74.960938 63.570312 74.671875 62 74.5 C 61.835938 74.996094 61.671875 75.488281 61.5 76 C 61.5 75.339844 61.5 74.679688 61.5 74 C 64.222656 73.402344 65.691406 73.378906 68 75 Z M 68 75 "/>
<path style=" stroke:none;fill-rule:nonzero;fill:rgb(56.078434%,0.392157%,20%);fill-opacity:1;" d="M 72.5 15 C 74.09375 15.621094 75.6875 16.246094 77.28125 16.875 C 77.730469 17.050781 78.175781 17.222656 78.636719 17.402344 C 81.230469 18.425781 83.617188 19.550781 86 21 C 85.503906 21.496094 85.011719 21.988281 84.5 22.5 C 84.015625 22.148438 83.53125 21.796875 83.03125 21.4375 C 79.667969 19.308594 75.753906 18.242188 72 17 C 72.164062 16.339844 72.328125 15.679688 72.5 15 Z M 72.5 15 "/>
<path style=" stroke:none;fill-rule:nonzero;fill:rgb(76.078433%,54.901963%,40.392157%);fill-opacity:1;" d="M 54.5 25.5 C 55.601562 26.128906 56.707031 26.757812 57.84375 27.40625 C 58.1875 27.601562 58.527344 27.796875 58.882812 27.996094 C 59.757812 28.496094 60.628906 28.996094 61.5 29.5 C 61.988281 29.78125 62.476562 30.0625 62.976562 30.351562 C 63.316406 30.5625 63.652344 30.777344 64 31 C 64 31.164062 64 31.328125 64 31.5 C 60.398438 31.757812 58.125 30.167969 55 28.5 C 55 31.46875 55 34.441406 55 37.5 C 54.835938 37.5 54.671875 37.5 54.5 37.5 C 54.5 33.539062 54.5 29.578125 54.5 25.5 Z M 54.5 25.5 "/>
<path style=" stroke:none;fill-rule:nonzero;fill:rgb(88.235295%,63.529414%,47.450981%);fill-opacity:1;" d="M 77 55 C 77.660156 55.660156 78.320312 56.320312 79 57 C 75.828125 60.8125 72.523438 64.328125 68 66.5 C 67.671875 66.335938 67.339844 66.171875 67 66 C 67.320312 65.757812 67.640625 65.515625 67.96875 65.265625 C 71.726562 62.355469 75.109375 59.445312 77 55 Z M 77 55 "/>
<path style=" stroke:none;fill-rule:nonzero;fill:rgb(99.607843%,65.490198%,53.333336%);fill-opacity:1;" d="M 72.5 53 C 72.996094 53.328125 73.488281 53.660156 74 54 C 73.5 55.5 73.5 55.5 72.46875 56.09375 C 70.574219 56.617188 68.964844 56.566406 67 56.5 C 66.835938 55.839844 66.671875 55.179688 66.5 54.5 C 68.386719 52.613281 69.96875 52.800781 72.5 53 Z M 72.5 53 "/>
<path style=" stroke:none;fill-rule:nonzero;fill:rgb(11.764706%,8.235294%,9.803922%);fill-opacity:1;" d="M 70.5 4.5 C 72.1875 4.773438 73.042969 5.027344 74.5 6 C 74.171875 6 73.839844 6 73.5 6 C 73.511719 6.464844 73.523438 6.929688 73.535156 7.40625 C 73.625 13.546875 73.625 13.546875 72.5 16.5 C 75.34375 17.757812 78.234375 18.839844 81.152344 19.90625 C 82.5 20.5 82.5 20.5 83 21.5 C 82.421875 21.304688 81.84375 21.109375 81.25 20.90625 C 77.683594 19.714844 74.089844 18.613281 70.5 17.5 C 70.828125 17.335938 71.160156 17.171875 71.5 17 C 72.707031 13.792969 72.613281 10.371094 72.5 7 C 71.839844 6.671875 71.179688 6.339844 70.5 6 C 70.5 5.503906 70.5 5.011719 70.5 4.5 Z M 70.5 4.5 "/>
<path style=" stroke:none;fill-rule:nonzero;fill:rgb(92.156863%,76.862746%,92.941177%);fill-opacity:1;" d="M 43.5 7 C 44.984375 8.421875 45.476562 9.0625 45.59375 11.1875 C 45.507812 12.835938 45.371094 13.640625 44.5 15 C 42.074219 12.9375 42.074219 12.9375 41.75 11 C 42.023438 9.355469 42.542969 8.355469 43.5 7 Z M 43.5 7 "/>
<path style=" stroke:none;fill-rule:nonzero;fill:rgb(52.941179%,52.549022%,52.156866%);fill-opacity:1;" d="M 86 50 C 86.5 51.5 86.5 51.5 86.160156 52.472656 C 84.109375 56.210938 81.164062 59.734375 77.5 62 C 77.003906 61.835938 76.511719 61.671875 76 61.5 C 76.46875 61.046875 76.941406 60.59375 77.425781 60.125 C 82.222656 55.480469 82.222656 55.480469 86 50 Z M 86 50 "/>
<path style=" stroke:none;fill-rule:nonzero;fill:rgb(78.431374%,60.392159%,47.058824%);fill-opacity:1;" d="M 60.5 32 C 65.894531 31.066406 70.660156 34.101562 74.996094 37 C 76 38 76 38 76.132812 39.070312 C 75.921875 40.046875 75.710938 41.023438 75.5 42 C 74.839844 42 74.179688 42 73.5 42 C 73.996094 41.835938 74.488281 41.671875 75 41.5 C 74.851562 40.023438 74.742188 39.257812 74 38 C 72.28125 36.757812 70.414062 35.898438 68.5 35 C 67.800781 34.613281 67.105469 34.230469 66.40625 33.84375 C 64.453125 32.871094 62.664062 32.65625 60.5 32.5 C 60.5 32.335938 60.5 32.171875 60.5 32 Z M 60.5 32 "/>
<path style=" stroke:none;fill-rule:nonzero;fill:rgb(80.392158%,58.823532%,85.09804%);fill-opacity:1;" d="M 51 8.5 C 50.875 11.074219 49.996094 12.449219 48.316406 14.292969 C 47.261719 15.207031 46.386719 15.460938 45 15.5 C 45.671875 12.746094 47.015625 10.957031 49 9 C 50 8.5 50 8.5 51 8.5 Z M 51 8.5 "/>
<path style=" stroke:none;fill-rule:nonzero;fill:rgb(96.862745%,45.490196%,58.431375%);fill-opacity:1;" d="M 61 86 C 61 87.648438 61 89.300781 61 91 C 59.515625 91 58.03125 91 56.5 91 C 56.5 90.011719 56.5 89.019531 56.5 88 C 59.875 86 59.875 86 61 86 Z M 61 86 "/>
<path style=" stroke:none;fill-rule:nonzero;fill:rgb(5.882353%,4.705882%,4.313726%);fill-opacity:1;" d="M 19.5 69 C 19.429688 70.886719 19.355469 72.769531 19.28125 74.65625 C 19.261719 75.191406 19.242188 75.726562 19.222656 76.28125 C 19.199219 76.792969 19.179688 77.308594 19.15625 77.835938 C 19.140625 78.3125 19.121094 78.785156 19.101562 79.273438 C 19 80.5 19 80.5 18.5 82 C 18.171875 82 17.839844 82 17.5 82 C 16.761719 80.523438 16.96875 79.128906 17 77.5 C 17.328125 77.5 17.660156 77.5 18 77.5 C 17.835938 77.171875 17.671875 76.839844 17.5 76.5 C 17.4375 74.96875 17.4375 74.96875 17.5 73.5 C 17.664062 73.335938 17.828125 73.171875 18 73 C 18.019531 71.832031 18.019531 70.667969 18 69.5 C 19 69 19 69 19.5 69 Z M 19.5 69 "/>
<path style=" stroke:none;fill-rule:nonzero;fill:rgb(53.725493%,32.156864%,30.980393%);fill-opacity:1;" d="M 58.5 57.5 C 59 58 59 58 59.046875 58.921875 C 59.03125 59.949219 59.015625 60.976562 59 62 C 58.835938 62 58.671875 62 58.5 62 C 58.5 60.84375 58.5 59.691406 58.5 58.5 C 52.8125 58.671875 52.8125 58.671875 47.5 60.5 C 46.339844 61.910156 45.832031 63.214844 45.5 65 C 44.421875 63.382812 44.132812 62.878906 44.5 61 C 47.964844 57.632812 53.894531 57.191406 58.5 57.5 Z M 58.5 57.5 "/>
<path style=" stroke:none;fill-rule:nonzero;fill:rgb(12.54902%,9.803922%,7.450981%);fill-opacity:1;" d="M 3.5 82 C 3.855469 82.542969 3.855469 82.542969 4.21875 83.09375 C 6.898438 86.035156 9.9375 87.082031 13.78125 87.703125 C 15.761719 88.1875 17.414062 89.226562 19 90.5 C 19 90.664062 19 90.828125 19 91 C 17.84375 91 16.691406 91 15.5 91 C 15.5 90.503906 15.5 90.011719 15.5 89.5 C 15.089844 89.425781 14.675781 89.351562 14.253906 89.277344 C 10.472656 88.519531 6.945312 87.613281 4 85 C 3.4375 83.3125 3.4375 83.3125 3.5 82 Z M 3.5 82 "/>
<path style=" stroke:none;fill-rule:nonzero;fill:rgb(96.078432%,45.09804%,58.039218%);fill-opacity:1;" d="M 44.5 86 C 47.875 87.375 47.875 87.375 49 88.5 C 49.0625 89.8125 49.0625 89.8125 49 91 C 47.515625 91 46.03125 91 44.5 91 C 44.5 89.351562 44.5 87.699219 44.5 86 Z M 44.5 86 "/>
<path style=" stroke:none;fill-rule:nonzero;fill:rgb(22.352941%,68.235296%,58.431375%);fill-opacity:1;" d="M 24 13.5 C 24 15.976562 24 18.449219 24 21 C 23.339844 21.164062 22.679688 21.328125 22 21.5 C 21.589844 20.050781 21.40625 18.722656 21.375 17.21875 C 21.363281 16.835938 21.347656 16.453125 21.335938 16.0625 C 21.585938 14.453125 22.324219 13.5 24 13.5 Z M 24 13.5 "/>
<path style=" stroke:none;fill-rule:nonzero;fill:rgb(91.37255%,76.862746%,91.764706%);fill-opacity:1;" d="M 37 11 C 38.757812 11.035156 40.046875 11.101562 41.398438 12.296875 C 43.5 14.746094 43.5 14.746094 43.5 15.5 C 41.304688 15.714844 40.335938 15.761719 38.5625 14.375 C 37.621094 13.15625 37.167969 12.503906 37 11 Z M 37 11 "/>
<path style=" stroke:none;fill-rule:nonzero;fill:rgb(47.058824%,12.54902%,22.352941%);fill-opacity:1;" d="M 59.5 73.5 C 60.160156 73.5 60.820312 73.5 61.5 73.5 C 62.886719 74.886719 62.699219 75.882812 62.8125 77.8125 C 62.851562 78.40625 62.886719 79 62.925781 79.613281 C 62.960938 80.300781 62.960938 80.300781 63 81 C 61.855469 79.28125 61.910156 78.507812 62 76.5 C 61.664062 76.648438 61.324219 76.800781 60.976562 76.953125 C 60.53125 77.144531 60.085938 77.335938 59.625 77.53125 C 59.183594 77.722656 58.742188 77.914062 58.289062 78.109375 C 56.921875 78.523438 56.316406 78.488281 55 78 C 55.464844 77.8125 55.929688 77.628906 56.40625 77.4375 C 58.261719 76.34375 58.714844 75.464844 59.5 73.5 Z M 59.5 73.5 "/>
<path style=" stroke:none;fill-rule:nonzero;fill:rgb(96.078432%,60.784316%,74.901962%);fill-opacity:1;" d="M 90.5 36.5 C 89.992188 38.023438 89.613281 38.433594 88.5 39.5 C 87.824219 40.851562 87.832031 42.058594 87.71875 43.5625 C 87.675781 44.109375 87.636719 44.65625 87.59375 45.222656 C 87.5625 45.644531 87.53125 46.066406 87.5 46.5 C 87.003906 46.5 86.511719 46.5 86 46.5 C 85.777344 42.742188 85.679688 40.070312 88 37 C 89 36.5 89 36.5 90.5 36.5 Z M 90.5 36.5 "/>
<path style=" stroke:none;fill-rule:nonzero;fill:rgb(5.490196%,6.27451%,4.313726%);fill-opacity:1;" d="M 85.5 31 C 85.5 31.164062 85.5 31.328125 85.5 31.5 C 84.890625 31.613281 84.28125 31.726562 83.65625 31.84375 C 81.445312 32.421875 80.394531 33.117188 79 35 C 78.070312 36.964844 77.261719 38.964844 76.5 41 C 76.335938 41 76.171875 41 76 41 C 75.929688 40.484375 75.855469 39.96875 75.78125 39.4375 C 75.144531 37.082031 73.445312 36.238281 71.449219 35.03125 C 71.136719 34.855469 70.824219 34.679688 70.5 34.5 C 70.828125 34.335938 71.160156 34.171875 71.5 34 C 72.691406 34.609375 72.691406 34.609375 74.0625 35.46875 C 74.515625 35.75 74.972656 36.035156 75.441406 36.328125 C 75.789062 36.546875 76.140625 36.769531 76.5 37 C 76.789062 36.539062 76.789062 36.539062 77.085938 36.070312 C 77.347656 35.664062 77.605469 35.261719 77.875 34.84375 C 78.128906 34.445312 78.386719 34.042969 78.648438 33.632812 C 80.71875 30.878906 82.238281 30.835938 85.5 31 Z M 85.5 31 "/>
<path style=" stroke:none;fill-rule:nonzero;fill:rgb(94.509804%,92.54902%,89.803922%);fill-opacity:1;" d="M 60.5 42 C 60.519531 42.289062 60.539062 42.578125 60.554688 42.878906 C 60.769531 45.425781 61.230469 47.238281 62.5 49.5 C 62.5 49.828125 62.5 50.160156 62.5 50.5 C 61.625 50.46875 61.625 50.46875 60.5 50 C 58.800781 47.636719 58.089844 45.984375 58.5 43 C 60 42 60 42 60.5 42 Z M 60.5 42 "/>
<path style=" stroke:none;fill-rule:nonzero;fill:rgb(99.607843%,63.921571%,52.156866%);fill-opacity:1;" d="M 29.082031 56.402344 C 29.691406 56.417969 29.691406 56.417969 30.3125 56.4375 C 30.925781 56.449219 30.925781 56.449219 31.550781 56.464844 C 32.019531 56.480469 32.019531 56.480469 32.5 56.5 C 32.664062 57.160156 32.828125 57.820312 33 58.5 C 31.183594 59.664062 29.613281 59.582031 27.5 59.5 C 27.1875 58.5625 27.1875 58.5625 27 57.5 C 28 56.5 28 56.5 29.082031 56.402344 Z M 29.082031 56.402344 "/>
<path style=" stroke:none;fill-rule:nonzero;fill:rgb(85.882354%,62.7451%,47.058824%);fill-opacity:1;" d="M 39.5 83 C 39.828125 83.328125 40.160156 83.660156 40.5 84 C 38.664062 86.902344 36.527344 89.292969 33.5 91 C 32.109375 91.09375 32.109375 91.09375 31 91 C 32.335938 89.613281 33.707031 88.425781 35.25 87.28125 C 36.929688 85.996094 38.28125 84.75 39.5 83 Z M 39.5 83 "/>
<path style=" stroke:none;fill-rule:nonzero;fill:rgb(49.803922%,49.019608%,49.019608%);fill-opacity:1;" d="M 75.5 61.5 C 75.996094 61.828125 76.488281 62.160156 77 62.5 C 70.519531 67.867188 70.519531 67.867188 66.5 67.5 C 66.5 67.171875 66.5 66.839844 66.5 66.5 C 68.449219 65.507812 70.375 64.535156 72.40625 63.71875 C 73.796875 63.09375 74.558594 62.664062 75.5 61.5 Z M 75.5 61.5 "/>
<path style=" stroke:none;fill-rule:nonzero;fill:rgb(38.82353%,84.705883%,27.058825%);fill-opacity:1;" d="M 64.472656 46.902344 C 65.480469 46.933594 66.492188 46.96875 67.5 47 C 67.664062 47.660156 67.828125 48.320312 68 49 C 66.835938 50.078125 66.304688 50.507812 64.6875 50.46875 C 63.5 50 63.5 50 62.84375 48.96875 C 62.730469 48.648438 62.617188 48.328125 62.5 48 C 63.5 47 63.5 47 64.472656 46.902344 Z M 64.472656 46.902344 "/>
<path style=" stroke:none;fill-rule:nonzero;fill:rgb(1.960784%,3.921569%,1.176471%);fill-opacity:1;" d="M 65 40.5 C 65.496094 40.664062 65.988281 40.828125 66.5 41 C 66.5 42.648438 66.5 44.300781 66.5 46 C 65.511719 46.496094 65.511719 46.496094 64.5 47 C 63.742188 45.796875 63.480469 45.183594 63.625 43.75 C 63.976562 42.574219 64.40625 41.570312 65 40.5 Z M 65 40.5 "/>
<path style=" stroke:none;fill-rule:nonzero;fill:rgb(93.333334%,91.764706%,89.019608%);fill-opacity:1;" d="M 70 42 C 71.195312 43.246094 71.492188 43.949219 71.71875 45.6875 C 71.457031 47.839844 70.929688 48.878906 69.5 50.5 C 68.179688 50.832031 68.179688 50.832031 67 51 C 67.175781 50.726562 67.347656 50.453125 67.53125 50.171875 C 69.21875 47.375 69.84375 45.265625 70 42 Z M 70 42 "/>
<path style=" stroke:none;fill-rule:nonzero;fill:rgb(33.725491%,34.117648%,33.725491%);fill-opacity:1;" d="M 42.5 27.5 C 43.832031 28.746094 44.777344 29.816406 45.5 31.5 C 45.664062 30.675781 45.828125 29.851562 46 29 C 47.25 30.085938 47.71875 30.863281 48 32.5 C 47.671875 32.5 47.339844 32.5 47 32.5 C 46.835938 32.828125 46.671875 33.160156 46.5 33.5 C 46.003906 33.335938 45.511719 33.171875 45 33 C 44.835938 32.671875 44.671875 32.339844 44.5 32 C 44.003906 32.742188 44.003906 32.742188 43.5 33.5 C 42.5 31.441406 42.410156 29.773438 42.5 27.5 Z M 42.5 27.5 "/>
<path style=" stroke:none;fill-rule:nonzero;fill:rgb(12.941177%,10.588235%,9.019608%);fill-opacity:1;" d="M 39.5 73 C 40.160156 73.328125 40.820312 73.660156 41.5 74 C 41.054688 74.203125 40.609375 74.40625 40.152344 74.617188 C 38.523438 75.488281 37.394531 76.390625 36.0625 77.65625 C 33.972656 79.59375 31.820312 81.347656 29.5 83 C 29.5 82.503906 29.5 82.011719 29.5 81.5 C 30.546875 80.507812 30.546875 80.507812 31.96875 79.40625 C 34.5625 77.355469 37.050781 75.21875 39.5 73 Z M 39.5 73 "/>
<path style=" stroke:none;fill-rule:nonzero;fill:rgb(17.254902%,2.745098%,7.450981%);fill-opacity:1;" d="M 21 14 C 21.328125 14 21.660156 14 22 14 C 21.835938 15.816406 21.671875 17.628906 21.5 19.5 C 21.335938 19.5 21.171875 19.5 21 19.5 C 21 18.511719 21 17.519531 21 16.5 C 18.261719 18.402344 16.832031 20.484375 16.125 23.71875 C 16.0625 24.351562 16.0625 24.351562 16 25 C 15.4375 24.1875 15.4375 24.1875 15 23 C 15.566406 20.703125 16.492188 19.179688 18 17.375 C 18.351562 16.949219 18.703125 16.523438 19.0625 16.085938 C 20 15 20 15 21 14 Z M 21 14 "/>
<path style=" stroke:none;fill-rule:nonzero;fill:rgb(54.509807%,1.960784%,20.784314%);fill-opacity:1;" d="M 21.5 19.5 C 21.664062 19.5 21.828125 19.5 22 19.5 C 22.363281 21.019531 22.617188 22.433594 22.5 24 C 21.628906 25.15625 20.734375 25.6875 19.5 26.5 C 19.335938 26.828125 19.171875 27.160156 19 27.5 C 18.175781 27.335938 17.351562 27.171875 16.5 27 C 16.964844 26.433594 17.4375 25.875 17.90625 25.3125 C 18.167969 25 18.429688 24.6875 18.695312 24.363281 C 19.5 23.5 19.5 23.5 21 22.5 C 21.367188 20.96875 21.367188 20.96875 21.5 19.5 Z M 21.5 19.5 "/>
<path style=" stroke:none;fill-rule:nonzero;fill:rgb(12.156863%,5.490196%,7.843138%);fill-opacity:1;" d="M 25 11.5 C 25 15.128906 25 18.761719 25 22.5 C 24.175781 22.664062 23.351562 22.828125 22.5 23 C 22.335938 22.503906 22.171875 22.011719 22 21.5 C 22.496094 21.335938 22.988281 21.171875 23.5 21 C 23.664062 18.523438 23.828125 16.050781 24 13.5 C 23.011719 13.996094 23.011719 13.996094 22 14.5 C 22 14.003906 22 13.511719 22 13 C 23.667969 11.5 23.667969 11.5 25 11.5 Z M 25 11.5 "/>
<path style=" stroke:none;fill-rule:nonzero;fill:rgb(11.764706%,10.196079%,8.627451%);fill-opacity:1;" d="M 77.5 54.5 C 79.234375 55.488281 79.234375 55.488281 81 56.5 C 78.523438 59.644531 75.640625 62.035156 72.5 64.5 C 72.171875 64.335938 71.839844 64.171875 71.5 64 C 71.921875 63.625 72.34375 63.253906 72.777344 62.867188 C 73.332031 62.371094 73.882812 61.871094 74.4375 61.375 C 74.714844 61.128906 74.992188 60.882812 75.28125 60.632812 C 77.292969 58.847656 77.292969 58.847656 78.5 56.5 C 78.109375 55.382812 78.109375 55.382812 77.5 54.5 Z M 77.5 54.5 "/>
<path style=" stroke:none;fill-rule:nonzero;fill:rgb(29.803923%,61.960787%,56.862748%);fill-opacity:1;" d="M 88.84375 34.6875 C 89.226562 34.789062 89.605469 34.894531 90 35 C 90.164062 35.496094 90.328125 35.988281 90.5 36.5 C 90.117188 36.601562 89.738281 36.707031 89.34375 36.8125 C 87.589844 37.710938 87.238281 38.714844 86.5 40.5 C 86 39 86 39 86.5 37.5 C 86.003906 37.5 85.511719 37.5 85 37.5 C 85.832031 35.582031 86.546875 34.367188 88.84375 34.6875 Z M 88.84375 34.6875 "/>
<path style=" stroke:none;fill-rule:nonzero;fill:rgb(50.588238%,11.372549%,29.019609%);fill-opacity:1;" d="M 38 14 C 38.402344 14.246094 38.402344 14.246094 38.8125 14.5 C 40.269531 15.113281 41.433594 15.070312 43 15 C 43.164062 14.671875 43.328125 14.339844 43.5 14 C 43.996094 14.164062 44.488281 14.328125 45 14.5 C 45 14.828125 45 15.160156 45 15.5 C 39.238281 17.796875 39.238281 17.796875 36.5 17.5 C 37.160156 16.839844 37.820312 16.179688 38.5 15.5 C 38.335938 15.003906 38.171875 14.511719 38 14 Z M 38 14 "/>
<path style=" stroke:none;fill-rule:nonzero;fill:rgb(10.588235%,9.411765%,9.019608%);fill-opacity:1;" d="M 66.5 70.5 C 64.683594 71.160156 62.871094 71.820312 61 72.5 C 62.320312 72.828125 63.640625 73.160156 65 73.5 C 65 73.664062 65 73.828125 65 74 C 63.019531 74 61.039062 74 59 74 C 59 73.175781 59 72.351562 59 71.5 C 59.871094 71.136719 60.746094 70.785156 61.625 70.4375 C 62.113281 70.242188 62.597656 70.042969 63.101562 69.839844 C 64.5 69.5 64.5 69.5 66.5 70.5 Z M 66.5 70.5 "/>
<path style=" stroke:none;fill-rule:nonzero;fill:rgb(13.333334%,12.54902%,10.980392%);fill-opacity:1;" d="M 69 37.5 C 69.9375 37.90625 69.9375 37.90625 71 38.5 C 71.371094 38.6875 71.742188 38.871094 72.125 39.0625 C 72.414062 39.207031 72.703125 39.351562 73 39.5 C 72.835938 40.160156 72.671875 40.820312 72.5 41.5 C 72.996094 41.664062 73.488281 41.828125 74 42 C 73.503906 42.246094 73.503906 42.246094 73 42.5 C 72.796875 43.660156 72.628906 44.828125 72.5 46 C 72.335938 46 72.171875 46 72 46 C 71.925781 45.492188 71.925781 45.492188 71.851562 44.976562 C 71.398438 42.144531 71.398438 42.144531 70 39.6875 C 69.066406 38.90625 69.066406 38.90625 68 39 C 68 38.671875 68 38.339844 68 38 C 68.328125 37.835938 68.660156 37.671875 69 37.5 Z M 69 37.5 "/>
<path style=" stroke:none;fill-rule:nonzero;fill:rgb(40.784314%,15.686275%,24.705882%);fill-opacity:1;" d="M 87.5 41.5 C 87.664062 41.5 87.828125 41.5 88 41.5 C 88.164062 43.480469 88.328125 45.460938 88.5 47.5 C 89.324219 47.335938 90.148438 47.171875 91 47 C 90.65625 47.96875 90.65625 47.96875 90 49 C 88.6875 49.375 88.6875 49.375 87.5 49.5 C 87.003906 48.675781 86.511719 47.851562 86 47 C 86.496094 46.835938 86.988281 46.671875 87.5 46.5 C 87.5 44.851562 87.5 43.199219 87.5 41.5 Z M 87.5 41.5 "/>
<path style=" stroke:none;fill-rule:nonzero;fill:rgb(9.019608%,3.529412%,5.490196%);fill-opacity:1;" d="M 91.5 37.5 C 91.828125 37.5 92.160156 37.5 92.5 37.5 C 93.746094 40.941406 93.703125 43.777344 92.3125 47.1875 C 91.617188 48.308594 90.996094 49.144531 90 50 C 90 48.398438 90.222656 47.988281 91 46.65625 C 92.585938 43.605469 92.164062 40.824219 91.5 37.5 Z M 91.5 37.5 "/>
<path style=" stroke:none;fill-rule:nonzero;fill:rgb(71.372551%,69.411767%,67.058825%);fill-opacity:1;" d="M 68.5 38.5 C 70.324219 39.460938 71.234375 40.082031 72 42 C 72.207031 43.179688 72.207031 43.179688 72.3125 44.375 C 72.351562 44.773438 72.386719 45.175781 72.425781 45.585938 C 72.460938 46.039062 72.460938 46.039062 72.5 46.5 C 72.171875 46.5 71.839844 46.5 71.5 46.5 C 71.171875 45.34375 70.839844 44.191406 70.5 43 C 70.335938 44.15625 70.171875 45.308594 70 46.5 C 69.835938 46.5 69.671875 46.5 69.5 46.5 C 69.46875 46.089844 69.4375 45.679688 69.40625 45.257812 C 69.367188 44.71875 69.324219 44.179688 69.28125 43.625 C 69.242188 43.089844 69.199219 42.558594 69.15625 42.007812 C 69.03125 40.78125 68.839844 39.679688 68.5 38.5 Z M 68.5 38.5 "/>
<path style=" stroke:none;fill-rule:nonzero;fill:rgb(61.960787%,47.843137%,36.862746%);fill-opacity:1;" d="M 8.5 78 C 10.082031 78.683594 10.496094 78.996094 11.5 80.5 C 11.5625 81.84375 11.5625 81.84375 11.5 83 C 11.003906 83.164062 10.511719 83.328125 10 83.5 C 9.835938 83.996094 9.671875 84.488281 9.5 85 C 8.859375 85.03125 8.222656 85.0625 7.5625 85.09375 C 7.203125 85.109375 6.84375 85.128906 6.472656 85.148438 C 6.152344 85.097656 5.832031 85.050781 5.5 85 C 5.171875 84.503906 4.839844 84.011719 4.5 83.5 C 5.984375 83.664062 7.46875 83.828125 9 84 C 8.671875 83.175781 8.339844 82.351562 8 81.5 C 9.238281 81.996094 9.238281 81.996094 10.5 82.5 C 9.96875 80.796875 9.496094 79.492188 8.5 78 Z M 8.5 78 "/>
<path style=" stroke:none;fill-rule:nonzero;fill:rgb(9.803922%,9.803922%,9.411765%);fill-opacity:1;" d="M 19 40.5 C 20.25 42.8125 21.5 45.351562 21.5 48 C 21.828125 48 22.160156 48 22.5 48 C 22.335938 48.660156 22.171875 49.320312 22 50 C 21.675781 49.363281 21.351562 48.730469 21.03125 48.09375 C 20.851562 47.738281 20.671875 47.386719 20.484375 47.023438 C 20 46 20 46 19.5 44.5 C 19.335938 45.820312 19.171875 47.140625 19 48.5 C 18.835938 48.5 18.671875 48.5 18.5 48.5 C 18.488281 47.355469 18.476562 46.207031 18.46875 45.0625 C 18.464844 44.425781 18.457031 43.785156 18.453125 43.128906 C 18.5 41.5 18.5 41.5 19 40.5 Z M 19 40.5 "/>
<path style=" stroke:none;fill-rule:nonzero;fill:rgb(71.372551%,69.803923%,67.450982%);fill-opacity:1;" d="M 62 38.5 C 61.671875 41.140625 61.339844 43.78125 61 46.5 C 60.835938 46.5 60.671875 46.5 60.5 46.5 C 60.335938 45.179688 60.171875 43.859375 60 42.5 C 59.339844 42.335938 58.679688 42.171875 58 42 C 60.234375 38.5 60.234375 38.5 62 38.5 Z M 62 38.5 "/>
<path style=" stroke:none;fill-rule:nonzero;fill:rgb(16.862746%,6.666667%,8.235294%);fill-opacity:1;" d="M 39.5 85 C 40.203125 86.410156 39.753906 87.085938 39.28125 88.5625 C 39.136719 89.015625 38.992188 89.472656 38.84375 89.941406 C 38.730469 90.289062 38.617188 90.640625 38.5 91 C 38.171875 91 37.839844 91 37.5 91 C 37.5 90.339844 37.5 89.679688 37.5 89 C 37.117188 89.339844 36.738281 89.679688 36.34375 90.03125 C 35.898438 90.351562 35.457031 90.671875 35 91 C 34.503906 90.835938 34.011719 90.671875 33.5 90.5 C 33.847656 90.230469 34.199219 89.957031 34.558594 89.679688 C 35.011719 89.320312 35.46875 88.960938 35.9375 88.59375 C 36.390625 88.238281 36.84375 87.886719 37.308594 87.523438 C 38.582031 86.523438 38.582031 86.523438 39.5 85 Z M 39.5 85 "/>
<path style=" stroke:none;fill-rule:nonzero;fill:rgb(20%,14.901961%,12.941177%);fill-opacity:1;" d="M 68 75 C 68.921875 75.957031 69.695312 76.9375 70.5 78 C 70.171875 78.328125 69.839844 78.660156 69.5 79 C 69.335938 78.757812 69.171875 78.519531 69 78.269531 C 67.199219 75.878906 65.835938 75.058594 62.878906 74.59375 C 62.589844 74.5625 62.296875 74.53125 62 74.5 C 61.835938 74.996094 61.671875 75.488281 61.5 76 C 61.5 75.339844 61.5 74.679688 61.5 74 C 64.222656 73.402344 65.667969 73.425781 68 75 Z M 68 75 "/>
<path style=" stroke:none;fill-rule:nonzero;fill:rgb(10.980392%,9.411765%,7.843138%);fill-opacity:1;" d="M 37.5 25.5 C 37.828125 25.5 38.160156 25.5 38.5 25.5 C 38.5 26.324219 38.5 27.148438 38.5 28 C 38.230469 28.035156 37.957031 28.070312 37.679688 28.109375 C 36.019531 28.660156 34.957031 29.65625 33.625 30.78125 C 33.132812 31.195312 32.640625 31.609375 32.132812 32.03125 C 31.757812 32.351562 31.386719 32.671875 31 33 C 31 32.503906 31 32.011719 31 31.5 C 31.96875 30.597656 32.925781 29.78125 33.96875 28.96875 C 36.015625 27.480469 36.015625 27.480469 37.5 25.5 Z M 37.5 25.5 "/>
<path style=" stroke:none;fill-rule:nonzero;fill:rgb(31.764707%,32.156864%,31.764707%);fill-opacity:1;" d="M 23 27.5 C 23 27.996094 23 28.488281 23 29 C 23.328125 29.328125 23.660156 29.660156 24 30 C 23.519531 30.5625 23.042969 31.125 22.5625 31.6875 C 22.296875 32 22.027344 32.3125 21.753906 32.636719 C 21.191406 33.277344 20.601562 33.898438 20 34.5 C 20.289062 31.535156 20.878906 29.621094 23 27.5 Z M 23 27.5 "/>
<path style=" stroke:none;fill-rule:nonzero;fill:rgb(1.568628%,3.921569%,3.529412%);fill-opacity:1;" d="M 86.5 28.5 C 86.828125 28.5 87.160156 28.5 87.5 28.5 C 87.5 29.488281 87.5 30.480469 87.5 31.5 C 87.800781 31.625 88.101562 31.746094 88.414062 31.875 C 89.675781 32.601562 90.152344 33.261719 90.90625 34.5 C 91.125 34.851562 91.347656 35.203125 91.570312 35.5625 C 91.714844 35.871094 91.855469 36.179688 92 36.5 C 91.835938 36.828125 91.671875 37.160156 91.5 37.5 C 91.222656 37.144531 90.945312 36.789062 90.660156 36.421875 C 90.296875 35.964844 89.9375 35.503906 89.5625 35.03125 C 89.203125 34.574219 88.84375 34.113281 88.472656 33.640625 C 87.601562 32.46875 87.601562 32.46875 86.5 32 C 86.5 30.84375 86.5 29.691406 86.5 28.5 Z M 86.5 28.5 "/>
<path style=" stroke:none;fill-rule:nonzero;fill:rgb(27.450982%,70.588237%,14.117648%);fill-opacity:1;" d="M 67 43.5 C 67.660156 43.664062 68.320312 43.828125 69 44 C 69.0625 45.4375 69.0625 45.4375 69 47 C 68.671875 47.328125 68.339844 47.660156 68 48 C 66.761719 47.503906 66.761719 47.503906 65.5 47 C 65.996094 45.84375 66.488281 44.691406 67 43.5 Z M 67 43.5 "/>
<path style=" stroke:none;fill-rule:nonzero;fill:rgb(7.058824%,19.607843%,2.745098%);fill-opacity:1;" d="M 62 37.5 C 66.523438 37.1875 66.523438 37.1875 68.34375 38.375 C 69 39.5 69 39.5 68.875 40.625 C 68.75 40.914062 68.628906 41.203125 68.5 41.5 C 68.160156 41.085938 67.820312 40.675781 67.46875 40.25 C 66.078125 38.820312 66.078125 38.820312 64.09375 38.84375 C 63.566406 38.894531 63.042969 38.945312 62.5 39 C 62.335938 38.503906 62.171875 38.011719 62 37.5 Z M 62 37.5 "/>
<path style=" stroke:none;fill-rule:nonzero;fill:rgb(91.764706%,91.37255%,89.019608%);fill-opacity:1;" d="M 63 39 C 63.496094 39.164062 63.988281 39.328125 64.5 39.5 C 64.5 40.488281 64.5 41.480469 64.5 42.5 C 63.53125 42.78125 63.53125 42.78125 62.5 43 C 62 42.5 62 42.5 61.90625 41.28125 C 62 40 62 40 63 39 Z M 63 39 "/>
<path style=" stroke:none;fill-rule:nonzero;fill:rgb(45.490196%,26.274511%,34.509805%);fill-opacity:1;" d="M 44.5 7.5 C 44.828125 7.5 45.160156 7.5 45.5 7.5 C 45.664062 8.324219 45.828125 9.148438 46 10 C 46.988281 9.671875 47.980469 9.339844 49 9 C 48.523438 9.730469 48.042969 10.460938 47.5625 11.1875 C 47.296875 11.59375 47.027344 12 46.753906 12.417969 C 46 13.5 46 13.5 45 14.5 C 45.003906 14.164062 45.011719 13.824219 45.015625 13.476562 C 45.023438 13.03125 45.027344 12.585938 45.03125 12.125 C 45.039062 11.464844 45.039062 11.464844 45.046875 10.789062 C 45.003906 9.609375 44.835938 8.628906 44.5 7.5 Z M 44.5 7.5 "/>
<path style=" stroke:none;fill-rule:nonzero;fill:rgb(85.882354%,65.098041%,50.196081%);fill-opacity:1;" d="M 60.5 32 C 64.121094 31.734375 66.363281 32.140625 69.5 34 C 69.5 34.328125 69.5 34.660156 69.5 35 C 66.683594 34.105469 66.683594 34.105469 65.5625 33.46875 C 63.921875 32.746094 62.28125 32.679688 60.5 32.5 C 60.5 32.335938 60.5 32.171875 60.5 32 Z M 60.5 32 "/>
<path style=" stroke:none;fill-rule:nonzero;fill:rgb(91.764706%,49.019608%,65.098041%);fill-opacity:1;" d="M 86 40.5 C 86.164062 40.996094 86.328125 41.488281 86.5 42 C 86.828125 42 87.160156 42 87.5 42 C 87.5 43.484375 87.5 44.96875 87.5 46.5 C 87.003906 46.5 86.511719 46.5 86 46.5 C 86 44.519531 86 42.539062 86 40.5 Z M 86 40.5 "/>
<path style=" stroke:none;fill-rule:nonzero;fill:rgb(93.725491%,79.215688%,93.725491%);fill-opacity:1;" d="M 48.5 9.5 C 48.996094 9.664062 49.488281 9.828125 50 10 C 48.84375 11.484375 47.691406 12.96875 46.5 14.5 C 46 12.5 46 12.5 46.5 11.648438 C 47.164062 10.933594 47.832031 10.214844 48.5 9.5 Z M 48.5 9.5 "/>
<path style=" stroke:none;fill-rule:nonzero;fill:rgb(5.882353%,1.568628%,3.137255%);fill-opacity:1;" d="M 64.5 2.5 C 66.660156 2.753906 68.515625 3.097656 70.5 4 C 70.5 4.496094 70.5 4.988281 70.5 5.5 C 68.992188 5.179688 67.742188 4.675781 66.375 3.96875 C 66.023438 3.789062 65.667969 3.605469 65.304688 3.421875 C 65.039062 3.28125 64.773438 3.144531 64.5 3 C 64.5 2.835938 64.5 2.671875 64.5 2.5 Z M 64.5 2.5 "/>
<path style=" stroke:none;fill-rule:nonzero;fill:rgb(5.490196%,1.176471%,2.352941%);fill-opacity:1;" d="M 47 1.5 C 47.328125 1.828125 47.660156 2.160156 48 2.5 C 44.039062 2.746094 44.039062 2.746094 40 3 C 40.164062 2.671875 40.328125 2.339844 40.5 2 C 42.648438 1.347656 44.777344 1.390625 47 1.5 Z M 47 1.5 "/>
<path style=" stroke:none;fill-rule:nonzero;fill:rgb(19.607843%,17.647059%,14.901961%);fill-opacity:1;" d="M 18.5 73 C 18.003906 73.246094 18.003906 73.246094 17.5 73.5 C 17.519531 74.117188 17.542969 74.738281 17.5625 75.375 C 17.625 77.226562 17.402344 77.695312 16.5 79.5 C 16.664062 77.519531 16.828125 75.539062 17 73.5 C 16.011719 73.996094 15.019531 74.488281 14 75 C 15.132812 72.492188 15.863281 72.375 18.5 73 Z M 18.5 73 "/>
<path style=" stroke:none;fill-rule:nonzero;fill:rgb(7.058824%,5.490196%,4.705882%);fill-opacity:1;" d="M 30.5 67.5 C 32.976562 68.324219 35.449219 69.148438 38 70 C 38 70.164062 38 70.328125 38 70.5 C 35.023438 70.304688 32.6875 69.8125 30 68.5 C 30.164062 68.171875 30.328125 67.839844 30.5 67.5 Z M 30.5 67.5 "/>
<path style=" stroke:none;fill-rule:nonzero;fill:rgb(58.431375%,57.647061%,57.647061%);fill-opacity:1;" d="M 86 50 C 86.5 51.5 86.5 51.5 85.6875 53.28125 C 84.777344 54.972656 83.800781 55.398438 82 56 C 82.570312 55.09375 83.144531 54.1875 83.71875 53.28125 C 84.199219 52.523438 84.199219 52.523438 84.6875 51.75 C 85.5 50.5 85.5 50.5 86 50 Z M 86 50 "/>
<path style=" stroke:none;fill-rule:nonzero;fill:rgb(41.176471%,16.078432%,18.039216%);fill-opacity:1;" d="M 45.5 60 C 45.996094 60 46.488281 60 47 60 C 46.0625 63.875 46.0625 63.875 45.5 65 C 44.425781 63.386719 44.308594 62.867188 44.5 61 C 44.828125 60.671875 45.160156 60.339844 45.5 60 Z M 45.5 60 "/>
<path style=" stroke:none;fill-rule:nonzero;fill:rgb(13.333334%,13.333334%,12.941177%);fill-opacity:1;" d="M 82 57.5 C 82 59.292969 81.667969 59.554688 80.5 60.84375 C 80.222656 61.15625 79.941406 61.464844 79.65625 61.789062 C 79.441406 62.023438 79.222656 62.257812 79 62.5 C 78.503906 62.171875 78.011719 61.839844 77.5 61.5 C 78.984375 60.179688 80.46875 58.859375 82 57.5 Z M 82 57.5 "/>
<path style=" stroke:none;fill-rule:nonzero;fill:rgb(56.078434%,89.019608%,47.450981%);fill-opacity:1;" d="M 66.5 47 C 66.996094 47.164062 67.488281 47.328125 68 47.5 C 67.90625 48.4375 67.90625 48.4375 67.5 49.5 C 66.21875 50.125 66.21875 50.125 65 50.5 C 65 50.003906 65 49.511719 65 49 C 65.328125 49 65.660156 49 66 49 C 66.164062 48.339844 66.328125 47.679688 66.5 47 Z M 66.5 47 "/>
<path style=" stroke:none;fill-rule:nonzero;fill:rgb(7.843138%,36.470589%,30.19608%);fill-opacity:1;" d="M 24 18.5 C 25.074219 20.113281 25.101562 20.640625 25 22.5 C 24.175781 22.664062 23.351562 22.828125 22.5 23 C 22.335938 22.503906 22.171875 22.011719 22 21.5 C 22.496094 21.335938 22.988281 21.171875 23.5 21 C 23.664062 20.175781 23.828125 19.351562 24 18.5 Z M 24 18.5 "/>
<path style=" stroke:none;fill-rule:nonzero;fill:rgb(46.27451%,43.921569%,30.980393%);fill-opacity:1;" d="M 53 70 C 54.484375 70.246094 54.484375 70.246094 56 70.5 C 56 70.996094 56 71.488281 56 72 C 54.679688 72 53.359375 72 52 72 C 52.328125 71.339844 52.660156 70.679688 53 70 Z M 53 70 "/>
<path style=" stroke:none;fill-rule:nonzero;fill:rgb(56.470591%,15.294118%,29.803923%);fill-opacity:1;" d="M 86 46.5 C 86.660156 46.664062 87.320312 46.828125 88 47 C 88 47.328125 88 47.660156 88 48 C 88.496094 48.164062 88.988281 48.328125 89.5 48.5 C 89.5 48.828125 89.5 49.160156 89.5 49.5 C 88.3125 49.40625 88.3125 49.40625 87 49 C 86.34375 47.71875 86.34375 47.71875 86 46.5 Z M 86 46.5 "/>
<path style=" stroke:none;fill-rule:nonzero;fill:rgb(46.27451%,41.568628%,38.431373%);fill-opacity:1;" d="M 70.5 64.5 C 70.828125 64.664062 71.160156 64.828125 71.5 65 C 69 67.5 69 67.5 67.6875 67.5625 C 67.296875 67.542969 66.902344 67.519531 66.5 67.5 C 66.5 67.171875 66.5 66.839844 66.5 66.5 C 67.144531 66.152344 67.789062 65.808594 68.4375 65.46875 C 68.796875 65.277344 69.15625 65.085938 69.527344 64.890625 C 69.847656 64.761719 70.167969 64.632812 70.5 64.5 Z M 70.5 64.5 "/>
<path style=" stroke:none;fill-rule:nonzero;fill:rgb(21.176471%,56.862748%,10.588235%);fill-opacity:1;" d="M 62.5 44.5 C 62.996094 44.664062 63.488281 44.828125 64 45 C 64 45.328125 64 45.660156 64 46 C 63.671875 46 63.339844 46 63 46 C 62.671875 46.824219 62.339844 47.648438 62 48.5 C 61.671875 48.003906 61.339844 47.511719 61 47 C 61.496094 46.175781 61.988281 45.351562 62.5 44.5 Z M 62.5 44.5 "/>
<path style=" stroke:none;fill-rule:nonzero;fill:rgb(61.176473%,31.764707%,43.137255%);fill-opacity:1;" d="M 90.5 36.5 C 90.828125 36.664062 91.160156 36.828125 91.5 37 C 91.5 37.496094 91.5 37.988281 91.5 38.5 C 91.191406 38.519531 90.882812 38.542969 90.5625 38.5625 C 90.210938 38.707031 89.859375 38.851562 89.5 39 C 88.847656 40.5 88.847656 40.5 88.5 42 C 88.171875 41.835938 87.839844 41.671875 87.5 41.5 C 88.105469 39.285156 88.757812 38.007812 90.5 36.5 Z M 90.5 36.5 "/>
<path style=" stroke:none;fill-rule:nonzero;fill:rgb(5.882353%,39.215687%,32.156864%);fill-opacity:1;" d="M 69 13.5 C 69.164062 13.996094 69.328125 14.488281 69.5 15 C 70.324219 15 71.148438 15 72 15 C 71.835938 15.496094 71.671875 15.988281 71.5 16.5 C 70.511719 16.5 69.519531 16.5 68.5 16.5 C 68.664062 15.511719 68.828125 14.519531 69 13.5 Z M 69 13.5 "/>
<path style=" stroke:none;fill-rule:nonzero;fill:rgb(77.64706%,54.509807%,83.92157%);fill-opacity:1;" d="M 37 12 C 38.886719 12.90625 40.6875 13.953125 42.5 15 C 42.5 15.164062 42.5 15.328125 42.5 15.5 C 41.40625 15.65625 41.40625 15.65625 40 15.5 C 38.742188 14.414062 37.746094 13.496094 37 12 Z M 37 12 "/>
<path style=" stroke:none;fill-rule:nonzero;fill:rgb(53.333336%,11.764706%,25.098041%);fill-opacity:1;" d="M 27.53125 10.96875 C 28.257812 10.984375 28.257812 10.984375 29 11 C 28.035156 12.011719 27.183594 12.710938 26 13.5 C 25.503906 13.5 25.011719 13.5 24.5 13.5 C 25.707031 11.007812 25.707031 11.007812 27.53125 10.96875 Z M 27.53125 10.96875 "/>
<path style=" stroke:none;fill-rule:nonzero;fill:rgb(65.490198%,15.686275%,31.764707%);fill-opacity:1;" d="M 73.5 6.5 C 74.820312 6.996094 76.140625 7.488281 77.5 8 C 77.003906 8.742188 77.003906 8.742188 76.5 9.5 C 75.511719 9.171875 74.519531 8.839844 73.5 8.5 C 73.5 7.839844 73.5 7.179688 73.5 6.5 Z M 73.5 6.5 "/>
<path style=" stroke:none;fill-rule:nonzero;fill:rgb(14.509805%,14.509805%,14.117648%);fill-opacity:1;" d="M 86 51.5 C 86.660156 51.5 87.320312 51.5 88 51.5 C 87.5 52.5 87 53.5 86.5 54.5 C 85.839844 54.335938 85.179688 54.171875 84.5 54 C 85.125 52.75 85.125 52.75 86 51.5 Z M 86 51.5 "/>
<path style=" stroke:none;fill-rule:nonzero;fill:rgb(28.235295%,72.941178%,64.313728%);fill-opacity:1;" d="M 83.5 40.5 C 83.996094 41.242188 83.996094 41.242188 84.5 42 C 84.828125 42.164062 85.160156 42.328125 85.5 42.5 C 85.335938 43.324219 85.171875 44.148438 85 45 C 84.503906 45 84.011719 45 83.5 45 C 83.5 43.515625 83.5 42.03125 83.5 40.5 Z M 83.5 40.5 "/>
<path style=" stroke:none;fill-rule:nonzero;fill:rgb(84.313726%,60.784316%,45.09804%);fill-opacity:1;" d="M 69.5 34 C 70.160156 34.296875 70.816406 34.597656 71.46875 34.90625 C 72.015625 35.160156 72.015625 35.160156 72.578125 35.414062 C 73.5 36 73.5 36 74 37.5 C 72.28125 36.878906 70.875 36.222656 69.5 35 C 69.5 34.671875 69.5 34.339844 69.5 34 Z M 69.5 34 "/>
<path style=" stroke:none;fill-rule:nonzero;fill:rgb(41.960785%,9.803922%,24.705882%);fill-opacity:1;" d="M 49.5 12.5 C 49.664062 12.828125 49.828125 13.160156 50 13.5 C 49.1875 14.75 49.1875 14.75 48 16 C 46.375 16.15625 46.375 16.15625 45 16 C 45.496094 15.671875 45.988281 15.339844 46.5 15 C 47.515625 14.183594 48.503906 13.339844 49.5 12.5 Z M 49.5 12.5 "/>
<path style=" stroke:none;fill-rule:nonzero;fill:rgb(12.156863%,8.235294%,6.27451%);fill-opacity:1;" d="M 38 87.5 C 37.378906 89.363281 36.613281 89.921875 35 91 C 34.503906 90.835938 34.011719 90.671875 33.5 90.5 C 34.058594 89.996094 34.621094 89.496094 35.1875 89 C 35.65625 88.582031 35.65625 88.582031 36.136719 88.15625 C 37 87.5 37 87.5 38 87.5 Z M 38 87.5 "/>
<path style=" stroke:none;fill-rule:nonzero;fill:rgb(3.921569%,1.960784%,1.568628%);fill-opacity:1;" d="M 59 72 C 61.96875 72.742188 61.96875 72.742188 65 73.5 C 65 73.664062 65 73.828125 65 74 C 63.019531 74 61.039062 74 59 74 C 59 73.339844 59 72.679688 59 72 Z M 59 72 "/>
<path style=" stroke:none;fill-rule:nonzero;fill:rgb(26.274511%,22.352941%,19.215687%);fill-opacity:1;" d="M 76 60 C 76.328125 60.328125 76.660156 60.660156 77 61 C 75.515625 62.15625 74.03125 63.308594 72.5 64.5 C 72.171875 64.335938 71.839844 64.171875 71.5 64 C 72.984375 62.679688 74.46875 61.359375 76 60 Z M 76 60 "/>
<path style=" stroke:none;fill-rule:nonzero;fill:rgb(22.352941%,20.392157%,18.039216%);fill-opacity:1;" d="M 45.5 38.5 C 46.160156 38.828125 46.820312 39.160156 47.5 39.5 C 47.335938 40.160156 47.171875 40.820312 47 41.5 C 45.0625 40.625 45.0625 40.625 44.5 39.5 C 44.828125 39.5 45.160156 39.5 45.5 39.5 C 45.5 39.171875 45.5 38.839844 45.5 38.5 Z M 45.5 38.5 "/>
<path style=" stroke:none;fill-rule:nonzero;fill:rgb(18.431373%,17.254902%,15.294118%);fill-opacity:1;" d="M 60.5 37 C 60.828125 37.164062 61.160156 37.328125 61.5 37.5 C 60.808594 39.570312 59.699219 40.160156 58 41.5 C 58.546875 39.613281 58.953125 38.265625 60.5 37 Z M 60.5 37 "/>
<path style=" stroke:none;fill-rule:nonzero;fill:rgb(20.784314%,20.392157%,20%);fill-opacity:1;" d="M 23 66 C 23.164062 66 23.328125 66 23.5 66 C 23.664062 67.980469 23.828125 69.960938 24 72 C 23.503906 71.835938 23.011719 71.671875 22.5 71.5 C 22.664062 69.683594 22.828125 67.871094 23 66 Z M 23 66 "/>
<path style=" stroke:none;fill-rule:nonzero;fill:rgb(5.490196%,5.490196%,5.098039%);fill-opacity:1;" d="M 84.5 54.5 C 84.996094 54.664062 85.488281 54.828125 86 55 C 85.5 56.5 85.5 56.5 83.96875 57.34375 C 83.484375 57.558594 83 57.777344 82.5 58 C 83.101562 56.753906 83.726562 55.660156 84.5 54.5 Z M 84.5 54.5 "/>
<path style=" stroke:none;fill-rule:nonzero;fill:rgb(87.058824%,72.941178%,87.058824%);fill-opacity:1;" d="M 43.5 7 C 44.75 8.085938 45.21875 8.863281 45.5 10.5 C 45.003906 10.335938 44.511719 10.171875 44 10 C 43.835938 9.671875 43.671875 9.339844 43.5 9 C 43.003906 9.246094 43.003906 9.246094 42.5 9.5 C 42.828125 8.675781 43.160156 7.851562 43.5 7 Z M 43.5 7 "/>
<path style=" stroke:none;fill-rule:nonzero;fill:rgb(21.568628%,18.82353%,15.294118%);fill-opacity:1;" d="M 39.5 73 C 40.160156 73.328125 40.820312 73.660156 41.5 74 C 38.6875 75.5 38.6875 75.5 37 75.5 C 37.824219 74.675781 38.648438 73.851562 39.5 73 Z M 39.5 73 "/>
<path style=" stroke:none;fill-rule:nonzero;fill:rgb(40.392157%,7.450981%,18.431373%);fill-opacity:1;" d="M 80.5 11.5 C 82.296875 12.167969 83.878906 12.980469 85.5 14 C 85.335938 14.328125 85.171875 14.660156 85 15 C 84.25 14.511719 83.5 14.023438 82.75 13.53125 C 82.332031 13.257812 81.914062 12.984375 81.484375 12.703125 C 81.160156 12.472656 80.835938 12.238281 80.5 12 C 80.5 11.835938 80.5 11.671875 80.5 11.5 Z M 80.5 11.5 "/>
<path style=" stroke:none;fill-rule:nonzero;fill:rgb(90.196079%,74.509805%,90.588236%);fill-opacity:1;" d="M 44 10 C 44.496094 10.164062 44.988281 10.328125 45.5 10.5 C 45.335938 11.820312 45.171875 13.140625 45 14.5 C 44.070312 12.933594 43.898438 11.8125 44 10 Z M 44 10 "/>
<path style=" stroke:none;fill-rule:nonzero;fill:rgb(77.64706%,57.647061%,81.960785%);fill-opacity:1;" d="M 50 8.5 C 50.328125 8.5 50.660156 8.5 51 8.5 C 50.625 11.375 50.625 11.375 49.5 12.5 C 49 11 49 11 49 9.5 C 49.328125 9.171875 49.660156 8.839844 50 8.5 Z M 50 8.5 "/>
<path style=" stroke:none;fill-rule:nonzero;fill:rgb(11.372549%,10.588235%,9.803922%);fill-opacity:1;" d="M 18.5 77 C 18.664062 77 18.828125 77 19 77 C 19.0625 80.3125 19.0625 80.3125 18.5 82 C 18.171875 82 17.839844 82 17.5 82 C 17.335938 81.339844 17.171875 80.679688 17 80 C 17.496094 80 17.988281 80 18.5 80 C 18.5 79.011719 18.5 78.019531 18.5 77 Z M 18.5 77 "/>
<path style=" stroke:none;fill-rule:nonzero;fill:rgb(32.156864%,77.254903%,20%);fill-opacity:1;" d="M 66.5 45.5 C 67.160156 45.664062 67.820312 45.828125 68.5 46 C 68.335938 46.660156 68.171875 47.320312 68 48 C 66.761719 47.503906 66.761719 47.503906 65.5 47 C 65.828125 46.503906 66.160156 46.011719 66.5 45.5 Z M 66.5 45.5 "/>
<path style=" stroke:none;fill-rule:nonzero;fill:rgb(4.313726%,3.921569%,3.137255%);fill-opacity:1;" d="M 61.5 36.5 C 62.820312 36.5 64.140625 36.5 65.5 36.5 C 64.320312 37.546875 63.726562 37.984375 62.125 38.09375 C 61.566406 38.046875 61.566406 38.046875 61 38 C 61.164062 37.503906 61.328125 37.011719 61.5 36.5 Z M 61.5 36.5 "/>
<path style=" stroke:none;fill-rule:nonzero;fill:rgb(37.254903%,63.137257%,59.215689%);fill-opacity:1;" d="M 86.5 36 C 86.828125 36.164062 87.160156 36.328125 87.5 36.5 C 87.125 39.375 87.125 39.375 86 40.5 C 86.164062 39.511719 86.328125 38.519531 86.5 37.5 C 86.171875 37.335938 85.839844 37.171875 85.5 37 C 85.828125 36.671875 86.160156 36.339844 86.5 36 Z M 86.5 36 "/>
</g>
</svg>
